<?xml version="1.0" encoding="UTF-8"?>
<svg width="46px" height="46px" viewBox="0 0 46 46" version="1.1" xmlns="http://www.w3.org/2000/svg" xmlns:xlink="http://www.w3.org/1999/xlink">
    <title>like copy</title>
    <g id="Page-1" stroke="none" stroke-width="1" fill="none" fill-rule="evenodd">
        <g id="Desktop-HD-Copy" transform="translate(-241.000000, -2641.000000)">
            <g id="Group-30" transform="translate(221.000000, 2318.000000)">
                <g id="Group-24" transform="translate(0.000000, 280.000000)">
                    <g id="like-copy" transform="translate(20.000000, 43.000000)">
                        <path d="M22.8971617,1.89612365 L25.5635359,0.888526826 C25.8609463,0.776160022 26.1956654,0.829168224 26.443772,1.02797103 L28.6683524,2.81022848 C28.839284,2.94720309 29.0543156,3.01705749 29.2730516,3.00673809 L32.1204123,2.87240948 C32.4380205,2.85741548 32.7399291,3.01123629 32.9144769,3.27707109 L34.4794096,5.65952956 C34.5996262,5.84263277 34.7824648,5.97546197 34.993792,6.03323297 L37.7432507,6.7853144 C38.0499221,6.8691926 38.2894733,7.10874381 38.3733515,7.41541521 L39.1254329,10.1648739 C39.1832039,10.3761129 39.3160331,10.5590397 39.4991363,10.6792563 L41.8815948,12.244189 C42.1473414,12.418825 42.3012504,12.7206454 42.2862564,13.0382536 L42.1519278,15.8856143 C42.1416084,16.1043503 42.211551,16.3193819 42.3484374,16.4903135 L44.1306949,18.7148939 C44.3294977,18.9630005 44.3825059,19.2977196 44.2701391,19.59513 L43.2625422,22.2615042 C43.1851026,22.4663928 43.1851026,22.6924495 43.2625422,22.8973381 L44.2701391,25.5637123 C44.3825059,25.8611227 44.3294977,26.1958418 44.1306949,26.4439484 L42.3484374,28.6685288 C42.2114628,28.8394604 42.1416084,29.054492 42.1519278,29.273228 L42.2862564,32.1205887 C42.3012504,32.4381969 42.1474296,32.7401055 41.8815948,32.9146533 L39.4991363,34.479586 C39.3160331,34.5998026 39.1832039,34.7826412 39.1254329,34.9939684 L38.3733515,37.7434271 C38.2894733,38.0500985 38.0499221,38.2896497 37.7432507,38.3735279 L34.993792,39.1256093 C34.782553,39.1833803 34.5996262,39.3162095 34.4794096,39.4993127 L32.9144769,41.8817712 C32.7398409,42.1475178 32.4380205,42.3014268 32.1204123,42.2864328 L29.2730516,42.1521042 C29.0543156,42.1417848 28.839284,42.2117274 28.6683524,42.3486138 L26.443772,44.1308713 C26.1956654,44.3296741 25.8609463,44.3826823 25.5635359,44.2703155 L22.8971617,43.2627186 C22.6922731,43.185279 22.4662164,43.185279 22.2613278,43.2627186 L19.5949536,44.2703155 C19.2975432,44.3826823 18.9628241,44.3296741 18.7147175,44.1308713 L16.4901371,42.3486138 C16.3192055,42.2116392 16.1041739,42.1417848 15.8854379,42.1521042 L13.0380772,42.2864328 C12.720469,42.3014268 12.4185604,42.147606 12.2440126,41.8817712 L10.6790799,39.4993127 C10.5588633,39.3162095 10.3760247,39.1833803 10.1646975,39.1256093 L7.41523881,38.3735279 C7.10856741,38.2896497 6.8690162,38.0500985 6.785138,37.7434271 L6.03305657,34.9939684 C5.97528557,34.7827294 5.84245637,34.5998026 5.65935316,34.479586 L3.27698289,32.9144769 C3.01123629,32.7398409 2.85732728,32.4380205 2.87232128,32.1204123 L3.00664989,29.2730516 C3.01696929,29.0542274 2.94702669,28.839284 2.81014028,28.6683524 L1.02788283,26.443772 C0.829080024,26.1956654 0.776071822,25.8609463 0.888438626,25.5635359 L1.89603545,22.8971617 C1.97347506,22.6922731 1.97347506,22.4662164 1.89603545,22.2613278 L0.888438626,19.5947772 C0.776071822,19.2973668 0.829080024,18.9626477 1.02788283,18.7145411 L2.81014028,16.4899607 C2.94711489,16.3190291 3.01696929,16.1039975 3.00664989,15.8852615 L2.87232128,13.0379008 C2.85732728,12.7202926 3.01114809,12.418384 3.27698289,12.2438362 L5.65944136,10.6789035 C5.84254457,10.5586869 5.97537377,10.3758483 6.03314477,10.1645211 L6.7852262,7.41506241 C6.8691044,7.10839101 7.10865561,6.8688398 7.41532701,6.7849616 L10.1647857,6.03288017 C10.3760247,5.97510917 10.5589515,5.84227997 10.6791681,5.65917676 L12.2441008,3.27671829 C12.4187368,3.01097169 12.7205572,2.85706268 13.0381654,2.87205668 L15.8855261,3.00638529 C16.1042621,3.01679289 16.3192937,2.94676209 16.4902253,2.80987568 L18.7148057,1.02761823 C18.9629123,0.828815424 19.2976314,0.775807222 19.5950418,0.888174026 L22.261416,1.89577085 C22.4661282,1.97347506 22.6922731,1.97347506 22.8971617,1.89612365 Z" id="Path" fill="#4DD0E1" fill-rule="nonzero"></path>
                        <path d="M29.2367765,38.3049584 C16.7406883,38.3049584 6.610477,28.1748353 6.610477,15.678659 C6.610477,12.3319099 7.34288982,9.15812098 8.64692686,6.29999989 L7.28503062,6.6725567 C6.97835921,6.75643491 6.738808,6.99598611 6.6549298,7.30265752 L5.90276018,10.0521162 C5.84498918,10.2633552 5.71215997,10.446282 5.52905677,10.5665868 L3.1465983,12.1315195 C2.88085169,12.3061555 2.72694269,12.6079759 2.74193669,12.9254959 L2.87626529,15.7728566 C2.88658469,15.9915926 2.81664209,16.2066242 2.67975569,16.3775558 L0.897498234,18.6021362 C0.698695428,18.8502429 0.645687227,19.1849619 0.75805403,19.4822841 L1.76565086,22.1486584 C1.84309046,22.353547 1.84309046,22.5796036 1.76565086,22.7844922 L0.75805403,25.4508664 C0.645687227,25.7482769 0.698695428,26.0829959 0.897498234,26.3311025 L2.67975569,28.5556829 C2.81673029,28.7266145 2.88658469,28.9416461 2.87626529,29.1603822 L2.74193669,32.0077428 C2.72694269,32.325351 2.88076349,32.6272597 3.1465983,32.8018075 L5.52905677,34.3667401 C5.71207177,34.4869567 5.84498918,34.6697953 5.90276018,34.8811225 L6.6549298,37.6305812 C6.738808,37.9372526 6.97835921,38.1768038 7.28503062,38.2608584 L10.0344893,39.013028 C10.2457283,39.070799 10.4286551,39.2036282 10.5488717,39.3867314 L12.1138044,41.7691899 C12.2884404,42.0349365 12.5902608,42.1887573 12.907869,42.1738515 L15.7551415,42.0395229 C15.9739657,42.0292035 16.1889973,42.0991461 16.3599289,42.2360325 L18.5845093,44.01829 C18.832616,44.2170046 19.167335,44.270101 19.4646572,44.1577342 L22.1310314,43.1501374 C22.3359201,43.0726978 22.5619767,43.0726978 22.7668653,43.1501374 L25.4332395,44.1577342 C25.73065,44.270101 26.065369,44.2170928 26.3133874,44.01829 L28.5379678,42.2360325 C28.7088994,42.0991461 28.923931,42.0292917 29.1427552,42.0395229 L31.9900277,42.1738515 C32.3076359,42.1888455 32.6095445,42.0350247 32.7840924,41.7691899 L34.349025,39.3867314 C34.4692416,39.2037164 34.6520802,39.070799 34.8634074,39.013028 L37.6128661,38.2608584 C37.9195375,38.1769802 38.1590887,37.937429 38.2429669,37.6305812 L38.6155237,36.268685 C35.7572262,37.5726338 32.5834373,38.3049584 29.2367765,38.3049584 Z" id="Path" fill="#4DD0E1" fill-rule="nonzero"></path>
                        <circle id="Oval" fill="#193647" fill-rule="nonzero" cx="22.2468236" cy="22.2468236" r="17.3468237"></circle>
                        <g id="noun_relax_1493256" transform="translate(9.000000, 13.000000)" stroke-linecap="round" stroke-linejoin="round">
                            <g id="Group">
                                <circle id="Oval" stroke="#04030F" stroke-width="1.5999999" cx="7.35559956" cy="1.6067999" r="1.33599992"></circle>
                                <path d="M5.46399967,4.74719972 C4.15399975,8.13439952 3.81919977,11.1555993 4.71599972,11.5027993" id="Path" stroke="#4DD0E1" stroke-width="3.19999981"></path>
                                <path d="M5.99559964,4.56599973 C6.49519961,6.19119963 8.84999947,6.90639959 11.2603993,6.16519963" id="Path" stroke="#04030F" stroke-width="1.5999999"></path>
                                <line x1="5.17999969" y1="11.7495993" x2="7.97439952" y2="12.5451993" id="Path" stroke="#4DD0E1" stroke-width="1.99999988"></line>
                                <line x1="8.13959951" y1="12.9155992" x2="9.21279945" y2="17.237599" id="Path" stroke="#4DD0E1" stroke-width="1.99999988"></line>
                                <line x1="0.197999988" y1="4.59439973" x2="2.02319988" y2="12.6755992" id="Path" stroke="#04030F" stroke-width="1.5999999"></line>
                                <line x1="2.93399983" y1="14.1303992" x2="5.80159965" y2="14.0651992" id="Path" stroke="#04030F" stroke-width="1.99999988"></line>
                                <line x1="2.67919984" y1="15.8467991" x2="1.58759991" y2="18.2151989" id="Path" stroke="#04030F" stroke-width="1.5999999"></line>
                                <line x1="6.01399964" y1="15.8467991" x2="7.10599958" y2="18.2151989" id="Path" stroke="#04030F" stroke-width="1.5999999"></line>
                                <circle id="Oval" stroke="#04030F" stroke-width="1.5999999" cx="19.8443988" cy="1.6067999" r="1.33599992"></circle>
                                <path d="M21.7359987,4.74719972 C23.0459986,8.13439952 23.3807986,11.1555993 22.4839987,11.5027993" id="Path" stroke="#FF7043" stroke-width="3.19999981"></path>
                                <path d="M21.2043987,4.56599973 C20.7047988,6.19119963 18.3499989,6.90639959 15.939599,6.16519963" id="Path" stroke="#04030F" stroke-width="1.5999999"></path>
                                <line x1="22.0199987" y1="11.7495993" x2="19.2255989" y2="12.5451993" id="Path" stroke="#FF7043" stroke-width="1.99999988"></line>
                                <line x1="19.0603989" y1="12.9155992" x2="17.9871989" y2="17.237599" id="Path" stroke="#FF7043" stroke-width="1.99999988"></line>
                                <line x1="27.0019984" y1="4.59439973" x2="25.1767985" y2="12.6755992" id="Path" stroke="#04030F" stroke-width="1.5999999"></line>
                                <line x1="24.2659986" y1="14.1303992" x2="21.3983987" y2="14.0651992" id="Path" stroke="#04030F" stroke-width="1.99999988"></line>
                                <line x1="24.5207985" y1="15.8467991" x2="25.6123985" y2="18.2151989" id="Path" stroke="#04030F" stroke-width="1.5999999"></line>
                                <line x1="21.1859987" y1="15.8467991" x2="20.0939988" y2="18.2151989" id="Path" stroke="#04030F" stroke-width="1.5999999"></line>
                                <line x1="13.5999992" y1="9.57879943" x2="13.5999992" y2="16.781599" id="Path" stroke="#04030F" stroke-width="1.5999999"></line>
                                <g transform="translate(8.799999, 8.000000)" stroke="#04030F" stroke-width="1.5999999">
                                    <polygon id="Path" points="0.189599989 0.307599982 4.79999971 1.57879991 9.41039944 0.307599982"></polygon>
                                    <ellipse id="Oval" cx="4.79999971" cy="9.72799942" rx="2.31359986" ry="1"></ellipse>
                                </g>
                            </g>
                        </g>
                        <path d="M43.8980502,22.5791677 L45.1127407,19.364895 C45.2012053,19.1310768 45.1594867,18.8679761 45.0031081,18.6727895 L42.8546442,15.9911567 L43.0165794,12.5588536 C43.0283982,12.3092476 42.9073878,12.071725 42.6985302,11.9345739 L39.8265617,10.0480641 L38.9200421,6.7336844 C38.8540685,6.49254559 38.6656733,6.30415039 38.4246227,6.23826498 L35.110243,5.33174536 L33.2237331,2.45986508 C33.0864939,2.25091927 32.8490595,2.13043807 32.5994535,2.14181587 L29.1671504,2.30375107 L26.4855175,0.155287209 C26.2904191,-0.00100319523 26.0273185,-0.0427217964 25.7934121,0.0456546061 L22.5791394,1.26034504 L19.3650431,0.0457428061 C19.1310485,-0.0427217964 18.8680361,-0.00100319523 18.6729377,0.155375409 L15.9913048,2.30383927 L12.5590017,2.14190407 C12.3081609,2.13008527 12.0718731,2.25109567 11.9347221,2.45995328 L10.0482122,5.33192176 L6.73392075,6.23844138 C6.49278194,6.30441499 6.30438673,6.49281019 6.23850133,6.7338608 L5.33198171,10.0482405 L2.46001322,11.9347503 C2.25106742,12.0719896 2.13014521,12.309424 2.14196401,12.55903 L2.30389922,15.9913331 L0.155435357,18.6728777 C-0.000855047984,18.8679761 -0.0425736492,19.1310768 0.0458027534,19.3649832 L1.26040499,22.5791677 L0.0457145534,25.7933521 C-0.0427500492,26.0271704 -0.00103144799,26.290271 0.155347157,26.4854576 L2.30381102,29.1670904 L2.14187581,32.5993935 C2.13005701,32.8489996 2.25106742,33.0865222 2.45992502,33.2236732 L5.33189351,35.110183 L6.23841313,38.4245627 C6.30438673,38.6657015 6.49278194,38.8540967 6.73383255,38.9199821 L10.0482122,39.8265018 L11.9347221,42.6984702 C12.0719613,42.907416 12.3098367,43.0276326 12.5590017,43.0165194 L15.9913048,42.8545842 L18.6729377,45.0030481 C18.8680361,45.1594267 19.1312249,45.2011453 19.3650431,45.1126807 L22.5793158,43.8979903 L25.7935885,45.1126807 C25.8747325,45.1432861 25.9593163,45.1583953 26.0434591,45.1583953 C26.2018663,45.1583953 26.3582449,45.1050955 26.4856057,45.0030481 L29.1672386,42.8545842 L32.5995417,43.0165194 C32.8499415,43.0276326 33.0865821,42.9073278 33.2238213,42.6984702 L35.1103312,39.8265018 L38.4247109,38.9199821 C38.6658497,38.8540085 38.8542449,38.6656133 38.9201303,38.4245627 L39.8266499,35.110183 L42.6986184,33.2236732 C42.9075642,33.086434 43.0284864,32.8489996 43.0166676,32.5993935 L42.8547324,29.1670904 L45.0031963,26.4854576 C45.1594867,26.2903592 45.2012053,26.0272586 45.1128289,25.7933521 L43.8980502,22.5791677 Z M42.4807644,22.8291265 L43.6472976,25.9160384 L41.5839468,28.4913902 C41.4762545,28.6257188 41.4213059,28.7947982 41.4294203,28.9667882 L41.5850052,32.2630869 L38.8268147,34.0748032 C38.6829605,34.1692654 38.5783553,34.3131196 38.5329323,34.4792884 L37.66231,37.6623383 L34.4792601,38.5329605 C34.3131795,38.5783835 34.1694135,38.6829005 34.0747749,38.8268429 L32.2630587,41.5850334 L28.96676,41.4294486 C28.7946818,41.4215106 28.6256906,41.4762828 28.491362,41.583975 L25.9160101,43.6473259 L22.8290982,42.4807926 C22.7485716,42.4503636 22.6638114,42.4351932 22.5791394,42.4351932 C22.4944674,42.4351932 22.4097072,42.4504518 22.3291806,42.4807926 L19.2422687,43.6473259 L16.6669168,41.583975 C16.5325882,41.4762828 16.3632442,41.4215106 16.1915188,41.4294486 L12.8952201,41.5850334 L11.0835039,38.8268429 C10.9890417,38.6829887 10.8451875,38.5783835 10.6790187,38.5329605 L7.49596877,37.6623383 L6.62534654,34.4792884 C6.57992354,34.3132078 6.47540654,34.1694418 6.33146413,34.0748032 L3.57336186,32.2630869 L3.72894666,28.9667882 C3.73706106,28.79471 3.68211246,28.6257188 3.57442026,28.4913902 L1.5110694,25.9160384 L2.67760263,22.8291265 C2.73854883,22.6680733 2.73854883,22.4902621 2.67760263,22.3292088 L1.5110694,19.242297 L3.57442026,16.6669451 C3.68211246,16.5326165 3.73706106,16.3635371 3.72894666,16.1915471 L3.57336186,12.8952484 L6.33146413,11.0835321 C6.47531834,10.9890699 6.57992354,10.8452157 6.62534654,10.6790469 L7.49596877,7.49599702 L10.6790187,6.6253748 C10.8450993,6.57995179 10.9888653,6.47543479 11.0835039,6.33149239 L12.8952201,3.57339011 L16.1915188,3.72897491 C16.3633324,3.73700111 16.5325882,3.68214071 16.6669168,3.57444851 L19.2422687,1.51109765 L22.3291806,2.67763088 C22.490322,2.73857708 22.668045,2.73857708 22.8290982,2.67763088 L25.9160101,1.51109765 L28.491362,3.57444851 C28.6256906,3.68222891 28.7948582,3.73708931 28.96676,3.72897491 L32.2630587,3.57339011 L34.0747749,6.33149239 C34.1692371,6.47534659 34.3130913,6.57995179 34.4792601,6.6253748 L37.66231,7.49599702 L38.5329323,10.6790469 C38.5783553,10.8451275 38.6828723,10.9888935 38.8268147,11.0835321 L41.584917,12.8952484 L41.4293321,16.1915471 C41.4212177,16.3636253 41.4761663,16.5326165 41.5838586,16.6669451 L43.6472976,19.242297 L42.4806762,22.3292088 C42.4199064,22.4903503 42.4199064,22.6680733 42.4807644,22.8291265 Z" id="Shape" fill="#000000" fill-rule="nonzero"></path>
                        <path d="M34.3225018,10.8037065 C34.4924632,10.9736679 34.6610134,11.1496269 34.8233896,11.3263797 C34.9628338,11.4782601 35.1533458,11.5552587 35.3444752,11.5552587 C35.5153186,11.5552587 35.6866912,11.4936951 35.822431,11.3690685 C36.1100512,11.1049977 36.1291906,10.6576473 35.8651198,10.3700271 C35.6891608,10.1784567 35.506675,9.98794469 35.3224252,9.80378308 C35.1381754,9.61962148 34.9477516,9.43704747 34.7561812,9.26108847 C34.468561,8.99701766 34.0212988,9.01606886 33.7571398,9.30377727 C33.493069,9.59139748 33.5121202,10.0387479 33.7998286,10.3028187 C33.9765814,10.4651067 34.152364,10.6335687 34.3225018,10.8037065 Z" id="Path" fill="#000000" fill-rule="nonzero"></path>
                        <path d="M10.7903001,10.8037065 C13.4839282,8.10999023 17.0500307,6.41081718 20.8314294,6.01912097 C24.5600845,5.63280496 28.3435118,6.52265479 31.4852841,8.52426565 C31.8147111,8.73409345 32.2516539,8.63724985 32.4614817,8.30791104 C32.6713095,7.97857223 32.5744659,7.54154122 32.2451271,7.33171341 C28.835315,5.15934735 24.7299577,4.19391012 20.685723,4.61259553 C16.5822179,5.03771955 12.7128838,6.881276 9.79028848,9.80378308 C6.57389899,13.0201726 4.70123654,17.2929335 4.51725133,21.834969 C4.33450093,26.3501918 5.83002017,30.7340847 8.72853685,34.178824 C8.86833386,34.3449928 9.06837146,34.430635 9.26999667,34.430635 C9.43069707,34.430635 9.59219128,34.3761274 9.72484408,34.2646426 C10.0235775,34.0131844 10.0620327,33.567157 9.81066268,33.2684236 C7.13987841,30.0941937 5.76184157,26.0541044 5.93039177,21.8922108 C6.09982398,17.7060623 7.82580983,13.7681086 10.7903001,10.8037065 Z" id="Path" fill="#000000" fill-rule="nonzero"></path>
                        <path d="M36.8183855,12.6645502 C36.4889585,12.874378 36.3922031,13.3114972 36.6020309,13.6407478 C38.6036417,16.7826083 39.4933151,20.566212 39.1071755,24.2946025 C38.7154793,28.0760894 37.0163063,31.6421037 34.3226782,34.3359082 C31.3581879,37.3003103 27.4202342,39.0262961 23.2341739,39.1958165 C19.072986,39.3649841 15.0321028,37.9863299 11.8579611,35.3156338 C11.5592277,35.0641756 11.1132003,35.1026308 10.8617421,35.4014524 C10.6102839,35.7001858 10.6487391,36.1462132 10.9475607,36.3976715 C14.203993,39.1376045 18.2991191,40.6238628 22.5516823,40.6238628 C22.7976721,40.6238628 23.0446321,40.6188354 23.2915921,40.6088688 C27.8336276,40.4249718 32.1063003,38.5523093 35.322778,35.3359198 C38.2453733,32.4133245 40.089018,28.5439022 40.5139656,24.4403971 C40.9329156,20.395986 39.967302,16.2908051 37.7948477,12.880993 C37.5848435,12.551566 37.1475479,12.4546342 36.8183855,12.6645502 Z" id="Path" fill="#000000" fill-rule="nonzero"></path>
                    </g>
                </g>
            </g>
        </g>
    </g>
</svg>