<?xml version="1.0" encoding="UTF-8"?>
<svg width="25px" height="25px" viewBox="0 0 25 25" version="1.1" xmlns="http://www.w3.org/2000/svg" xmlns:xlink="http://www.w3.org/1999/xlink">
    <title>noun_chat_2519197</title>
    <g id="Page-1" stroke="none" stroke-width="1" fill="none" fill-rule="evenodd">
        <g id="Desktop-HD-Copy" transform="translate(-1243.000000, -3625.000000)" fill="#FFFFFF" fill-rule="nonzero" stroke="#FFFFFF" stroke-width="0.761399916">
            <g id="Group-2" transform="translate(0.000000, 3395.000000)">
                <g id="Group-3">
                    <g id="Group-6" transform="translate(940.000000, 50.000000)">
                        <g id="Group-5" transform="translate(0.000000, 170.000000)">
                            <g id="noun_chat_2519197" transform="translate(303.000000, 10.000000)">
                                <path d="M12.1846829,0.45683995 C9.04923801,0.45683995 6.10947293,1.67127282 3.88923077,3.89075357 C-0.36090356,8.14088791 -0.689066924,14.9044034 3.04179267,19.5306693 L3.22909705,19.7628962 L3.09204506,20.0278634 C2.57886152,21.0176833 1.92634179,21.7432974 1.13220168,22.1369412 L1.13220168,22.138464 L1.13067888,22.138464 C0.800231312,22.3006422 0.620540932,22.6501247 0.675361726,23.0125511 C0.73094392,23.3810686 1.00276369,23.6544112 1.37432685,23.7145618 L1.37584965,23.7145618 C1.66442022,23.7602458 1.97354858,23.7846106 2.29333655,23.7846106 C3.11869406,23.7846106 4.68641649,23.6209096 6.25490031,22.5815987 L6.48103609,22.4316029 L6.72163846,22.5579953 C8.39671828,23.4435034 10.2773761,23.9094802 12.1839215,23.9094802 C15.3193663,23.9094802 18.25837,22.6904789 20.4732824,20.4755666 C22.6881947,18.2606542 23.907196,15.3208891 23.907196,12.1862057 C23.907196,9.05152221 22.6881947,6.11023433 20.4732824,3.89532197 C18.2530402,1.67051142 15.3193663,0.45683995 12.1839215,0.45683995 L12.1846829,0.45683995 Z M12.1846829,1.24336606 C15.1046515,1.24336606 17.8525438,2.38394314 19.9159376,4.44809831 C21.9793314,6.51225349 23.1191471,9.25862298 23.1191471,12.1778303 C23.1191471,15.0924691 21.9800928,17.8449298 19.9159376,19.909085 C17.8517824,21.9732402 15.1038901,23.1138173 12.1846829,23.1138173 C10.2324535,23.1138173 8.32057829,22.5945425 6.64854407,21.6115752 L6.64854407,21.6100524 L6.64702127,21.6100524 C6.58458648,21.5727438 6.51834468,21.5552316 6.44753449,21.5552316 C6.3607349,21.5552316 6.27850371,21.582642 6.20693212,21.6382242 L6.20540932,21.6382242 C4.97118005,22.5945425 3.6889826,22.8907271 2.81489549,22.9661057 L1.45275104,23.0833613 L2.47150413,22.1704428 C3.08823806,21.6176664 3.6235022,20.8410385 4.06130715,19.8413204 L4.06130715,19.8397976 C4.12374195,19.6974158 4.10013855,19.5405675 3.99582676,19.4248347 L3.99278116,19.4217891 C0.172837781,15.1092199 0.375370159,8.52539486 4.45495091,4.44657551 C6.51910608,2.38318174 9.26547558,1.24184326 12.1846829,1.24184326 L12.1846829,1.24336606 Z M7.14040842,8.32057829 C6.91503404,8.32057829 6.74067346,8.49493887 6.74067346,8.72031324 C6.74067346,8.94568762 6.91427264,9.1185254 7.14040842,9.1185254 L17.2304801,9.1185254 C17.4573773,9.1185254 17.6286923,8.94644902 17.6286923,8.72031324 C17.6286923,8.49417747 17.4558545,8.32057829 17.2304801,8.32057829 L7.14040842,8.32057829 Z M7.14040842,11.7796181 C6.91351124,11.7796181 6.74067346,11.9524559 6.74067346,12.1778303 C6.74067346,12.4032046 6.91122704,12.5722354 7.14040842,12.5722354 L17.2304801,12.5722354 C17.4566159,12.5722354 17.6286923,12.396352 17.6286923,12.1778303 C17.6286923,11.9593085 17.4535703,11.7796181 17.2304801,11.7796181 L7.14040842,11.7796181 Z M7.14040842,15.2371351 C6.91503404,15.2371351 6.74067346,15.4114957 6.74067346,15.6368701 C6.74067346,15.8546305 6.91503404,16.0312752 7.14040842,16.0312752 L17.2304801,16.0312752 C17.4566159,16.0312752 17.6286923,15.8553919 17.6286923,15.6368701 C17.6286923,15.4099729 17.4558545,15.2371351 17.2304801,15.2371351 L7.14040842,15.2371351 Z" id="Shape"></path>
                            </g>
                        </g>
                    </g>
                </g>
            </g>
        </g>
    </g>
</svg>