<?xml version="1.0" encoding="UTF-8"?>
<svg width="38px" height="32px" viewBox="0 0 38 32" version="1.1" xmlns="http://www.w3.org/2000/svg" xmlns:xlink="http://www.w3.org/1999/xlink">
    <title>Group 38</title>
    <g id="Page-1" stroke="none" stroke-width="1" fill="none" fill-rule="evenodd">
        <g id="Desktop-HD-Copy" transform="translate(-138.000000, -1772.000000)">
            <g id="Group" transform="translate(140.000000, 1546.000000)">
                <g id="Group-38" transform="translate(0.000000, 228.000000)">
                    <path d="M28,19.5980574 L28,26.5999995 C28,27.3731982 27.3731982,28 26.5999995,28 L1.39999998,28 C0.62680134,28 0,27.3731982 0,26.5999995 L0,1.39999998 C0,0.62680134 0.62680134,0 1.39999998,0 L26.5999995,0 C27.3731982,0 28,0.62680134 28,1.39999998 L28,7.16136411" id="Path" stroke="#A2A9AD" stroke-width="2.09999996" stroke-linecap="round"></path>
                    <path d="M34.6915646,6.60253059 L34.6952927,6.60625868 C35.1021715,7.01520998 35.1021715,7.67605559 34.6952927,8.08500689 L21.4540061,21.3937408 C21.0497894,21.8000164 20.3927557,21.8016856 19.9864801,21.3974689 C19.9852342,21.3962294 19.9839915,21.3949867 19.982752,21.3937408 L19.9765582,21.3864567 L14.3144417,15.9475574 C13.9062573,15.5554699 13.8932083,14.9067214 14.2852958,14.498537 L14.2978836,14.4856608 L14.2978836,14.4856608 C14.6982544,14.0832506 15.349037,14.0815974 15.7514472,14.4819682 C15.7550029,14.4855059 15.7585327,14.4890696 15.7620363,14.492659 L20.5235582,19.3704567 L33.2240386,6.60625868 C33.6282553,6.19998308 34.285289,6.19831396 34.6915646,6.60253059 Z" id="Combined-Shape" stroke="#DCA69F" stroke-width="0.979999983" fill="#DCA69F"></path>
                </g>
            </g>
        </g>
    </g>
</svg>