<?xml version="1.0" encoding="UTF-8"?>
<svg width="32px" height="134px" viewBox="0 0 32 134" version="1.1" xmlns="http://www.w3.org/2000/svg" xmlns:xlink="http://www.w3.org/1999/xlink">
    <title>Group 4</title>
    <g id="Page-1" stroke="none" stroke-width="1" fill="none" fill-rule="evenodd">
        <g id="Desktop-HD-Copy" transform="translate(-343.000000, -677.000000)">
            <g id="Group-4" transform="translate(343.000000, 677.000000)">
                <text id="Scroll-to-explore" transform="translate(10.000000, 54.000000) rotate(90.000000) translate(-10.000000, -54.000000) " font-family="Poppins-ExtraLight, Poppins" font-size="14" font-weight="300" fill="#193647">
                    <tspan x="-43.998" y="59">Scroll to explore</tspan>
                </text>
                <path id="Line" d="M28,25 L28.0007074,125.027543 C30.2503421,125.276586 32,127.183966 32,129.5 C32,131.985281 29.9852814,134 27.5,134 C25.0147186,134 23,131.985281 23,129.5 C23,127.183621 24.7501788,125.276019 27.000297,125.027432 L27,25 L28,25 Z M27.5,126 C25.5670034,126 24,127.567003 24,129.5 C24,131.432997 25.5670034,133 27.5,133 C29.4329966,133 31,131.432997 31,129.5 C31,127.567003 29.4329966,126 27.5,126 Z" fill="#DCA69F" fill-rule="nonzero"></path>
            </g>
        </g>
    </g>
</svg>