<?xml version="1.0" encoding="UTF-8"?>
<svg width="46px" height="46px" viewBox="0 0 46 46" version="1.1" xmlns="http://www.w3.org/2000/svg" xmlns:xlink="http://www.w3.org/1999/xlink">
    <title>like</title>
    <g id="Page-1" stroke="none" stroke-width="1" fill="none" fill-rule="evenodd">
        <g id="Desktop-HD-Copy" transform="translate(-241.000000, -2498.000000)" fill-rule="nonzero">
            <g id="Group-30" transform="translate(221.000000, 2318.000000)">
                <g id="Group-23" transform="translate(0.000000, 140.000000)">
                    <g id="like" transform="translate(20.000000, 40.000000)">
                        <path d="M22.8971617,1.90717977 L25.5635359,0.89370774 C25.8609463,0.780685737 26.1956654,0.834003024 26.443772,1.03396503 L28.6683524,2.82661465 C28.839284,2.96438794 29.0543156,3.03464966 29.2730516,3.02427009 L32.1204123,2.88915823 C32.4380205,2.8740768 32.7399291,3.02879452 32.9144769,3.29617938 L34.4794096,5.69252974 C34.5996262,5.8767006 34.7824648,6.01030432 34.993792,6.06841218 L37.7432507,6.82487891 C38.0499221,6.9092462 38.2894733,7.15019421 38.3733515,7.45865379 L39.1254329,10.2241443 C39.1832039,10.436615 39.3160331,10.6206084 39.4991363,10.741526 L41.8815948,12.3155836 C42.1473414,12.4912379 42.3012504,12.7948182 42.2862564,13.1142784 L42.1519278,15.9782417 C42.1416084,16.1982532 42.211551,16.4145386 42.3484374,16.5864669 L44.1306949,18.8240187 C44.3294977,19.073572 44.3825059,19.4102427 44.2701391,19.7093873 L43.2625422,22.3913089 C43.1851026,22.5973922 43.1851026,22.8247669 43.2625422,23.0308502 L44.2701391,25.7127719 C44.3825059,26.0119165 44.3294977,26.3485872 44.1306949,26.5981405 L42.3484374,28.8356923 C42.2114628,29.0076206 42.1416084,29.223906 42.1519278,29.4439174 L42.2862564,32.3078808 C42.3012504,32.6273409 42.1474296,32.93101 41.8815948,33.1065755 L39.4991363,34.6806331 C39.3160331,34.8015507 39.1832039,34.9854554 39.1254329,35.1980149 L38.3733515,37.9635054 C38.2894733,38.271965 38.0499221,38.512913 37.7432507,38.5972803 L34.993792,39.353747 C34.782553,39.4118549 34.5996262,39.5454586 34.4794096,39.7296294 L32.9144769,42.1259798 C32.7398409,42.3932759 32.4380205,42.5480824 32.1204123,42.5330009 L29.2730516,42.3978891 C29.0543156,42.3875095 28.839284,42.4578599 28.6683524,42.5955445 L26.443772,44.3881941 C26.1956654,44.5881561 25.8609463,44.6414734 25.5635359,44.5284514 L22.8971617,43.5149794 C22.6922731,43.4370883 22.4662164,43.4370883 22.2613278,43.5149794 L19.5949536,44.5284514 C19.2975432,44.6414734 18.9628241,44.5881561 18.7147175,44.3881941 L16.4901371,42.5955445 C16.3192055,42.4577712 16.1041739,42.3875095 15.8854379,42.3978891 L13.0380772,42.5330009 C12.720469,42.5480824 12.4185604,42.3933647 12.2440126,42.1259798 L10.6790799,39.7296294 C10.5588633,39.5454586 10.3760247,39.4118549 10.1646975,39.353747 L7.41523881,38.5972803 C7.10856741,38.512913 6.8690162,38.271965 6.785138,37.9635054 L6.03305657,35.1980149 C5.97528557,34.9855442 5.84245637,34.8015507 5.65935316,34.6806331 L3.27698289,33.1063981 C3.01123629,32.9307438 2.85732728,32.6271635 2.87232128,32.3077034 L3.00664989,29.44374 C3.01696929,29.2236398 2.94702669,29.0074431 2.81014028,28.8355148 L1.02788283,26.5979631 C0.829080024,26.3484098 0.776071822,26.011739 0.888438626,25.7125945 L1.89603545,23.0306728 C1.97347506,22.8245895 1.97347506,22.5972148 1.89603545,22.3911315 L0.888438626,19.7090324 C0.776071822,19.4098878 0.829080024,19.0732171 1.02788283,18.8236638 L2.81014028,16.5861121 C2.94711489,16.4141838 3.01696929,16.1978983 3.00664989,15.9778869 L2.87232128,13.1139235 C2.85732728,12.7944634 3.01114809,12.4907944 3.27698289,12.3152288 L5.65944136,10.7411712 C5.84254457,10.6202536 5.97537377,10.4363489 6.03314477,10.2237894 L6.7852262,7.45829893 C6.8691044,7.14983935 7.10865561,6.90889134 7.41532701,6.82452405 L10.1647857,6.06805732 C10.3760247,6.00994946 10.5589515,5.87634574 10.6791681,5.69217488 L12.2441008,3.29582452 C12.4187368,3.02852837 12.7205572,2.87372194 13.0381654,2.88880337 L15.8855261,3.02391523 C16.1042621,3.03438352 16.3192937,2.96394437 16.4902253,2.8262598 L18.7148057,1.03361017 C18.9629123,0.833648167 19.2976314,0.78033088 19.5950418,0.893352883 L22.261416,1.90682491 C22.4661282,1.9849822 22.6922731,1.9849822 22.8971617,1.90717977 Z" id="Path" fill="#4DD0E1"></path>
                        <path d="M29.367161,38.6415487 C16.8710729,38.6415487 7.47327442,9.32475884 8.77731145,6.44997233 L7.41541521,6.82470148 C7.10874381,6.90906877 6.8691926,7.15001678 6.7853144,7.45847636 L6.03314477,10.2239669 C5.97537377,10.4364376 5.84254457,10.620431 5.65944136,10.7414373 L3.27698289,12.3154949 C3.01123629,12.4911492 2.85732728,12.7947295 2.87232128,13.1141009 L3.00664989,15.9780643 C3.01696929,16.1980758 2.94702669,16.4143612 2.81014028,16.5862895 L1.02788283,18.8238413 C0.829080024,19.0733946 0.776071822,19.4100653 0.888438626,19.7091211 L1.89603545,22.3910428 C1.97347506,22.5971261 1.97347506,22.8245008 1.89603545,23.0305841 L0.888438626,25.7125057 C0.776071822,26.0116503 0.829080024,26.348321 1.02788283,26.5978743 L2.81014028,28.8354261 C2.94711489,29.0073544 3.01696929,29.2236398 3.00664989,29.4436513 L2.87232128,32.3076146 C2.85732728,32.6270748 3.01114809,32.9307438 3.27698289,33.1063094 L5.65944136,34.680367 C5.84245637,34.8012846 5.97537377,34.9851893 6.03314477,35.1977487 L6.7853144,37.9632392 C6.8691926,38.2716988 7.10874381,38.5126468 7.41541521,38.5971915 L10.1648739,39.353747 C10.3761129,39.4118549 10.5590397,39.5454586 10.6792563,39.7296294 L12.244189,42.1259798 C12.418825,42.3932759 12.7206454,42.5479937 13.0382536,42.5330009 L15.8855261,42.3978891 C16.1043503,42.3875095 16.3193819,42.4578599 16.4903135,42.5955445 L18.7148939,44.3881941 C18.9630005,44.5880674 19.2977196,44.6414734 19.5950418,44.5284514 L22.261416,43.5149794 C22.4663046,43.4370883 22.6923613,43.4370883 22.8972499,43.5149794 L25.5636241,44.5284514 C25.8610345,44.6414734 26.1957536,44.5881561 26.443772,44.3881941 L28.6683524,42.5955445 C28.839284,42.4578599 29.0543156,42.3875982 29.2731398,42.3978891 L32.1204123,42.5330009 C32.4380205,42.5480824 32.7399291,42.3933647 32.9144769,42.1259798 L34.4794096,39.7296294 C34.5996262,39.5455473 34.7824648,39.4118549 34.993792,39.353747 L37.7432507,38.5971915 C38.0499221,38.5128243 38.2894733,38.2718762 38.3733515,37.9632392 L38.7459083,36.5934019 C36.6097145,37.5736111 30.212642,38.6415487 29.367161,38.6415487 Z" id="Path" fill="#4DD0E1"></path>
                        <ellipse id="Oval" fill="#193647" cx="22.5791125" cy="22.7108578" rx="17.3468237" ry="17.4479714"></ellipse>
                        <path d="M33.896143,20.0557279 C33.896143,19.0082783 33.0519808,18.1591938 32.0106033,18.1591938 L25.4830093,18.1591938 C27.2387186,16.7293856 28.4310062,14.8114714 28.603349,13.2341314 C28.7310626,12.0645222 27.9271196,10.9537306 26.7574112,10.9427349 C25.7083603,10.9330602 24.8545843,11.7768218 24.8545843,12.8295942 C24.8545843,13.5126055 23.3807623,15.5395496 20.6187792,16.441419 C20.175927,16.5859346 19.7898756,16.8610376 19.471209,17.2024102 C19.2364206,17.4537378 18.6109061,18.2192534 17.9975633,18.6366541 C17.8862549,18.3573815 17.6171567,18.1591051 17.2997249,18.1591051 L12.7744474,18.1591051 C12.357967,18.1591051 12.0202491,18.4987921 12.0202491,18.917701 L12.0202491,31.0554125 C12.0202491,31.4743213 12.357967,31.8140083 12.7744474,31.8140083 L17.2997249,31.8140083 C17.7162053,31.8140083 18.0539231,31.4743213 18.0539231,31.0554125 L30.1250637,31.0554125 C30.9582009,31.0554125 31.6334601,30.3760384 31.6334601,29.5382207 C31.6334601,28.7002255 30.9582009,28.021029 30.1250637,28.021029 L30.8792619,28.021029 C31.7123991,28.021029 32.3876583,27.3416549 32.3876583,26.5038372 C32.3876583,25.665842 31.7123991,24.9866454 30.8792619,24.9866454 L31.6334601,24.9866454 C32.4665973,24.9866454 33.1418566,24.3072714 33.1418566,23.4694537 C33.1418566,22.6314585 32.4665973,21.9522619 31.6334601,21.9522619 L32.0106033,21.9522619 C33.0518926,21.9521732 33.896143,21.1031775 33.896143,20.0557279 Z" id="Path"></path>
                        <g id="Group" transform="translate(11.995200, 10.911857)">
                            <path d="M17.3719607,15.5919797 C16.9554803,15.5919797 16.6177625,15.9316667 16.6177625,16.3505756 C16.6177625,16.7694845 16.9554803,17.1091715 17.3719607,17.1091715 L18.1299515,17.1091715 L18.8035349,17.1091715 C19.5549108,17.1091715 20.251338,16.5926769 20.3719956,15.8466785 C20.3859312,15.7599159 20.3851374,15.6759922 20.384961,15.5919797 L17.3719607,15.5919797 Z" id="Path"></path>
                            <path d="M17.3719607,12.5575962 C16.9554803,12.5575962 16.6177625,12.8972832 16.6177625,13.3161921 C16.6177625,13.735101 16.9554803,14.074788 17.3719607,14.074788 L18.8841497,14.074788 L19.5577332,14.074788 C20.309109,14.074788 21.0055362,13.5582934 21.1261938,12.8122949 C21.1401294,12.7255324 21.1393356,12.6416087 21.1392837,12.5575962 L17.3719607,12.5575962 Z" id="Path"></path>
                            <path d="M17.3719607,9.52312399 C16.9554803,9.52312399 16.6177625,9.862811 16.6177625,10.2817199 C16.6177625,10.7006287 16.9554803,11.0403157 17.3719607,11.0403157 L19.638348,11.0403157 L20.0154912,11.0403157 C20.926509,11.0403157 21.6768264,10.386935 21.8529618,9.52312399 L17.3719607,9.52312399 L17.3719607,9.52312399 Z" id="Path"></path>
                            <path d="M8.32140564,17.8678561 L8.32140564,8.57565539 C8.32140564,8.24546081 8.53264465,7.95660709 8.84451986,7.85387594 C10.3643823,7.35264021 14.6956198,5.48227687 15.06703,0.360446153 C14.9412568,0.23065715 14.8736074,0.160839005 14.7478342,0.0310466097 C13.7053984,0.0290982866 12.8592958,0.869843597 12.8592958,1.9179142 C12.8592958,2.6009255 11.3854737,4.62786956 8.62349065,5.52973902 C8.18063844,5.67425459 7.79458702,5.9493576 7.47592042,6.29073018 C7.24836441,6.53433962 6.65345539,7.25851435 6.05863457,7.68310094 L6.05863457,18.626452 L3.79603991,18.626452 C2.96290269,18.626452 2.28764347,17.9472554 2.28764347,17.1092602 L2.28764347,7.24733635 L0.779247022,7.24733635 C0.36276661,7.24733635 0.0250488007,7.58702336 0.0250488007,8.00593223 L0.0250488007,20.1436437 C0.0250488007,20.5625526 0.36276661,20.9022396 0.779247022,20.9022396 L5.30452455,20.9022396 C5.72100497,20.9022396 6.05872277,20.5625526 6.05872277,20.1436437 L18.1298633,20.1436437 C18.9630005,20.1436437 19.6382598,19.4642697 19.6382598,18.626452 L9.07551566,18.626452 C8.65903525,18.626452 8.32140564,18.2868537 8.32140564,17.8678561 Z" id="Path"></path>
                        </g>
                        <path d="M34.6032424,20.0557279 C34.6032424,18.617758 33.4402372,17.4479714 32.0106033,17.4479714 L27.2458628,17.4479714 C28.4034878,16.1391695 29.1600674,14.6488581 29.3062148,13.3118451 C29.3954732,12.4952301 29.1446324,11.6846476 28.6178138,11.0878666 C28.13633,10.5423624 27.477917,10.2383386 26.7638498,10.2315963 C26.755559,10.2315963 26.7472682,10.2315963 26.7390656,10.2315963 C26.0483714,10.2315963 25.4001013,10.4991586 24.9108559,10.9867323 C24.4215223,11.4743948 24.1507483,12.1240495 24.1475731,12.8173517 C24.1224361,12.9691418 23.8569541,13.4924674 23.2073611,14.1138223 C22.6755151,14.6226874 21.7568238,15.3221996 20.400396,15.76515 C19.86855,15.9388526 19.3824798,16.2586676 18.9557681,16.7157236 C18.7318283,16.9554296 18.3964919,17.2865114 17.9813345,17.6188351 C17.7775925,17.5102488 17.5458911,17.4481488 17.2997249,17.4481488 L12.7744474,17.4481488 C11.9686521,17.4481488 11.3131497,18.1074734 11.3131497,18.9179671 L11.3131497,31.0556786 C11.3131497,31.8661723 11.9686521,32.5254969 12.7744474,32.5254969 L17.2997249,32.5254969 C17.8490345,32.5254969 18.3280487,32.2187229 18.5776547,31.7669011 L30.1250637,31.7669011 C31.3467219,31.7669011 32.3405595,30.7672685 32.3405595,29.5384869 C32.3405595,29.1253444 32.2282809,28.7381953 32.0326533,28.406049 C32.6691927,28.0141092 33.0947578,27.3081209 33.0947578,26.5040146 C33.0947578,26.0908722 32.9824792,25.703723 32.7868515,25.3715767 C33.423391,24.979637 33.848956,24.2736487 33.848956,23.4695424 C33.848956,23.0045021 33.7066012,22.5722861 33.4634338,22.2145901 C34.1507764,21.7451141 34.6032424,20.9525406 34.6032424,20.0557279 Z M32.0106033,21.2410395 L31.6334601,21.2410395 C31.2429987,21.2410395 30.9263607,21.5594351 30.9263607,21.9522619 C30.9263607,22.3450001 31.2429105,22.6634844 31.6334601,22.6634844 C32.0753421,22.6634844 32.4348453,23.0250838 32.4348453,23.4695424 C32.4348453,23.914001 32.0753421,24.2756004 31.6334601,24.2756004 L30.8792619,24.2756004 C30.4888005,24.2756004 30.1721625,24.593996 30.1721625,24.9868229 C30.1721625,25.3796497 30.4887123,25.6980453 30.8792619,25.6980453 C31.3211439,25.6980453 31.6806471,26.0596448 31.6806471,26.5041033 C31.6806471,26.9485619 31.3211439,27.3101614 30.8792619,27.3101614 L30.1250637,27.3101614 C29.7346023,27.3101614 29.4179642,27.6285569 29.4179642,28.0213838 C29.4179642,28.4142107 29.7345141,28.7326063 30.1250637,28.7326063 C30.5669457,28.7326063 30.9264489,29.0942057 30.9264489,29.5386643 C30.9264489,29.9831229 30.5669457,30.3447223 30.1250637,30.3447223 L18.7610225,30.3447223 L18.7610225,23.4698085 C18.7610225,23.0770704 18.4444727,22.7585861 18.0539231,22.7585861 C17.6634617,22.7585861 17.3468237,23.0769817 17.3468237,23.4698085 L17.3468237,31.055856 C17.3468237,31.0820268 17.3257439,31.1032295 17.2997249,31.1032295 L12.7744474,31.1032295 C12.7484284,31.1032295 12.7273486,31.0820268 12.7273486,31.055856 L12.7273486,18.9177897 C12.7273486,18.891619 12.7484284,18.8704163 12.7744474,18.8704163 L17.2997249,18.8704163 C17.3257439,18.8704163 17.3468237,18.891619 17.3468237,18.9177897 L17.3468237,20.4350702 C17.3468237,20.8278083 17.6633735,21.1462926 18.0539231,21.1462926 C18.4443845,21.1462926 18.7610225,20.827897 18.7610225,20.4350702 L18.7610225,18.9177897 C18.7610225,18.8832798 18.7582001,18.8494797 18.7558187,18.8155908 C19.285989,18.4028032 19.7099664,17.9854912 19.9865616,17.6893629 C20.248251,17.4089371 20.5343718,17.2167819 20.836986,17.1180429 C22.50132,16.5745792 23.6213719,15.6995015 24.2677897,15.0611134 C25.0779949,14.2609993 25.5615955,13.4269075 25.5615955,12.8297717 C25.5615955,12.5143036 25.6839289,12.2186189 25.9061047,11.9971881 C26.1310148,11.7730071 26.4288662,11.6545735 26.750708,11.6541299 C27.1470788,11.6578559 27.409562,11.8618101 27.5601194,12.0323189 C27.8181926,12.3246325 27.9452006,12.7449608 27.9003068,13.1565064 C27.7458686,14.5696363 26.6222888,16.3164206 25.0378639,17.6065038 C24.8051041,17.7960862 24.7162867,18.1126188 24.8162173,18.3965932 C24.9161479,18.6805677 25.1832175,18.8704163 25.4827447,18.8704163 L32.0104269,18.8704163 C32.6602845,18.8704163 33.1888672,19.402081 33.1888672,20.0557279 C33.1888672,20.7093747 32.6603727,21.2410395 32.0106033,21.2410395 Z" id="Shape" fill="#FF7043"></path>
                        <path d="M15.0371302,28.0608617 C14.6466688,28.0608617 14.3263264,28.383072 14.3263264,28.7758101 C14.3263264,29.1685483 14.6466688,29.4907586 15.0371302,29.4907586 C15.4275916,29.4907586 15.7479341,29.1685483 15.7479341,28.7758101 C15.7479341,28.383072 15.4276798,28.0608617 15.0371302,28.0608617 Z" id="Path" fill="#FF7043"></path>
                        <path d="M43.8980233,22.7108578 L45.1127137,19.477843 C45.2011783,19.2426614 45.1594597,18.9780267 45.0030811,18.781702 L42.8546172,16.0844327 L43.0165524,12.6321162 C43.0283712,12.3810548 42.9073608,12.1421472 42.6985032,12.0041965 L39.8265347,10.1066866 L38.9200151,6.77298105 C38.8540415,6.53043619 38.6656463,6.34094247 38.4245957,6.2746729 L35.110216,5.36286744 L33.2237062,2.4742415 C33.086467,2.26407735 32.8490325,2.14289363 32.5994265,2.15433778 L29.1671234,2.31721721 L26.4854906,0.156225862 C26.2903922,-0.000975857171 26.0272916,-0.0429377155 25.7933851,0.0459540013 L22.5791125,1.26772718 L19.3650162,0.0460427156 C19.1310216,-0.0429377155 18.8680091,-0.000975857171 18.6729107,0.156314576 L15.9912779,2.31730592 L12.5589748,2.15442649 C12.308134,2.14253878 12.0718461,2.26425478 11.9346951,2.47433021 L10.0481853,5.36304487 L6.73389379,6.27485032 C6.49275499,6.34120861 6.30435978,6.53070233 6.23847438,6.77315848 L5.33195475,10.106864 L2.45998627,12.0043739 C2.25104046,12.1424134 2.13011826,12.3812322 2.14193706,12.6322937 L2.30387227,16.0846102 L0.155408404,18.7817907 C-0.000882000025,18.9780267 -0.0426006012,19.2426614 0.0457758013,19.4779317 L1.26037804,22.7108578 L0.0456876013,25.9437839 C-0.0427770012,26.1789655 -0.00105840003,26.4436002 0.155320204,26.6399249 L2.30378407,29.3371941 L2.14184886,32.7895107 C2.13003006,33.0405721 2.25104046,33.2794797 2.45989807,33.4174304 L5.33186655,35.3149403 L6.23838618,38.6486458 C6.30435978,38.8911907 6.49275499,39.0806844 6.73380559,39.146954 L10.0481853,40.0587594 L11.9346951,42.9474741 C12.0719343,43.1576382 12.3098098,43.2785558 12.5589748,43.2673778 L15.9912779,43.1044984 L18.6729107,45.2654897 C18.8680091,45.4227802 19.131198,45.464742 19.3650162,45.3757616 L22.5792889,44.1539884 L25.7935615,45.3757616 C25.8747055,45.4065455 25.9592893,45.4217427 26.0434322,45.4217427 C26.2018394,45.4217427 26.358218,45.3681322 26.4855788,45.2654897 L29.1672116,43.1044984 L32.5995147,43.2673778 C32.8499145,43.2785558 33.0865552,43.1575495 33.2237944,42.9474741 L35.1103042,40.0587594 L38.4246839,39.146954 C38.6658227,39.0805957 38.8542179,38.891102 38.9201033,38.6486458 L39.8266229,35.3149403 L42.6985914,33.4174304 C42.9075372,33.279391 43.0284594,33.0405721 43.0166406,32.7895107 L42.8547054,29.3371941 L45.0031693,26.6399249 C45.1594597,26.4436889 45.2011783,26.1790542 45.1128019,25.9437839 L43.8980233,22.7108578 Z M42.4807374,22.9622741 L43.6472707,26.0671855 L41.5839198,28.657554 C41.4762276,28.7926658 41.421279,28.9627311 41.4293934,29.135724 L41.5849782,32.4512431 L38.8267877,34.2735233 C38.6829335,34.3685363 38.5783283,34.5132293 38.5329053,34.680367 L37.6622831,37.881977 L34.4792332,38.7576757 C34.3131526,38.8033635 34.1693866,38.90849 34.074748,39.0532717 L32.2630317,41.8275449 L28.966733,41.6710529 C28.7946548,41.6630686 28.6256636,41.7181602 28.491335,41.8264803 L25.9159831,43.9018624 L22.8290713,42.7285272 C22.7485447,42.6979208 22.6637845,42.6826619 22.5791125,42.6826619 C22.4944404,42.6826619 22.4096802,42.6980095 22.3291536,42.7285272 L19.2422418,43.9018624 L16.6668899,41.8264803 C16.5325613,41.7181602 16.3632173,41.6630686 16.1914919,41.6710529 L12.8951932,41.8275449 L11.0834769,39.0532717 C10.9890147,38.9085787 10.8451605,38.8033635 10.6789917,38.7576757 L7.49594182,37.881977 L6.62531959,34.680367 C6.57989659,34.513318 6.47537959,34.3687137 6.33143718,34.2735233 L3.5733349,32.4512431 L3.72891971,29.135724 C3.73703411,28.9626424 3.68208551,28.7926658 3.5743933,28.657554 L1.51104244,26.0671855 L2.67757568,22.9622741 C2.73852188,22.8002818 2.73852188,22.6214338 2.67757568,22.4594415 L1.51104244,19.3545301 L3.5743933,16.7641616 C3.68208551,16.6290498 3.73703411,16.4589845 3.72891971,16.2859916 L3.5733349,12.9704725 L6.33143718,11.1481923 C6.47529139,11.0531793 6.57989659,10.9084863 6.62531959,10.7413486 L7.49594182,7.53973865 L10.6789917,6.66403991 C10.8450723,6.61835205 10.9888383,6.51322562 11.0834769,6.3684439 L12.8951932,3.59425939 L16.1914919,3.75075139 C16.3633055,3.75882439 16.5325613,3.70364411 16.6668899,3.59532396 L19.2422418,1.5199419 L22.3291536,2.69327708 C22.490295,2.75457865 22.6680181,2.75457865 22.8290713,2.69327708 L25.9159831,1.5199419 L28.491335,3.59532396 C28.6256636,3.70373282 28.7948312,3.75891311 28.966733,3.75075139 L32.2630317,3.59425939 L34.074748,6.3684439 C34.1692102,6.5131369 34.3130644,6.61835205 34.4792332,6.66403991 L37.6622831,7.53973865 L38.5329053,10.7413486 C38.5783283,10.9083976 38.6828453,11.0530019 38.8267877,11.1481923 L41.58489,12.9704725 L41.4293052,16.2859916 C41.4211908,16.4590732 41.4761394,16.6290498 41.5838316,16.7641616 L43.6472707,19.3545301 L42.4806492,22.4594415 C42.4198794,22.6215225 42.4198794,22.8002818 42.4807374,22.9622741 Z" id="Shape" fill="#000000"></path>
                        <path d="M34.3225018,10.8667019 C34.4924632,11.0376543 34.6610134,11.2146393 34.8233896,11.3924228 C34.9628338,11.5451888 35.1533458,11.6226363 35.3444752,11.6226363 C35.5153186,11.6226363 35.6866912,11.5607138 35.822431,11.4353605 C36.1100512,11.1697499 36.1291906,10.719791 35.8651198,10.4304937 C35.6891608,10.2378063 35.506675,10.0461834 35.3224252,9.860948 C35.1381754,9.67571256 34.9477516,9.49207399 34.7561812,9.31508898 C34.468561,9.0494784 34.0212988,9.06864069 33.7571398,9.3580267 C33.493069,9.64732399 33.5121202,10.0972829 33.7998286,10.3628934 C33.9765814,10.5261277 34.152364,10.695572 34.3225018,10.8667019 Z" id="Path" fill="#000000"></path>
                        <path d="M10.7903001,10.8667019 C13.4839282,8.15727881 17.0500307,6.44819804 20.8314294,6.05421789 C24.5600845,5.66564931 28.3435118,6.56068776 31.4852841,8.57396982 C31.8147111,8.78502111 32.2516539,8.68761282 32.4614817,8.35635367 C32.6713095,8.02509452 32.5744659,7.58551522 32.2451271,7.37446393 C28.835315,5.18943101 24.7299577,4.21836441 20.685723,4.63949113 C16.5822179,5.067094 12.7128838,6.92140006 9.79028848,9.860948 C6.57389899,13.0960919 4.70123654,17.3937669 4.51725133,21.9622866 C4.33450093,26.5038372 5.83002017,30.9132922 8.72853685,34.3781174 C8.86833386,34.5452551 9.06837146,34.6313967 9.26999667,34.6313967 C9.43069707,34.6313967 9.59219128,34.5765713 9.72484408,34.4644364 C10.0235775,34.211512 10.0620327,33.7628838 9.81066268,33.4624085 C7.13987841,30.26967 5.76184157,26.2060233 5.93039177,22.0198622 C6.09982398,17.8093047 7.82580983,13.8483891 10.7903001,10.8667019 Z" id="Path" fill="#000000"></path>
                        <path d="M36.8183855,12.7383959 C36.4889585,12.9494472 36.3922031,13.3891152 36.6020309,13.7202857 C38.6036417,16.8804661 39.4933151,20.6861316 39.1071755,24.436262 C38.7154793,28.2397984 37.0163063,31.8266058 34.3226782,34.5361176 C31.3581879,37.5178048 27.4202342,39.2538547 23.2341739,39.4243636 C19.072986,39.5945176 15.0321028,38.2078245 11.8579611,35.5215559 C11.5592277,35.2686314 11.1132003,35.3073109 10.8617421,35.6078749 C10.6102839,35.9083502 10.6487391,36.3569783 10.9475607,36.6099028 C14.203993,39.3658121 18.2991191,40.8607366 22.5516823,40.8607366 C22.7976721,40.8607366 23.0446321,40.8556799 23.2915921,40.8456552 C27.8336276,40.6606859 32.1063003,38.7771041 35.322778,35.5419602 C38.2453733,32.6023235 40.089018,28.710339 40.5139656,24.5829067 C40.9329156,20.514913 39.967302,16.3857952 37.7948477,12.9561008 C37.5848435,12.6247529 37.1475479,12.5272559 36.8183855,12.7383959 Z" id="Path" fill="#000000"></path>
                    </g>
                </g>
            </g>
        </g>
    </g>
</svg>