<?xml version="1.0" encoding="UTF-8"?>
<svg width="28px" height="28px" viewBox="0 0 28 28" version="1.1" xmlns="http://www.w3.org/2000/svg" xmlns:xlink="http://www.w3.org/1999/xlink">
    <title>Combined Shape</title>
    <g id="Page-1" stroke="none" stroke-width="1" fill="none" fill-rule="evenodd">
        <g id="Contact" transform="translate(-1101.000000, -1229.000000)" fill="#DCA69F">
            <path d="M1115,1229 C1122.73199,1229 1129,1235.26801 1129,1243 C1129,1250.73199 1122.73199,1257 1115,1257 C1107.26801,1257 1101,1250.73199 1101,1243 C1101,1235.26801 1107.26801,1229 1115,1229 Z M1116.78234,1237 C1115.00231,1237 1113.85198,1238.18021 1113.85198,1240.00689 L1113.85198,1241.39326 L1112.25892,1241.39326 C1112.12126,1241.39326 1112.00979,1241.50486 1112.00979,1241.64252 L1112.00979,1243.65122 C1112.00979,1243.78888 1112.12139,1243.90036 1112.25892,1243.90036 L1113.85198,1243.90036 L1113.85198,1248.96895 C1113.85198,1249.10661 1113.96345,1249.21808 1114.10111,1249.21808 L1116.17959,1249.21808 C1116.31725,1249.21808 1116.42872,1249.10648 1116.42872,1248.96895 L1116.42872,1243.90036 L1118.29138,1243.90036 C1118.42904,1243.90036 1118.54051,1243.78888 1118.54051,1243.65122 L1118.54127,1241.64252 C1118.54127,1241.57643 1118.51496,1241.51313 1118.46831,1241.46635 C1118.42166,1241.41957 1118.35811,1241.39326 1118.29201,1241.39326 L1116.42872,1241.39326 L1116.42872,1240.21801 C1116.42872,1239.65314 1116.56333,1239.36638 1117.29917,1239.36638 L1118.3665,1239.366 C1118.50403,1239.366 1118.6155,1239.2544 1118.6155,1239.11687 L1118.6155,1237.25168 C1118.6155,1237.11427 1118.50416,1237.0028 1118.36675,1237.00254 L1116.78234,1237 Z" id="Combined-Shape"></path>
        </g>
    </g>
</svg>