<?xml version="1.0" encoding="UTF-8"?>
<svg width="28px" height="28px" viewBox="0 0 28 28" version="1.1" xmlns="http://www.w3.org/2000/svg" xmlns:xlink="http://www.w3.org/1999/xlink">
    <title>Combined Shape</title>
    <g id="Page-1" stroke="none" stroke-width="1" fill="none" fill-rule="evenodd">
        <g id="Contact" transform="translate(-638.000000, -1577.000000)" fill="#D8D8D8">
            <g id="Group-2" transform="translate(0.000000, 1475.000000)">
                <g id="Group-3">
                    <g id="Group-7" transform="translate(464.000000, 50.000000)">
                        <g id="Group-4" transform="translate(0.000000, 52.000000)">
                            <path d="M188,0 C195.731986,0 202,6.2680135 202,14 C202,21.7319865 195.731986,28 188,28 C180.268014,28 174,21.7319865 174,14 C174,6.2680135 180.268014,0 188,0 Z M189.25532,8 C187.299242,8 186.035138,9.29692881 186.035138,11.3042701 L186.035138,12.8277599 L184.284528,12.8277599 C184.133255,12.8277599 184.010755,12.9503989 184.010755,13.1016724 L184.010755,15.3090354 C184.010755,15.4603089 184.133394,15.5828082 184.284528,15.5828082 L186.035138,15.5828082 L186.035138,21.152688 C186.035138,21.3039614 186.157637,21.4264608 186.30891,21.4264608 L188.592958,21.4264608 C188.744231,21.4264608 188.866731,21.3038217 188.866731,21.152688 L188.866731,15.5828082 L190.913601,15.5828082 C191.064875,15.5828082 191.187374,15.4603089 191.187374,15.3090354 L191.188212,13.1016724 C191.188212,13.0290388 191.159298,12.9594781 191.108036,12.9080759 C191.056773,12.8566736 190.986933,12.8277599 190.9143,12.8277599 L188.866731,12.8277599 L188.866731,11.5362786 C188.866731,10.9155407 189.014652,10.6004226 189.823259,10.6004226 L190.996152,10.6000035 C191.147286,10.6000035 191.269785,10.4773645 191.269785,10.3262307 L191.269785,8.2765664 C191.269785,8.12557232 191.147426,8.00307296 190.996432,8.0027936 L189.25532,8 Z" id="Combined-Shape"></path>
                        </g>
                    </g>
                </g>
            </g>
        </g>
    </g>
</svg>