<?xml version="1.0" encoding="UTF-8"?>
<svg width="28px" height="28px" viewBox="0 0 28 28" version="1.1" xmlns="http://www.w3.org/2000/svg" xmlns:xlink="http://www.w3.org/1999/xlink">
    <title>Combined Shape</title>
    <g id="Page-1" stroke="none" stroke-width="1" fill="none" fill-rule="evenodd">
        <g id="Contact" transform="translate(-985.000000, -1229.000000)" fill="#DCA69F">
            <path d="M999,1229 C1006.73199,1229 1013,1235.26801 1013,1243 C1013,1250.73199 1006.73199,1257 999,1257 C991.268014,1257 985,1250.73199 985,1243 C985,1235.26801 991.268014,1229 999,1229 Z M1003.82704,1237 L994.700957,1237 L994.554404,1237.00626 C993.684835,1237.0808 993,1237.81241 993,1238.70096 L993,1238.70096 L993,1247.82704 L993.006255,1247.9736 C993.080805,1248.84321 993.812406,1249.528 994.700957,1249.528 L994.700957,1249.528 L1003.82704,1249.528 L1003.9736,1249.52175 C1004.84317,1249.4472 1005.528,1248.71564 1005.528,1247.82704 L1005.528,1247.82704 L1005.528,1238.70096 L1005.52175,1238.5544 C1005.4472,1237.68484 1004.7156,1237 1003.82704,1237 L1003.82704,1237 Z M999.264001,1240.72099 C1000.80888,1240.72099 1002.06578,1241.97789 1002.06578,1243.52277 C1002.06578,1245.06769 1000.80892,1246.32455 999.264001,1246.32455 C997.719082,1246.32455 996.462221,1245.06769 996.462221,1243.52277 C996.462221,1241.97789 997.719125,1240.72099 999.264001,1240.72099 Z M999.264001,1241.72159 C998.270876,1241.72159 997.46282,1242.5296 997.46282,1243.52273 C997.46282,1244.51589 998.270833,1245.32386 999.264001,1245.32386 C1000.25717,1245.32386 1001.06518,1244.51589 1001.06518,1243.52273 C1001.06518,1242.5296 1000.25713,1241.72159 999.264001,1241.72159 Z M1003.34597,1237.90059 C1003.96429,1237.90059 1004.46736,1238.40361 1004.46736,1239.02193 L1004.46736,1239.02193 L1004.46736,1241.45457 L1001.93592,1241.45457 L1001.80389,1241.30533 C1001.16834,1240.62675 1000.26486,1240.20207 999.264001,1240.20207 C998.191647,1240.20207 997.231095,1240.68963 996.59208,1241.45457 L996.59208,1241.45457 L994.06069,1241.45457 L994.06069,1239.02193 L994.067282,1238.89992 C994.128277,1238.33878 994.604975,1237.90059 995.182075,1237.90059 L995.182075,1237.90059 Z M1003.08668,1238.61961 L1002.00267,1238.61961 L1001.922,1238.62687 C1001.71261,1238.66498 1001.55334,1238.84875 1001.55334,1239.06898 L1001.55334,1239.06898 L1001.55334,1240.153 L1001.56059,1240.23366 C1001.5987,1240.44305 1001.7824,1240.60232 1002.00267,1240.60232 L1002.00267,1240.60232 L1003.08668,1240.60232 L1003.16734,1240.59507 C1003.37674,1240.55696 1003.53601,1240.37326 1003.53601,1240.153 L1003.53601,1240.153 L1003.53601,1239.06898 L1003.52875,1238.9883 C1003.49064,1238.77888 1003.30691,1238.61961 1003.08668,1238.61961 L1003.08668,1238.61961 Z" id="Combined-Shape"></path>
        </g>
    </g>
</svg>