<?xml version="1.0" encoding="UTF-8"?>
<svg width="28px" height="28px" viewBox="0 0 28 28" version="1.1" xmlns="http://www.w3.org/2000/svg" xmlns:xlink="http://www.w3.org/1999/xlink">
    <title>Combined Shape</title>
    <g id="Page-1" stroke="none" stroke-width="1" fill="none" fill-rule="evenodd">
        <g id="Desktop-HD-Copy" transform="translate(-522.000000, -3497.000000)" fill="#D8D8D8">
            <g id="Group-2" transform="translate(0.000000, 3395.000000)">
                <g id="Group-3">
                    <path d="M536,102 C543.731986,102 550,108.268014 550,116 C550,123.731986 543.731986,130 536,130 C528.268014,130 522,123.731986 522,116 C522,108.268014 528.268014,102 536,102 Z M540.827045,110 L531.700957,110 L531.554404,110.006255 C530.684835,110.080805 530,110.812406 530,111.700957 L530,111.700957 L530,120.827045 L530.006255,120.973604 C530.080805,121.843205 530.812406,122.528002 531.700957,122.528002 L531.700957,122.528002 L540.827045,122.528002 L540.973598,122.521747 C541.843166,122.447201 542.528002,121.715637 542.528002,120.827045 L542.528002,120.827045 L542.528002,111.700957 L542.521746,111.554404 C542.447197,110.684835 541.715596,110 540.827045,110 L540.827045,110 Z M536.264001,113.720989 C537.808876,113.720989 539.06578,114.977893 539.06578,116.522769 C539.06578,118.067687 537.808919,119.324548 536.264001,119.324548 C534.719082,119.324548 533.462221,118.067687 533.462221,116.522769 C533.462221,114.977893 534.719125,113.720989 536.264001,113.720989 Z M536.264001,114.721588 C535.270876,114.721588 534.46282,115.529601 534.46282,116.522726 C534.46282,117.515894 535.270833,118.323864 536.264001,118.323864 C537.257169,118.323864 538.065182,117.515894 538.065182,116.522726 C538.065182,115.529601 537.257126,114.721588 536.264001,114.721588 Z M540.345969,110.900591 C540.964291,110.900591 541.467355,111.403611 541.467355,112.021933 L541.467355,112.021933 L541.467355,114.454569 L538.935921,114.454569 L538.803893,114.305333 C538.168336,113.626748 537.264864,113.202071 536.264001,113.202071 C535.191647,113.202071 534.231095,113.689626 533.59208,114.454569 L533.59208,114.454569 L531.06069,114.454569 L531.06069,112.021933 L531.067282,111.899921 C531.128277,111.338778 531.604975,110.900591 532.182075,110.900591 L532.182075,110.900591 Z M540.086683,111.619611 L539.002665,111.619611 L538.922005,111.626865 C538.712608,111.664984 538.553342,111.848754 538.553342,112.068978 L538.553342,112.068978 L538.553342,113.152996 L538.560593,113.233656 C538.598697,113.443053 538.782403,113.602319 539.002665,113.602319 L539.002665,113.602319 L540.086683,113.602319 L540.167343,113.595068 C540.37674,113.556964 540.536006,113.373258 540.536006,113.152996 L540.536006,113.152996 L540.536006,112.068978 L540.528754,111.988305 C540.490642,111.778878 540.306907,111.619611 540.086683,111.619611 L540.086683,111.619611 Z" id="Combined-Shape"></path>
                </g>
            </g>
        </g>
    </g>
</svg>