<?xml version="1.0" encoding="UTF-8"?>
<svg width="63px" height="46px" viewBox="0 0 63 46" version="1.1" xmlns="http://www.w3.org/2000/svg" xmlns:xlink="http://www.w3.org/1999/xlink">
    <title>laundry</title>
    <g id="Page-1" stroke="none" stroke-width="1" fill="none" fill-rule="evenodd">
        <g id="laundry" fill-rule="nonzero">
            <path d="M51.1938816,27.5369996 C52.2232228,26.516936 52.8003481,25.1265888 52.7959661,23.6774325 C52.7919132,20.9516472 50.7806277,18.6452696 48.0807402,18.2703973 C48.7543439,18.024623 49.300509,17.8152597 49.7283384,17.6605129 C50.2726634,17.3971771 50.7682424,17.0431921 51.1938816,16.6136963 C52.2232228,15.5936326 52.8003481,14.2032855 52.7959661,12.7541291 C52.7959661,9.7377422 50.3507014,7.29244888 47.3343144,7.29244888 L20.0260561,7.29244888 C19.5521785,7.29089249 19.0803836,7.35522816 18.6242322,7.48363527 L18.5878212,7.49273802 C18.2510193,7.5746628 4.03251948,12.9452869 4.03251948,12.9452869 L4.01431397,12.9543897 C3.09929257,13.1974118 2.26624809,13.6815207 1.60208449,14.3562136 C0.572743266,15.3762773 -0.00438200147,16.7666245 -2.4772651e-05,18.2157808 C-2.4772651e-05,21.2321677 2.44526474,23.6774325 5.46165167,23.6774325 C2.4471355,23.6819441 0.00451163377,26.124568 -2.4772651e-05,29.1390841 C-2.4772651e-05,32.1554711 2.44526474,34.6007358 5.46165167,34.6007358 C2.4471355,34.6052474 0.00451163377,37.0478713 -2.4772651e-05,40.0623875 C-2.4772651e-05,43.0787744 2.44526474,45.5240583 5.46165167,45.5240583 L32.76991,45.5240583 C33.6069579,45.5262717 34.4329635,45.3330175 35.1821395,44.9596685 L35.1912422,44.9596685 L49.7556467,39.4980168 C51.9068762,38.4367163 53.1120171,36.0943324 52.7247898,33.7270128 C52.3375624,31.3596932 50.4489016,29.5233689 48.0716374,29.2028034 L49.7283384,28.5838162 C50.2726634,28.3204804 50.7682424,27.9664955 51.1938816,27.5369996 Z" id="Shape" fill="#2980BA"></path>
            <path d="M38.2315617,18.2157808 C38.2247344,20.2915041 37.0485172,22.1861294 35.1912422,23.1130618 L35.1821395,23.1130618 C34.4329635,23.4864108 33.6069579,23.679665 32.76991,23.6774516 L5.46165167,23.6774516 C2.44526474,23.6774516 -2.4772651e-05,21.2321677 -2.4772651e-05,18.2157808 C-0.00438200147,16.7666245 0.572743266,15.3762773 1.60208449,14.3562136 C2.26624809,13.6815207 3.09929257,13.1974118 4.01431397,12.9543897 L4.03251948,12.9452869 C4.49798666,12.8168707 4.97879768,12.7525584 5.46165167,12.754101 L32.76991,12.754101 C35.7862969,12.754101 38.2315617,15.1993939 38.2315617,18.2157808 Z" id="Shape" fill="#F3D55B"></path>
            <path d="M38.2315617,29.1390841 C38.2247344,31.2148074 37.0485172,33.1094327 35.1912422,34.0363651 L35.1821395,34.0363651 C34.4329635,34.4097142 33.6069579,34.6029683 32.76991,34.6007549 L5.46165167,34.6007549 C2.44526474,34.6007549 0,32.1554711 0,29.1390841 C0.00451163377,26.124568 2.4471355,23.6819441 5.46165167,23.6774325 L32.76991,23.6774325 C35.7862969,23.6774325 38.2315617,26.1226972 38.2315617,29.1390841 Z" id="Shape" fill="#7ED09E"></path>
            <path d="M38.2315617,40.0623875 C38.2247344,42.1381108 37.0485172,44.0327361 35.1912422,44.9596685 L35.1821395,44.9596685 C34.4329635,45.3330175 33.6069579,45.5262717 32.76991,45.5240583 L5.46165167,45.5240583 C2.44526474,45.5240583 0,43.0787744 0,40.0623875 C0.00451163377,37.0478713 2.4471355,34.6052474 5.46165167,34.6007358 L32.76991,34.6007358 C34.21843,34.6007358 35.6076225,35.1761581 36.6318809,36.2004165 C37.6561393,37.2246749 38.2315617,38.6138674 38.2315617,40.0623875 Z" id="Shape" fill="#3B97D3"></path>
            <path d="M52.7959909,12.7541291 C52.8003481,14.2032855 52.2232228,15.5936326 51.1938816,16.6136963 C50.7682424,17.0431921 50.2726634,17.3971771 49.7283384,17.6605129 C49.300509,17.8152597 48.7543439,18.024623 48.0807402,18.2703973 C45.6503052,19.1897753 41.5358609,20.7372433 35.1912422,23.1130618 C37.4676723,21.9891337 38.66948,19.4447959 38.0916351,16.9726625 C37.5137902,14.5005291 35.3086786,12.7525363 32.76991,12.7541291 L5.46165167,12.7541291 C4.97879768,12.7525584 4.49798666,12.8168707 4.03251948,12.9452869 C4.03251948,12.9452869 18.2510193,7.5746628 18.5878212,7.49273802 L18.6242322,7.48363527 C19.0803836,7.35522816 19.5521785,7.29089249 20.0260561,7.29244888 L47.3343144,7.29244888 C50.3507014,7.29244888 52.7959909,9.7377422 52.7959909,12.7541291 Z" id="Shape" fill="#F0C419"></path>
            <path d="M52.7959909,23.6774325 C52.8003481,25.1265888 52.2232228,26.516936 51.1938816,27.5369996 C50.7682424,27.9664955 50.2726634,28.3204804 49.7283384,28.5838162 L48.0716374,29.2028034 L35.1912422,34.0363651 C37.4676723,32.912437 38.66948,30.3680992 38.0916351,27.8959659 C37.5137902,25.4238324 35.3086786,23.6758397 32.76991,23.6774325 C33.6069579,23.679665 34.4329635,23.4864108 35.1821395,23.1130618 L35.1912422,23.1130618 C41.5358609,20.7372433 45.6503052,19.1897753 48.0807402,18.2703973 C50.7806277,18.6452696 52.7919132,20.9516472 52.7959909,23.6774325 L52.7959909,23.6774325 Z" id="Shape" fill="#71C285"></path>
            <path d="M33.6801853,19.1260561 L4.55137639,19.1260561 C4.04864523,19.1260561 3.64110111,18.7185119 3.64110111,18.2157808 C3.64110111,17.7130497 4.04864523,17.3055055 4.55137639,17.3055055 L33.6801853,17.3055055 C34.1829164,17.3055055 34.5904606,17.7130497 34.5904606,18.2157808 C34.5904606,18.7185119 34.1829164,19.1260561 33.6801853,19.1260561 Z" id="Shape" fill="#F0C419"></path>
            <path d="M33.6801853,30.0493594 L4.55137639,30.0493594 C4.04864523,30.0493594 3.64110111,29.6418152 3.64110111,29.1390841 C3.64110111,28.636353 4.04864523,28.2288089 4.55137639,28.2288089 L33.6801853,28.2288089 C34.1829164,28.2288089 34.5904606,28.636353 34.5904606,29.1390841 C34.5904606,29.6418152 34.1829164,30.0493594 33.6801853,30.0493594 Z" id="Shape" fill="#71C285"></path>
            <path d="M33.6801853,40.9726627 L4.55137639,40.9726627 C4.04864523,40.9726627 3.64110111,40.5651186 3.64110111,40.0623875 C3.64110111,39.5596564 4.04864523,39.1521122 4.55137639,39.1521122 L33.6801853,39.1521122 C34.1829164,39.1521122 34.5904606,39.5596564 34.5904606,40.0623875 C34.5904606,40.5651186 34.1829164,40.9726627 33.6801853,40.9726627 Z" id="Shape" fill="#2980BA"></path>
            <g id="Group" transform="translate(1.841101, 0.000000)" fill="#FF5364">
                <path d="M4.55137639,3.64110111 C4.04864523,3.64110111 3.64110111,3.23355699 3.64110111,2.73082583 L3.64110111,0.910275278 C3.64110111,0.407544124 4.04864523,0 4.55137639,0 C5.05410754,0 5.46165167,0.407544124 5.46165167,0.910275278 L5.46165167,2.73082583 C5.46165167,3.23355699 5.05410754,3.64110111 4.55137639,3.64110111 Z" id="Shape"></path>
                <path d="M4.55137639,9.10275278 C4.04864523,9.10275278 3.64110111,8.69520865 3.64110111,8.1924775 L3.64110111,6.37192694 C3.64110111,5.86919579 4.04864523,5.46165167 4.55137639,5.46165167 C5.05410754,5.46165167 5.46165167,5.86919579 5.46165167,6.37192694 L5.46165167,8.1924775 C5.46165167,8.69520865 5.05410754,9.10275278 4.55137639,9.10275278 Z" id="Shape"></path>
                <path d="M2.73082583,5.46165167 L0.910275278,5.46165167 C0.407544124,5.46165167 0,5.05410754 0,4.55137639 C0,4.04864523 0.407544124,3.64110111 0.910275278,3.64110111 L2.73082583,3.64110111 C3.23355699,3.64110111 3.64110111,4.04864523 3.64110111,4.55137639 C3.64110111,5.05410754 3.23355699,5.46165167 2.73082583,5.46165167 Z" id="Shape"></path>
                <path d="M8.1924775,5.46165167 L6.37192694,5.46165167 C5.86919584,5.46165167 5.46165167,5.05410754 5.46165167,4.55137639 C5.46165167,4.04864523 5.86919584,3.64110111 6.37192694,3.64110111 L8.1924775,3.64110111 C8.69520861,3.64110111 9.10275278,4.04864523 9.10275278,4.55137639 C9.10275278,5.05410754 8.69520861,5.46165167 8.1924775,5.46165167 Z" id="Shape"></path>
            </g>
            <path d="M61.7959665,32.0754148 C61.5545662,32.0753633 61.3230718,31.9794257 61.1524018,31.8087041 L59.7869889,30.4432912 C59.4420199,30.0861184 59.4469534,29.5183744 59.7980774,29.1672504 C60.1492013,28.8161265 60.7169454,28.811193 61.0741182,29.156162 L62.4395311,30.5215749 C62.699786,30.7819084 62.7776273,31.1733653 62.6367677,31.5134605 C62.4959082,31.8535557 62.1640781,32.0753362 61.7959665,32.0754148 Z" id="Shape" fill="#894B9D"></path>
            <path d="M57.6997277,27.9791761 C57.4583274,27.9791245 57.2268331,27.883187 57.0561631,27.7124654 L55.6907502,26.3470525 C55.3457812,25.9898797 55.3507147,25.4221356 55.7018386,25.0710117 C56.0529625,24.7198877 56.6207066,24.7149542 56.9778794,25.0599232 L58.3432923,26.4253362 C58.6035472,26.6856697 58.6813885,27.0771266 58.540529,27.4172218 C58.3996694,27.7573169 58.0678393,27.9790975 57.6997277,27.9791761 Z" id="Shape" fill="#894B9D"></path>
            <path d="M56.3343148,32.0754148 C55.9662032,32.0753362 55.6343731,31.8535557 55.4935136,31.5134605 C55.352654,31.1733653 55.4304953,30.7819084 55.6907502,30.5215749 L57.0561631,29.156162 C57.4133359,28.811193 57.98108,28.8161265 58.3322039,29.1672504 C58.6833279,29.5183744 58.6882614,30.0861184 58.3432923,30.4432912 L56.9778794,31.8087041 C56.8072095,31.9794257 56.5757151,32.0753633 56.3343148,32.0754148 Z" id="Shape" fill="#894B9D"></path>
            <path d="M60.4305535,27.9791761 C60.062442,27.9790975 59.7306118,27.7573169 59.5897523,27.4172218 C59.4488928,27.0771266 59.526734,26.6856697 59.7869889,26.4253362 L61.1524018,25.0599232 C61.5095747,24.7149542 62.0773187,24.7198877 62.4284427,25.0710117 C62.7795666,25.4221356 62.7845001,25.9898797 62.4395311,26.3470525 L61.0741182,27.7124654 C60.9034482,27.883187 60.6719538,27.9791245 60.4305535,27.9791761 Z" id="Shape" fill="#894B9D"></path>
        </g>
    </g>
</svg>