<?xml version="1.0" encoding="UTF-8"?>
<svg width="56px" height="44px" viewBox="0 0 56 44" version="1.1" xmlns="http://www.w3.org/2000/svg" xmlns:xlink="http://www.w3.org/1999/xlink">
    <title>laundry-basket</title>
    <g id="Page-1" stroke="none" stroke-width="1" fill="none" fill-rule="evenodd">
        <g id="Group-10" transform="translate(-40.000000, -42.000000)" fill-rule="nonzero">
            <g id="Group-22">
                <g id="Group-3" transform="translate(40.000001, 42.300002)">
                    <g id="laundry-basket">
                        <path d="M3.97065784,19.3653898 C3.98222286,19.461765 5.53386343,32.4049531 5.5222984,32.3085779 C6.23038034,38.1176458 11.1581629,42.4873322 17.0102211,42.4954355 L38.8873893,42.4954355 C44.7394475,42.4873322 49.6672301,38.1176458 50.375312,32.3085779 L51.9269525,19.3653898" id="Shape" fill="#2980BA"></path>
                        <path d="M50.9699469,18.7688274 L50.379167,23.7022734 L43.9644343,23.7022734 L44.3325875,18.9577227 L42.4050837,18.809305 L42.031148,23.7022734 L34.5562882,23.7022734 L34.6950685,18.9114627 L32.7675647,18.855565 L32.6278207,23.7022734 L23.2697897,23.7022734 L23.1300457,18.855565 L21.2025419,18.9114627 L21.3413221,23.7022734 L13.8664624,23.7022734 L13.4925266,18.809305 L11.5650228,18.9577227 L11.9302848,23.7022734 L5.51940715,23.7022734 C5.20522403,21.0827957 4.93344599,18.8189425 4.92766348,18.7707549 C4.89253825,18.4244982 4.67345543,18.124078 4.35450421,17.9848028 C4.03555297,17.8455275 3.66628809,17.8890361 3.38844215,18.0986288 C3.11059621,18.3082215 2.96733753,18.6513345 3.0136522,18.9962728 C3.01943471,19.0454242 3.40686298,22.2730293 3.79332749,25.4958157 C4.17882825,28.6935445 4.5585465,31.8816358 4.56432901,31.9433159 C5.33182656,38.2362464 10.6706655,42.9694327 17.0102211,42.9773114 L38.8873893,42.9773114 C45.2265773,42.9689464 50.5648651,38.2358823 51.3323176,31.9433159 L52.8839582,18.9982003 L50.9699469,18.7688274 Z M50.1478665,25.6297772 C49.9801737,27.0281812 49.8153721,28.3976726 49.6852656,29.4847848 L43.5172534,29.4847848 L43.814089,25.6297772 L50.1478665,25.6297772 Z M41.8817665,25.6297772 L41.5849309,29.4847848 L34.3885954,29.4847848 L34.5003906,25.6297772 L41.8817665,25.6297772 Z M40.7252642,35.2672962 L34.075376,35.2672962 C34.1939175,34.1744015 34.285474,33.0429568 34.320169,31.8546507 L34.3336615,31.4122886 L41.4413318,31.4122886 L41.4153105,31.7515293 C41.3217082,32.9460685 41.0904827,34.1258042 40.7262279,35.2672962 L40.7252642,35.2672962 Z M23.7632307,35.2672962 C23.6369792,34.1638003 23.5425315,33.0121167 23.5068727,31.7977894 L23.4953076,31.4122886 L32.4080852,31.4122886 L32.3965202,31.7977894 C32.3608614,33.011153 32.2664137,34.1628365 32.1401622,35.2672962 L23.7632307,35.2672962 Z M15.1742737,35.2672962 C14.8117499,34.1262448 14.5821425,32.9471625 14.4900099,31.7534568 L14.4639886,31.4122886 L21.5668401,31.4122886 L21.5803326,31.8546507 C21.6150277,33.0439206 21.7065841,34.1744015 21.8251256,35.2672962 L15.1742737,35.2672962 Z M32.5748143,25.6297772 L32.4639829,29.4847848 L23.4365188,29.4847848 L23.3256873,25.6297772 L32.5748143,25.6297772 Z M21.3952922,25.6297772 L21.5070875,29.4847848 L14.3126795,29.4847848 L14.0148802,25.6297772 L21.3952922,25.6297772 Z M12.3774657,29.4847848 L6.20945351,29.4847848 L5.74781635,25.6297772 L12.0787026,25.6297772 L12.3774657,29.4847848 Z M6.45713775,31.7129792 C6.45713775,31.6108215 6.44171772,31.5134825 6.43111645,31.4122886 L12.5287747,31.4122886 L12.5663611,31.9018746 C12.6550821,33.0400809 12.8532452,34.1670935 13.1581047,35.2672962 L7.58472748,35.2672962 C7.00818021,34.1568544 6.63386906,32.9526625 6.47930404,31.7110517 L6.45713775,31.7129792 Z M8.85784374,37.1948 L13.8240573,37.1948 C14.4078115,38.6272275 15.2789812,39.9247982 16.3837824,41.0074025 C13.4557097,40.8324504 10.730997,39.4521247 8.85784374,37.1948 L8.85784374,37.1948 Z M15.9549128,37.1948 L22.0776286,37.1948 C22.261629,38.5196246 22.6153391,39.8152658 23.1300457,41.0498076 L20.9134163,41.0498076 C19.00326,41.0498076 17.1808052,39.6041798 15.9549128,37.1948 L15.9549128,37.1948 Z M25.3775151,41.0498076 C25.1365771,40.8705498 24.5101384,39.8682478 24.0282624,37.1948 L31.8732029,37.1948 C31.391327,39.8682478 30.7629607,40.8705498 30.5239503,41.0498076 L25.3775151,41.0498076 Z M32.7675647,41.0498076 C33.2821573,39.8151582 33.6361758,38.5195736 33.8209455,37.1948 L39.9446251,37.1948 C38.717769,39.5983973 36.8953141,41.0498076 34.9841941,41.0498076 L32.7675647,41.0498076 Z M39.513828,41.0074025 C40.6186292,39.9247982 41.4897989,38.6272275 42.0735531,37.1948 L47.0397666,37.1948 C45.1666134,39.4521247 42.4419007,40.8324504 39.513828,41.0074025 Z M48.3128829,35.2672962 L42.7404694,35.2672962 C43.0454155,34.1664581 43.2435791,33.0387976 43.3322131,31.8999471 L43.3688356,31.4122886 L49.4530014,31.4122886 L49.4173426,31.7110517 C49.2630793,32.9526017 48.8890954,34.1567906 48.3128829,35.2672962 Z" id="Shape" fill="#2FA8CC"></path>
                        <path d="M46.4142917,8.17623021 L41.8461076,7.16429071 C39.7811239,6.05315516 37.3537619,5.82711142 35.1191193,6.53785197 L31.65925,2.97196993 L34.4155805,1.21794147 C36.2296704,0.066512104 38.4619889,-0.218154572 40.5069862,0.44116151 C42.5519835,1.10047759 44.1976509,2.63542385 44.9975764,4.6296232 L46.4142917,8.17623021 Z" id="Shape" fill="#F3D55B"></path>
                        <path d="M35.1191193,5.09222412 C35.0805693,5.10186164 35.0323817,5.12113667 34.9938316,5.13077419 L24.0841601,10.2097467 L17.4631845,7.80036697 C17.2704341,7.73290433 17.0680462,7.6654417 16.8656583,7.60761658 C14.5237412,6.94262777 11.9987112,6.80770251 9.90736956,8.11840509 L8.93398014,7.76181689 L11.2469847,4.06100958 C12.0881668,2.72632144 13.2778111,1.64664425 14.687579,0.938453416 C15.8775375,0.340174777 17.1914214,0.0298605131 18.5233116,0.0325095914 C19.7252285,0.0342294896 20.9135356,0.286990966 22.0120935,0.774615592 L22.1277437,0.822803187 L24.2769104,1.77691757 L24.286548,1.77691757 C26.3022833,0.920575529 28.60785,1.09295435 30.4738352,2.23951848 L31.65925,2.97196993 L35.1191193,5.09222412 Z" id="Shape" fill="#7D6599"></path>
                        <path d="M49.1513471,9.65077062 L49.633223,14.0647543 L6.26438737,14.0647543 L6.74626332,9.13034459 L8.93398014,7.76181689 L9.90736956,7.15465319 C11.9814536,5.85300013 14.5103343,5.49223182 16.8656583,6.16198873 C17.0680462,6.21981384 17.2704341,6.28727648 17.4631845,6.35473911 L21.1929043,7.71362929 L24.0841601,8.76411887 L26.9754158,7.80036697 L34.9938316,5.13077419 C35.0323817,5.12113667 35.0805693,5.10186164 35.1191193,5.09222412 C37.3537619,4.38148356 39.7811239,4.6075273 41.8461076,5.71866285 L46.4142917,8.17623021 L49.1513471,9.65077062 Z" id="Shape" fill="#E64C3C"></path>
                        <path d="M24.0841601,8.76411887 L18.7642496,10.5470599 C18.6654349,10.5825326 18.5607747,10.5988858 18.4558489,10.5952475 C17.9933907,10.5813966 17.6060274,10.2408694 17.5330224,9.78399988 C17.4600175,9.3271303 17.7219728,8.88284597 18.1570859,8.72556879 L21.1929043,7.71362929 L24.0841601,8.76411887 Z" id="Shape" fill="#C03A2B"></path>
                        <path d="M24.2769104,1.77691757 L20.2195149,4.21520989 C20.0697248,4.30103003 19.9006137,4.34745272 19.7280015,4.35013515 C19.388494,4.34722508 19.0747761,4.16847885 18.8991748,3.87789672 C18.6261238,3.4226498 18.7726307,2.83231295 19.2268505,2.55755661 L22.1277437,0.822803187 L24.2769104,1.77691757 Z" id="Shape" fill="#5D4C72"></path>
                        <rect id="Rectangle-path" fill="#67B9CC" x="0" y="13.5828784" width="55.8976104" height="5.78251142" rx="1.92750381"></rect>
                        <g id="Group" transform="translate(2.891256, 5.872863)" fill="#2FA8CC">
                            <path d="M3.85500761,1.92750381 L3.85500761,7.71001522 L0,7.71001522 L0,1.92750381 C0.00317536977,0.864290904 0.864290904,0.00317536977 1.92750381,0 C2.98875731,0.00787117382 3.84713644,0.866250299 3.85500761,1.92750381 Z" id="Shape"></path>
                            <path d="M50.115099,1.92750381 L50.115099,7.71001522 L46.2600913,7.71001522 L46.2600913,1.92750381 C46.2632667,0.864290904 47.1243822,0.00317536977 48.1875952,0 C49.2488487,0.00787117382 50.1072278,0.866250299 50.115099,1.92750381 Z" id="Shape"></path>
                        </g>
                    </g>
                </g>
            </g>
        </g>
    </g>
</svg>