<?xml version="1.0" encoding="UTF-8"?>
<svg width="53px" height="49px" viewBox="0 0 53 49" version="1.1" xmlns="http://www.w3.org/2000/svg" xmlns:xlink="http://www.w3.org/1999/xlink">
    <title>medal</title>
    <g id="Page-1" stroke="none" stroke-width="1" fill="none" fill-rule="evenodd">
        <g id="Desktop-HD-Copy" transform="translate(-241.000000, -2359.000000)" fill-rule="nonzero">
            <g id="Group-30" transform="translate(221.000000, 2318.000000)">
                <g id="Group-20">
                    <g id="Group-17">
                        <g id="medal" transform="translate(20.000000, 41.000000)">
                            <g id="Group" transform="translate(0.000000, 26.038679)" fill="#FF7043">
                                <path d="M7.83715765,0.0782039965 L0.0837899962,13.5181194 L9.13310959,13.0377234 L13.2444054,21.115079 L20.4168291,8.68064361 C15.2777093,7.35117567 10.8647695,4.25653181 7.83715765,0.0782039965 Z" id="Path"></path>
                                <path d="M44.39194,0.0111719995 C41.3866721,4.20067181 36.9737323,7.30648767 31.8457846,8.65829961 L39.0405522,21.115079 L43.1518481,13.0377234 L52.2011676,13.5181194 L44.39194,0.0111719995 Z" id="Path"></path>
                            </g>
                            <g id="like" transform="translate(5.600000, 0.000000)">
                                <path d="M20.9345457,1.73359859 L23.3723733,0.8123673 C23.6442914,0.709631948 23.9503202,0.758096584 24.1771605,0.939859131 L26.2110624,2.56935149 C26.3673427,2.6945854 26.563943,2.75845228 26.7639302,2.7490174 L29.3672311,2.62620269 C29.6576157,2.61249389 29.9336464,2.75313004 30.093233,2.99617898 L31.5240284,5.1744265 C31.6339407,5.34183513 31.8011074,5.46327896 31.9943209,5.51609816 L34.5081114,6.20371539 C34.7884966,6.28040402 35.0075149,6.49942224 35.0842035,6.7798075 L35.7718207,9.29359804 C35.8246399,9.48673082 35.9460838,9.65397817 36.1134924,9.76389048 L38.2917399,11.1946859 C38.5347082,11.3543531 38.675425,11.6303031 38.6617162,11.9206878 L38.5389015,14.5239887 C38.5294666,14.7239759 38.5934141,14.9205762 38.7185674,15.0768565 L40.3480598,17.1107584 C40.5298223,17.3375987 40.5782869,17.6436275 40.4755516,17.9155456 L39.5543203,20.3533732 C39.4835184,20.5406999 39.4835184,20.7473802 39.5543203,20.9347069 L40.4755516,23.3725346 C40.5782869,23.6444527 40.5298223,23.9504814 40.3480598,24.1773217 L38.7185674,26.2112237 C38.5933335,26.367504 38.5294666,26.5641043 38.5389015,26.7640915 L38.6617162,29.3673924 C38.675425,29.657777 38.5347889,29.9338077 38.2917399,30.0933943 L36.1134924,31.5241897 C35.9460838,31.634102 35.8246399,31.8012687 35.7718207,31.9944821 L35.0842035,34.5082727 C35.0075149,34.7886579 34.7884966,35.0076762 34.5081114,35.0843648 L31.9943209,35.771982 C31.8011881,35.8248012 31.6339407,35.946245 31.5240284,36.1136537 L30.093233,38.2919012 C29.9335658,38.5348695 29.6576157,38.6755863 29.3672311,38.6618775 L26.7639302,38.5390628 C26.563943,38.5296279 26.3673427,38.5935754 26.2110624,38.7187287 L24.1771605,40.348221 C23.9503202,40.5299836 23.6442914,40.5784482 23.3723733,40.4757129 L20.9345457,39.5544816 C20.747219,39.4836797 20.5405387,39.4836797 20.3532119,39.5544816 L17.9153843,40.4757129 C17.6434662,40.5784482 17.3374374,40.5299836 17.1105971,40.348221 L15.0766952,38.7187287 C14.9204149,38.5934948 14.7238146,38.5296279 14.5238274,38.5390628 L11.9205265,38.6618775 C11.6301419,38.6755863 11.3541112,38.5349501 11.1945246,38.2919012 L9.7637292,36.1136537 C9.65381689,35.946245 9.48665018,35.8248012 9.29343676,35.771982 L6.77964622,35.0843648 C6.49926096,35.0076762 6.28024274,34.7886579 6.20355411,34.5082727 L5.51593688,31.9944821 C5.46311768,31.8013493 5.34167385,31.634102 5.17426522,31.5241897 L2.99609834,30.093233 C2.75313004,29.9335658 2.61241325,29.6576157 2.62612205,29.3672311 L2.74893676,26.7639302 C2.75837164,26.5638624 2.69442412,26.3673427 2.56927085,26.2110624 L0.939778491,24.1771605 C0.758015944,23.9503202 0.709551308,23.6442914 0.81228666,23.3723733 L1.73351795,20.9345457 C1.80431987,20.747219 1.80431987,20.5405387 1.73351795,20.3532119 L0.81228666,17.915223 C0.709551308,17.6433049 0.758015944,17.3372762 0.939778491,17.1104359 L2.56927085,15.0765339 C2.69450476,14.9202536 2.75837164,14.7236533 2.74893676,14.5236661 L2.62612205,11.9203652 C2.61241325,11.6299806 2.7530494,11.3539499 2.99609834,11.1943633 L5.17434586,9.76356792 C5.34175449,9.65365561 5.46319832,9.4864889 5.51601752,9.29327548 L6.20363475,6.77948494 C6.28032338,6.49909968 6.4993416,6.28008146 6.77972686,6.20339283 L9.2935174,5.5157756 C9.48665018,5.4629564 9.65389753,5.34151257 9.76380984,5.17410394 L11.1946053,2.99585642 C11.3542724,2.75288812 11.6302225,2.61217133 11.9206071,2.62588013 L14.5239081,2.74869484 C14.7238952,2.75821036 14.9204955,2.6941822 15.0767759,2.56902893 L17.1106778,0.939536571 C17.3375181,0.757774024 17.6435469,0.709309388 17.9154649,0.81204474 L20.3532926,1.73327603 C20.540458,1.80431987 20.747219,1.80431987 20.9345457,1.73359859 Z" id="Path" fill="#4DD0E1"></path>
                                <path d="M26.8499731,35.1246041 C15.4249793,35.1246041 6.83270734,8.47606978 8.02496965,5.86293077 L6.7798075,6.20355411 C6.49942224,6.28024274 6.28040402,6.49926096 6.20371539,6.77964622 L5.51601752,9.29343676 C5.46319832,9.48656954 5.34175449,9.65381689 5.17434586,9.76380984 L2.99609834,11.1946053 C2.75313004,11.3542724 2.61241325,11.6302225 2.62612205,11.9205265 L2.74893676,14.5238274 C2.75837164,14.7238146 2.69442412,14.9204149 2.56927085,15.0766952 L0.939778491,17.1105971 C0.758015944,17.3374374 0.709551308,17.6434662 0.81228666,17.9153036 L1.73351795,20.3531313 C1.80431987,20.540458 1.80431987,20.7471383 1.73351795,20.934465 L0.81228666,23.3722927 C0.709551308,23.6442107 0.758015944,23.9502395 0.939778491,24.1770798 L2.56927085,26.2109818 C2.69450476,26.3672621 2.75837164,26.5638624 2.74893676,26.7638496 L2.62612205,29.3671505 C2.61241325,29.6575351 2.7530494,29.9335658 2.99609834,30.0931524 L5.17434586,31.5239478 C5.34167385,31.6338601 5.46319832,31.8010268 5.51601752,31.9942402 L6.20371539,34.5080307 C6.28040402,34.788416 6.49942224,35.0074342 6.7798075,35.0842841 L9.29359804,35.771982 C9.48673082,35.8248012 9.65397817,35.946245 9.76389048,36.1136537 L11.1946859,38.2919012 C11.3543531,38.5348695 11.6303031,38.6755056 11.9206878,38.6618775 L14.5239081,38.5390628 C14.7239759,38.5296279 14.9205762,38.5935754 15.0768565,38.7187287 L17.1107584,40.348221 C17.3375987,40.5299029 17.6436275,40.5784482 17.9154649,40.4757129 L20.3532926,39.5544816 C20.5406193,39.4836797 20.7472996,39.4836797 20.9346263,39.5544816 L23.372454,40.4757129 C23.644372,40.5784482 23.9504008,40.5299836 24.1771605,40.348221 L26.2110624,38.7187287 C26.3673427,38.5935754 26.563943,38.5297085 26.7640108,38.5390628 L29.3672311,38.6618775 C29.6576157,38.6755863 29.9336464,38.5349501 30.093233,38.2919012 L31.5240284,36.1136537 C31.6339407,35.9463257 31.8011074,35.8248012 31.9943209,35.771982 L34.5081114,35.0842841 C34.7884966,35.0075955 35.0075149,34.7885773 35.0842035,34.5080307 L35.4248268,33.2628686 C33.4717356,34.1538644 27.6229842,35.1246041 26.8499731,35.1246041 Z" id="Path" fill="#4DD0E1"></path>
                                <circle id="Oval" fill="#193647" cx="20.6437578" cy="20.6438385" r="15.8599515"></circle>
                                <path d="M30.9907561,18.2303641 C30.9907561,17.2782477 30.2189507,16.5064423 29.2668343,16.5064423 L23.298749,16.5064423 C24.9039687,15.2067675 25.9940602,13.4634115 26.1516307,12.0296324 C26.2683974,10.9664747 25.5333639,9.95678135 24.4639163,9.94678646 C23.5047842,9.93799223 22.7241891,10.7049592 22.7241891,11.661914 C22.7241891,12.2827613 21.3766948,14.1252239 18.8514533,14.9450101 C18.4465599,15.0763727 18.0935987,15.3264373 17.8022464,15.63674 C17.5875827,15.8651931 17.0156839,16.5610356 16.4549134,16.9404468 C16.3531457,16.6865921 16.1071131,16.5063617 15.8168897,16.5063617 L11.6794935,16.5063617 C11.2987115,16.5063617 10.989941,16.8151322 10.989941,17.1959143 L10.989941,28.228917 C10.989941,28.609699 11.2987115,28.9184696 11.6794935,28.9184696 L15.8168897,28.9184696 C16.1976718,28.9184696 16.5064423,28.609699 16.5064423,28.228917 L27.5429125,28.228917 C28.3046379,28.228917 28.9220177,27.6113759 28.9220177,26.8498118 C28.9220177,26.0880864 28.3046379,25.4707066 27.5429125,25.4707066 L28.2324651,25.4707066 C28.9941905,25.4707066 29.6115703,24.8531655 29.6115703,24.0916014 C29.6115703,23.329876 28.9941905,22.7124963 28.2324651,22.7124963 L28.9220177,22.7124963 C29.6837431,22.7124963 30.3011229,22.0949552 30.3011229,21.3333911 C30.3011229,20.5716657 29.6837431,19.9542859 28.9220177,19.9542859 L29.2668343,19.9542859 C30.2188701,19.9542053 30.9907561,19.1824805 30.9907561,18.2303641 Z" id="Path"></path>
                                <path d="M40.1353315,20.6438385 L41.2459055,17.7050752 C41.3267874,17.4912986 41.2886447,17.2507495 41.1456699,17.0722931 L39.1813603,14.6205148 L39.3294154,11.4824094 C39.3402211,11.2541982 39.229583,11.0370347 39.0386275,10.9116395 L36.4128281,9.18683069 L35.5840102,6.15654099 C35.5236915,5.93607124 35.3514444,5.76382422 35.1310553,5.70358614 L32.1007656,4.87476828 L30.3759568,2.24904944 C30.250481,2.05801329 30.0333981,1.94785906 29.8051869,1.95826162 L26.6670816,2.10631665 L24.2153032,0.14200703 C24.0369275,-0.000887039935 23.7963784,-0.0390297571 23.5825212,0.0417715169 L20.6437578,1.15234552 L17.7051558,0.0418521569 C17.4912179,-0.0390297571 17.2507495,-0.000887039935 17.0723738,0.14208767 L14.6205954,2.10639729 L11.48249,1.95834226 C11.2531499,1.9475365 11.0371154,2.05817457 10.9117202,2.24913008 L9.18691133,4.87492956 L6.15670227,5.70374742 C5.93623252,5.76406614 5.7639855,5.93631316 5.70374742,6.15670227 L4.87492956,9.18699197 L2.24913008,10.9118008 C2.05809393,11.0372766 1.9475365,11.2543595 1.95834226,11.4825707 L2.10639729,14.620676 L0.14208767,17.0723738 C-0.000806399941,17.2507495 -0.0389491171,17.4912986 0.0418521569,17.7051558 L1.15234552,20.6438385 L0.0417715169,23.5825212 C-0.0391103971,23.7962978 -0.000967679929,24.0368469 0.14200703,24.2153032 L2.10631665,26.6670816 L1.95826162,29.8051869 C1.94745586,30.0333981 2.05809393,30.2505616 2.24904944,30.3759568 L4.87484892,32.1007656 L5.70366678,35.1310553 C5.7639855,35.3515251 5.93623252,35.5237721 6.15662163,35.5840102 L9.18691133,36.4128281 L10.9117202,39.0386275 C11.037196,39.2296637 11.2546821,39.339576 11.48249,39.3294154 L14.6205954,39.1813603 L17.0723738,41.1456699 C17.2507495,41.2886447 17.4913792,41.3267874 17.7051558,41.2459055 L20.6439191,40.1353315 L23.5826824,41.2459055 C23.6568712,41.2738875 23.734205,41.2877016 23.8111355,41.2877016 C23.955965,41.2877016 24.0989397,41.2389704 24.2153838,41.1456699 L26.6671622,39.1813603 L29.8052676,39.3294154 C30.0342045,39.339576 30.2505616,39.229583 30.3760375,39.0386275 L32.1008463,36.4128281 L35.131136,35.5840102 C35.3516057,35.5236915 35.5238528,35.3514444 35.5840908,35.1310553 L36.4129087,32.1007656 L39.0387082,30.3759568 C39.2297443,30.250481 39.3403018,30.0333981 39.329496,29.8051869 L39.181441,26.6670816 L41.1457506,24.2153032 C41.2886447,24.0369275 41.3267874,23.7963784 41.2459861,23.5825212 L40.1353315,20.6438385 Z M38.8395274,20.8723722 L39.906072,23.6946914 L38.0195799,26.0492986 C37.9211185,26.1721133 37.8708798,26.3267001 37.8782987,26.4839481 L38.0205476,29.4977066 L35.4987737,31.1541328 C35.3672499,31.2404982 35.2716109,31.372022 35.2300813,31.5239478 L34.4340839,34.4341645 L31.5238671,35.2301619 C31.372022,35.2716915 31.2405788,35.3672499 31.1540521,35.4988544 L29.497626,38.0206283 L26.4838675,37.8783793 C26.3265389,37.8711217 26.1720326,37.9211991 26.0492179,38.0196606 L23.6946107,39.9061526 L20.8722916,38.839608 C20.7986673,38.8117872 20.7211722,38.7979172 20.6437578,38.7979172 C20.5663435,38.7979172 20.4888484,38.8118679 20.4152241,38.839608 L17.592905,39.9061526 L15.2382978,38.0196606 C15.1154831,37.9211991 14.9606543,37.8711217 14.8036482,37.8783793 L11.7898897,38.0206283 L10.1334636,35.4988544 C10.0470981,35.3673305 9.91557431,35.2716915 9.76364856,35.2301619 L6.85343182,34.4341645 L6.05743444,31.5239478 C6.01590484,31.3721027 5.92034645,31.2406595 5.78874198,31.1541328 L3.26704872,29.4977066 L3.40929767,26.4839481 C3.41671655,26.3266195 3.36647783,26.1721133 3.2680164,26.0492986 L1.38152438,23.6946914 L2.44806894,20.8723722 C2.50379118,20.7251236 2.50379118,20.5625534 2.44806894,20.4153047 L1.38152438,17.5929856 L3.2680164,15.2383784 C3.36647783,15.1155637 3.41671655,14.9609768 3.40929767,14.8037288 L3.26704872,11.7899703 L5.78874198,10.1335442 C5.92026581,10.0471788 6.01590484,9.91565495 6.05743444,9.7637292 L6.85343182,6.85351246 L9.76364856,6.05751508 C9.91549367,6.01598548 10.0469369,5.92042709 10.1334636,5.78882262 L11.7898897,3.26712936 L14.8036482,3.40937831 C14.9607349,3.41671655 15.1154831,3.36655847 15.2382978,3.26809704 L17.592905,1.38160502 L20.4152241,2.44814958 C20.5625534,2.50387182 20.725043,2.50387182 20.8722916,2.44814958 L23.6946107,1.38160502 L26.0492179,3.26809704 C26.1720326,3.36663911 26.3267001,3.41679719 26.4838675,3.40937831 L29.497626,3.26712936 L31.1540521,5.78882262 C31.2404175,5.92034645 31.3719414,6.01598548 31.5238671,6.05751508 L34.4340839,6.85351246 L35.2300813,9.7637292 C35.2716109,9.91557431 35.3671692,10.0470175 35.4987737,10.1335442 L38.020467,11.7899703 L37.878218,14.8037288 C37.8707991,14.9610575 37.9210379,15.1155637 38.0194993,15.2383784 L39.906072,17.5929856 L38.8394468,20.4153047 C38.7838858,20.562634 38.7838858,20.7251236 38.8395274,20.8723722 Z" id="Shape" fill="#000000"></path>
                                <path d="M31.3805699,9.87767352 C31.5359631,10.0330668 31.6900662,10.1939436 31.8385244,10.3555461 C31.9660162,10.4944082 32.1401986,10.5648069 32.3149455,10.5648069 C32.4711451,10.5648069 32.6278286,10.5085202 32.7519336,10.3945759 C33.0149006,10.1531397 33.0323995,9.74413369 32.7909634,9.48116666 C32.6300866,9.3060166 32.4632424,9.13183421 32.2947855,8.9634579 C32.1263285,8.7950816 31.9522268,8.62815681 31.7770767,8.46728002 C31.5141097,8.22584388 31.1051843,8.24326212 30.8636675,8.50630978 C30.6222314,8.7692768 30.6396496,9.17828285 30.9026973,9.41971899 C31.0642998,9.56809658 31.2250153,9.72211897 31.3805699,9.87767352 Z" id="Path" fill="#000000"></path>
                                <path d="M9.86541624,9.87767352 C12.3281617,7.41484746 15.5885979,5.86131797 19.0458764,5.50319576 C22.4549321,5.14999258 25.9140653,5.96356948 28.7865425,7.79361351 C29.0877329,7.98545605 29.4872234,7.89691334 29.679066,7.5958036 C29.8709085,7.29469387 29.7823658,6.89512269 29.4812561,6.70328015 C26.3637139,4.71711709 22.6102447,3.83443172 18.9126591,4.21722977 C15.1608834,4.60591454 11.6232068,6.2914517 8.95111998,8.9634579 C6.01042132,11.9041566 4.29827296,15.8106804 4.13005794,19.9633982 C3.96297187,24.0916014 5.33030361,28.0997317 7.98037573,31.2492073 C8.10819013,31.4011331 8.29108163,31.4794345 8.47542466,31.4794345 C8.62235073,31.4794345 8.77000256,31.429599 8.89128511,31.32767 C9.16441277,31.0977654 9.19957181,30.6899689 8.96974782,30.4168413 C6.52788816,27.5146885 5.26796889,23.820893 5.42207192,20.0157336 C5.57698135,16.1883982 7.1550254,12.5879837 9.86541624,9.87767352 Z" id="Path" fill="#000000"></path>
                                <path d="M33.6625204,11.5790161 C33.36133,11.7708587 33.272868,12.1705105 33.4647105,12.4715396 C35.2947545,15.3440974 36.1081702,18.8033919 35.7551283,22.2122057 C35.397006,25.6695648 33.8434766,28.9299204 31.3807311,31.3928271 C28.6703403,34.1031373 25.0699258,35.6811814 21.2426711,35.8361715 C17.4381568,35.990839 13.7436355,34.7303552 10.8415634,32.2885762 C10.5684357,32.0586716 10.1606393,32.0938306 9.93073463,32.3670389 C9.70083001,32.6401666 9.73598905,33.047963 10.0091973,33.2778676 C12.9865066,35.7829491 16.7306215,37.1418136 20.6186788,37.1418136 C20.8435838,37.1418136 21.0693757,37.1372171 21.2951677,37.1281048 C25.4478855,36.9599704 29.3543287,35.2478221 32.295108,32.3071234 C34.9671949,29.6350365 36.6528127,26.0972794 37.0413362,22.3455036 C37.4243761,18.6477567 36.5415295,14.8944488 34.5552858,11.7769067 C34.363282,11.4757163 33.9634689,11.3870929 33.6625204,11.5790161 Z" id="Path" fill="#000000"></path>
                            </g>
                            <path d="M37.8449706,18.78059 C38.3477106,18.289022 38.0684106,17.4287781 37.3757466,17.3282301 L30.9295029,16.3897821 C30.6502029,16.3450941 30.4155909,16.1775141 30.292699,15.9205581 L27.4103231,10.0776024 C27.0975071,9.44079843 26.1925751,9.44079843 25.8797592,10.0776024 L23.0085553,15.9205581 C22.8856633,16.1663421 22.6398793,16.3450941 22.3717513,16.3897821 L15.9255076,17.3282301 C15.2328436,17.4287781 14.9535436,18.289022 15.4562836,18.78059 L20.1150074,23.3275938 C20.3161034,23.5286898 20.4054794,23.8079898 20.3607914,24.0761178 L19.2659355,30.4888455 C19.1430435,31.1815095 19.8803954,31.7177654 20.5060274,31.3826054 L26.2707791,28.3549936 C26.5165631,28.2209296 26.8182071,28.2209296 27.0639911,28.3549936 L32.8287428,31.3826054 C33.4543748,31.7065934 34.1805548,31.1815095 34.0688348,30.4888455 L32.9628068,24.0761178 C32.9181188,23.7968178 33.0074948,23.5175178 33.2085908,23.3275938 L37.8449706,18.78059 Z" id="Path" fill="#FBC02D"></path>
                        </g>
                    </g>
                </g>
            </g>
        </g>
    </g>
</svg>