<?xml version="1.0" encoding="UTF-8"?>
<svg width="28px" height="28px" viewBox="0 0 28 28" version="1.1" xmlns="http://www.w3.org/2000/svg" xmlns:xlink="http://www.w3.org/1999/xlink">
    <title>Combined Shape</title>
    <g id="Page-1" stroke="none" stroke-width="1" fill="none" fill-rule="evenodd">
        <g id="Contact" transform="translate(-1159.000000, -1229.000000)" fill="#DCA69F">
            <path d="M1173,1229 C1180.73199,1229 1187,1235.26801 1187,1243 C1187,1250.73199 1180.73199,1257 1173,1257 C1165.26801,1257 1159,1250.73199 1159,1243 C1159,1235.26801 1165.26801,1229 1173,1229 Z M1173.15875,1237 C1169.79107,1237 1168.0001,1239.15808 1168.0001,1241.51123 C1168.0001,1242.60256 1168.60989,1243.96346 1169.58602,1244.39507 C1169.73424,1244.46189 1169.81488,1244.43347 1169.8479,1244.296 C1169.87709,1244.19155 1170.00534,1243.68851 1170.06755,1243.4512 C1170.08675,1243.37517 1170.07677,1243.30912 1170.01533,1243.2377 C1169.69123,1242.86291 1169.43395,1242.18016 1169.43395,1241.53965 C1169.43395,1239.89843 1170.73878,1238.30483 1172.95907,1238.30483 C1174.87907,1238.30483 1176.2223,1239.55206 1176.2223,1241.33613 C1176.2223,1243.35213 1175.15555,1244.74682 1173.76931,1244.74682 C1173.00208,1244.74682 1172.43069,1244.1447 1172.61194,1243.39974 C1172.83082,1242.5127 1173.26013,1241.55885 1173.26013,1240.9191 C1173.26013,1240.34541 1172.93603,1239.87078 1172.27402,1239.87078 C1171.49296,1239.87078 1170.85936,1240.64416 1170.85936,1241.6825 C1170.85936,1242.34221 1171.09283,1242.78765 1171.09283,1242.78765 C1171.09283,1242.78765 1170.32022,1245.9088 1170.17661,1246.49171 C1169.93392,1247.47859 1170.20963,1249.0768 1170.23344,1249.21427 C1170.24803,1249.2903 1170.33328,1249.31411 1170.3809,1249.2519 C1170.45693,1249.15206 1171.39082,1247.81958 1171.6527,1246.85651 C1171.74794,1246.50554 1172.13885,1245.08243 1172.13885,1245.08243 C1172.39613,1245.54707 1173.13878,1245.93645 1173.92982,1245.93645 C1176.28298,1245.93645 1177.98333,1243.86822 1177.98333,1241.30157 C1177.97488,1238.8409 1175.86902,1237 1173.15875,1237 Z" id="Combined-Shape"></path>
        </g>
    </g>
</svg>