<?xml version="1.0" encoding="UTF-8"?>
<svg width="28px" height="28px" viewBox="0 0 28 28" version="1.1" xmlns="http://www.w3.org/2000/svg" xmlns:xlink="http://www.w3.org/1999/xlink">
    <title>Combined Shape</title>
    <g id="Page-1" stroke="none" stroke-width="1" fill="none" fill-rule="evenodd">
        <g id="Contact" transform="translate(-696.000000, -1577.000000)" fill="#D8D8D8">
            <g id="Group-2" transform="translate(0.000000, 1475.000000)">
                <g id="Group-3">
                    <g id="Group-7" transform="translate(464.000000, 50.000000)">
                        <g id="Group-4" transform="translate(0.000000, 52.000000)">
                            <path d="M246,0 C253.731986,0 260,6.2680135 260,14 C260,21.7319865 253.731986,28 246,28 C238.268014,28 232,21.7319865 232,14 C232,6.2680135 238.268014,0 246,0 Z M246.739112,7 C242.992568,7 241.000107,9.40086407 241.000107,12.0187457 C241.000107,13.2328482 241.6785,14.746845 242.764443,15.2270178 C242.929342,15.3013506 243.019054,15.2697378 243.055793,15.1168002 C243.08826,15.0006018 243.230945,14.4409698 243.300152,14.1769602 C243.321512,14.0923746 243.310404,14.0188962 243.242052,13.939437 C242.881496,13.5224898 242.595272,12.7629282 242.595272,12.0503585 C242.595272,10.2245057 244.046897,8.45162564 246.516968,8.45162564 C248.652968,8.45162564 250.147313,9.83917128 250.147313,11.8239425 C250.147313,14.0667426 248.960552,15.618333 247.41836,15.618333 C246.564814,15.618333 245.929141,14.9484834 246.130779,14.1197154 C246.374283,13.1328834 246.851893,12.0717185 246.851893,11.3600033 C246.851893,10.7217665 246.491336,10.1937473 245.754843,10.1937473 C244.885918,10.1937473 244.181038,11.0541281 244.181038,12.2092769 C244.181038,12.9432066 244.440776,13.4387586 244.440776,13.4387586 C244.440776,13.4387586 243.581249,16.9110403 243.421476,17.5595299 C243.151486,18.6574339 243.458216,20.4354404 243.484702,20.588378 C243.500936,20.6729636 243.595774,20.69945 243.648747,20.6302436 C243.733332,20.5191716 244.772283,19.0367875 245.063633,17.9653699 C245.169579,17.5749091 245.604469,15.9917059 245.604469,15.9917059 C245.890693,16.5086179 246.716897,16.9417987 247.596929,16.9417987 C250.214811,16.9417987 252.106453,14.6408994 252.106453,11.7854945 C252.097054,9.04799686 249.754289,7 246.739112,7 Z" id="Combined-Shape"></path>
                        </g>
                    </g>
                </g>
            </g>
        </g>
    </g>
</svg>