<?xml version="1.0" encoding="UTF-8"?>
<svg width="46px" height="46px" viewBox="0 0 46 46" version="1.1" xmlns="http://www.w3.org/2000/svg" xmlns:xlink="http://www.w3.org/1999/xlink">
    <title>like copy</title>
    <g id="Page-1" stroke="none" stroke-width="1" fill="none" fill-rule="evenodd">
        <g id="Desktop-HD-Copy" transform="translate(-753.000000, -2360.000000)" fill-rule="nonzero">
            <g id="Group-30" transform="translate(221.000000, 2318.000000)">
                <g id="Group-21" transform="translate(512.000000, 0.000000)">
                    <g id="like-copy" transform="translate(20.000000, 42.000000)">
                        <path d="M22.8971617,1.89612365 L25.5635359,0.888526826 C25.8609463,0.776160022 26.1956654,0.829168224 26.443772,1.02797103 L28.6683524,2.81022848 C28.839284,2.94720309 29.0543156,3.01705749 29.2730516,3.00673809 L32.1204123,2.87240948 C32.4380205,2.85741548 32.7399291,3.01123629 32.9144769,3.27707109 L34.4794096,5.65952956 C34.5996262,5.84263277 34.7824648,5.97546197 34.993792,6.03323297 L37.7432507,6.7853144 C38.0499221,6.8691926 38.2894733,7.10874381 38.3733515,7.41541521 L39.1254329,10.1648739 C39.1832039,10.3761129 39.3160331,10.5590397 39.4991363,10.6792563 L41.8815948,12.244189 C42.1473414,12.418825 42.3012504,12.7206454 42.2862564,13.0382536 L42.1519278,15.8856143 C42.1416084,16.1043503 42.211551,16.3193819 42.3484374,16.4903135 L44.1306949,18.7148939 C44.3294977,18.9630005 44.3825059,19.2977196 44.2701391,19.59513 L43.2625422,22.2615042 C43.1851026,22.4663928 43.1851026,22.6924495 43.2625422,22.8973381 L44.2701391,25.5637123 C44.3825059,25.8611227 44.3294977,26.1958418 44.1306949,26.4439484 L42.3484374,28.6685288 C42.2114628,28.8394604 42.1416084,29.054492 42.1519278,29.273228 L42.2862564,32.1205887 C42.3012504,32.4381969 42.1474296,32.7401055 41.8815948,32.9146533 L39.4991363,34.479586 C39.3160331,34.5998026 39.1832039,34.7826412 39.1254329,34.9939684 L38.3733515,37.7434271 C38.2894733,38.0500985 38.0499221,38.2896497 37.7432507,38.3735279 L34.993792,39.1256093 C34.782553,39.1833803 34.5996262,39.3162095 34.4794096,39.4993127 L32.9144769,41.8817712 C32.7398409,42.1475178 32.4380205,42.3014268 32.1204123,42.2864328 L29.2730516,42.1521042 C29.0543156,42.1417848 28.839284,42.2117274 28.6683524,42.3486138 L26.443772,44.1308713 C26.1956654,44.3296741 25.8609463,44.3826823 25.5635359,44.2703155 L22.8971617,43.2627186 C22.6922731,43.185279 22.4662164,43.185279 22.2613278,43.2627186 L19.5949536,44.2703155 C19.2975432,44.3826823 18.9628241,44.3296741 18.7147175,44.1308713 L16.4901371,42.3486138 C16.3192055,42.2116392 16.1041739,42.1417848 15.8854379,42.1521042 L13.0380772,42.2864328 C12.720469,42.3014268 12.4185604,42.147606 12.2440126,41.8817712 L10.6790799,39.4993127 C10.5588633,39.3162095 10.3760247,39.1833803 10.1646975,39.1256093 L7.41523881,38.3735279 C7.10856741,38.2896497 6.8690162,38.0500985 6.785138,37.7434271 L6.03305657,34.9939684 C5.97528557,34.7827294 5.84245637,34.5998026 5.65935316,34.479586 L3.27698289,32.9144769 C3.01123629,32.7398409 2.85732728,32.4380205 2.87232128,32.1204123 L3.00664989,29.2730516 C3.01696929,29.0542274 2.94702669,28.839284 2.81014028,28.6683524 L1.02788283,26.443772 C0.829080024,26.1956654 0.776071822,25.8609463 0.888438626,25.5635359 L1.89603545,22.8971617 C1.97347506,22.6922731 1.97347506,22.4662164 1.89603545,22.2613278 L0.888438626,19.5947772 C0.776071822,19.2973668 0.829080024,18.9626477 1.02788283,18.7145411 L2.81014028,16.4899607 C2.94711489,16.3190291 3.01696929,16.1039975 3.00664989,15.8852615 L2.87232128,13.0379008 C2.85732728,12.7202926 3.01114809,12.418384 3.27698289,12.2438362 L5.65944136,10.6789035 C5.84254457,10.5586869 5.97537377,10.3758483 6.03314477,10.1645211 L6.7852262,7.41506241 C6.8691044,7.10839101 7.10865561,6.8688398 7.41532701,6.7849616 L10.1647857,6.03288017 C10.3760247,5.97510917 10.5589515,5.84227997 10.6791681,5.65917676 L12.2441008,3.27671829 C12.4187368,3.01097169 12.7205572,2.85706268 13.0381654,2.87205668 L15.8855261,3.00638529 C16.1042621,3.01679289 16.3192937,2.94676209 16.4902253,2.80987568 L18.7148057,1.02761823 C18.9629123,0.828815424 19.2976314,0.775807222 19.5950418,0.888174026 L22.261416,1.89577085 C22.4661282,1.97347506 22.6922731,1.97347506 22.8971617,1.89612365 Z" id="Path" fill="#4DD0E1"></path>
                        <path d="M29.2367765,38.3049584 C16.7406883,38.3049584 6.610477,28.1748353 6.610477,15.678659 C6.610477,12.3319099 7.34288982,9.15812098 8.64692686,6.29999989 L7.28503062,6.6725567 C6.97835921,6.75643491 6.738808,6.99598611 6.6549298,7.30265752 L5.90276018,10.0521162 C5.84498918,10.2633552 5.71215997,10.446282 5.52905677,10.5665868 L3.1465983,12.1315195 C2.88085169,12.3061555 2.72694269,12.6079759 2.74193669,12.9254959 L2.87626529,15.7728566 C2.88658469,15.9915926 2.81664209,16.2066242 2.67975569,16.3775558 L0.897498234,18.6021362 C0.698695428,18.8502429 0.645687227,19.1849619 0.75805403,19.4822841 L1.76565086,22.1486584 C1.84309046,22.353547 1.84309046,22.5796036 1.76565086,22.7844922 L0.75805403,25.4508664 C0.645687227,25.7482769 0.698695428,26.0829959 0.897498234,26.3311025 L2.67975569,28.5556829 C2.81673029,28.7266145 2.88658469,28.9416461 2.87626529,29.1603822 L2.74193669,32.0077428 C2.72694269,32.325351 2.88076349,32.6272597 3.1465983,32.8018075 L5.52905677,34.3667401 C5.71207177,34.4869567 5.84498918,34.6697953 5.90276018,34.8811225 L6.6549298,37.6305812 C6.738808,37.9372526 6.97835921,38.1768038 7.28503062,38.2608584 L10.0344893,39.013028 C10.2457283,39.070799 10.4286551,39.2036282 10.5488717,39.3867314 L12.1138044,41.7691899 C12.2884404,42.0349365 12.5902608,42.1887573 12.907869,42.1738515 L15.7551415,42.0395229 C15.9739657,42.0292035 16.1889973,42.0991461 16.3599289,42.2360325 L18.5845093,44.01829 C18.832616,44.2170046 19.167335,44.270101 19.4646572,44.1577342 L22.1310314,43.1501374 C22.3359201,43.0726978 22.5619767,43.0726978 22.7668653,43.1501374 L25.4332395,44.1577342 C25.73065,44.270101 26.065369,44.2170928 26.3133874,44.01829 L28.5379678,42.2360325 C28.7088994,42.0991461 28.923931,42.0292917 29.1427552,42.0395229 L31.9900277,42.1738515 C32.3076359,42.1888455 32.6095445,42.0350247 32.7840924,41.7691899 L34.349025,39.3867314 C34.4692416,39.2037164 34.6520802,39.070799 34.8634074,39.013028 L37.6128661,38.2608584 C37.9195375,38.1769802 38.1590887,37.937429 38.2429669,37.6305812 L38.6155237,36.268685 C35.7572262,37.5726338 32.5834373,38.3049584 29.2367765,38.3049584 Z" id="Path" fill="#4DD0E1"></path>
                        <circle id="Oval" fill="#193647" cx="22.2468236" cy="22.2468236" r="17.3468237"></circle>
                        <g id="affordable" transform="translate(14.700000, 10.500000)">
                            <path d="M4.46474338,6.35022293 L4.46474338,4.61295723 L2.8320235,1.13842581 C2.8320235,1.13842581 3.54647679,0.0531242675 4.77054846,1.13842581 C4.77054846,1.13842581 5.48500175,1.78919809 6.19826314,1.13842581 C6.19826314,1.13842581 6.71418151,0.509958914 7.58238869,0.401326598 L7.58238869,0.378680676 C7.62597783,0.378680676 7.66445887,0.3865131 7.70651558,0.389237421 C7.74891284,0.38634283 7.78739388,0.378680676 7.83115329,0.378680676 L7.83115329,0.401326598 C8.69765777,0.509958914 9.2137464,1.13842581 9.2137464,1.13842581 C9.92802942,1.78919809 10.6428233,1.13842581 10.6428233,1.13842581 C11.8667246,0.0531242675 12.579986,1.13842581 12.579986,1.13842581 L10.9484581,4.61295723 L10.9484581,6.35022293 C10.9484581,6.35022293 14.3690139,13.7494799 14.3901274,13.8618581 C14.5964947,14.5235277 14.7090432,15.2275945 14.7090432,15.9578829 C14.7090432,19.8257382 11.5742006,22.9616025 7.70651558,22.9616025 C3.8390008,22.9616025 0.702966322,19.8257382 0.702966322,15.9578829 C0.702966322,15.2275945 0.816877011,14.5235277 1.02324436,13.8606662 C1.04452812,13.7481177 4.46474338,6.35022293 4.46474338,6.35022293 Z" id="Path" fill="#FBC02D"></path>
                            <path d="M11.5679006,13.8618581 C11.5464466,13.7494799 11.523971,13.6355692 11.492471,13.5151882 L8.12623135,6.35022293 L8.12623135,4.61295723 L9.64367838,1.38157149 C10.1888832,1.54060376 10.6428233,1.13825554 10.6428233,1.13825554 C11.8667246,0.0529539974 12.579986,1.13825554 12.579986,1.13825554 L10.9484581,4.61278696 L10.9484581,6.35005266 C10.9484581,6.35005266 14.3690139,13.7493096 14.3901274,13.8616879 C14.5964947,14.5233574 14.7090432,15.2274242 14.7090432,15.9577127 C14.7090432,19.825568 11.5742006,22.9614322 7.70651558,22.9614322 C7.22226745,22.9614322 6.75130039,22.9125647 6.29480628,22.8185756 C9.48634881,22.1662709 11.8866462,19.342682 11.8866462,15.9578829 C11.8866462,15.2275945 11.7740977,14.5235277 11.5679006,13.8618581 Z" id="Path" fill="#FBC02D"></path>
                            <path d="M7.70651558,23.2662156 C3.67673341,23.2662156 0.398353135,19.9876651 0.398353135,15.9578829 C0.398353135,15.2131216 0.510731393,14.4772142 0.732593317,13.7707636 L0.734296018,13.7712745 C0.789804067,13.6205854 1.17427393,12.7433539 4.16013019,6.28330679 L4.16013019,4.68106526 L2.55635623,1.26800135 C2.51123466,1.17213929 2.51923735,1.05959076 2.57763999,0.970880042 C2.59177241,0.949426011 2.93026934,0.44508601 3.55209571,0.362675288 C4.0148898,0.301548326 4.49334875,0.485610291 4.97265905,0.910434161 C5.06034815,0.987566511 5.50883956,1.34155802 5.98150932,0.924736848 C6.08741732,0.804015356 6.64845726,0.210964639 7.544759,0.0987566511 C7.57012924,0.0938188185 7.64079133,0.0820701824 7.70668585,0.0842836936 C7.77172903,0.0824107226 7.84494517,0.0939890886 7.88529918,0.101310702 C8.7657658,0.211305179 9.32680574,0.804526166 9.43220293,0.924736848 C9.90487269,1.34155802 10.3523425,0.987566511 10.4379883,0.911796322 C10.9188311,0.485610291 11.3974603,0.301207786 11.8602544,0.362505017 C12.4819105,0.44474547 12.8205777,0.949255741 12.8347101,0.970709772 C12.8931127,1.05925022 12.9011154,1.17179875 12.8559939,1.26766081 L11.2534118,4.68072472 L11.2534118,6.28313652 C14.236714,12.7382458 14.6222055,13.6185422 14.6780541,13.7700826 L14.6797568,13.7695718 C14.9016187,14.4773845 15.013997,15.2134621 15.013997,15.9578829 C15.0136564,19.9876651 11.7356167,23.2662156 7.70651558,23.2662156 L7.70651558,23.2662156 Z M1.31372513,13.9534634 C1.11059291,14.6008303 1.00757951,15.2752701 1.00757951,15.9578829 C1.00757951,19.6517222 4.01267629,22.6569893 7.70651558,22.6569893 C11.3996738,22.6569893 14.40443,19.6518925 14.40443,15.9578829 C14.40443,15.2756107 14.3014166,14.6006601 14.0981141,13.9521013 C13.9891413,13.6716665 11.9945975,9.3394846 10.6719394,6.4779255 C10.6535503,6.43791203 10.6438449,6.39432289 10.6438449,6.35022293 L10.6438449,4.61295723 C10.6438449,4.56817619 10.6537205,4.52407624 10.6727908,4.48355196 L12.2200351,1.18814467 C12.1263865,1.09994477 11.973484,0.990461102 11.7744383,0.965771939 C11.4948548,0.931377382 11.1822389,1.06589075 10.8435717,1.36624719 C10.5290828,1.65349283 9.7363053,2.02638432 9.00874122,1.36352287 C8.9980142,1.3536472 8.987798,1.34292018 8.97843314,1.33168236 C8.97485747,1.32742561 8.52176877,0.794820771 7.79335333,0.703556004 C7.77479389,0.700661412 7.74142095,0.694191149 7.71758314,0.693339799 C7.70481288,0.694531689 7.70004532,0.694020879 7.68608317,0.693339799 C7.67195076,0.694191149 7.63908863,0.700661412 7.63602377,0.701172223 C6.89041105,0.794820771 6.43885478,1.32708507 6.43425749,1.33253371 C6.42540344,1.34309045 6.4148467,1.35432828 6.40463049,1.36369314 C5.67740694,2.02621405 4.88343752,1.65349283 4.56520273,1.36369314 C4.22755714,1.06418805 3.91289802,0.929844951 3.63178211,0.96662329 C3.43409853,0.992844883 3.28392032,1.10045558 3.19163393,1.18746359 L4.74041065,4.48338169 C4.7594809,4.52390597 4.76935657,4.56817619 4.76935657,4.61295723 L4.76935657,6.35022293 C4.76935657,6.39432289 4.75965117,6.43791203 4.741262,6.4779255 C3.41809315,9.34050622 1.42252771,13.6740502 1.31372513,13.9534634 L1.31372513,13.9534634 Z" id="Shape" fill="#24202B"></path>
                            <path d="M11.9765489,5.66216151 C11.9765489,6.22183929 11.5227791,6.67577934 10.962931,6.67577934 L4.66617289,6.67577934 C4.10632484,6.67577934 3.65374695,6.22183929 3.65374695,5.66216151 C3.65374695,5.10248373 4.10632484,4.64871394 4.66617289,4.64871394 L10.962931,4.64871394 C11.5227791,4.64871394 11.9765489,5.10248373 11.9765489,5.66216151 L11.9765489,5.66216151 Z" id="Path" fill="#FF7043"></path>
                            <path d="M10.962931,6.98039253 L4.66617289,6.98039253 C3.9398007,6.98039253 3.34913376,6.38904451 3.34913376,5.66216151 C3.34913376,4.9352785 3.93997097,4.34410076 4.66617289,4.34410076 L10.962931,4.34410076 C11.689814,4.34410076 12.281162,4.93544877 12.281162,5.66216151 C12.281162,6.38904451 11.6896438,6.98039253 10.962931,6.98039253 Z M4.66600262,4.95332713 C4.27574358,4.95332713 3.95818987,5.27139166 3.95818987,5.66216151 C3.95818987,6.05310163 4.27574358,6.37116616 4.66600262,6.37116616 L10.9627607,6.37116616 C11.3537009,6.37116616 11.6717654,6.05310163 11.6717654,5.66216151 C11.6717654,5.27139166 11.3537009,4.95332713 10.9627607,4.95332713 L4.66600262,4.95332713 Z" id="Shape" fill="#24202B"></path>
                            <g id="Group" transform="translate(1.750000, 9.875665)" fill="#24202B">
                                <path d="M5.33502979,11.5168985 C5.32753791,11.5168985 5.32021629,11.5167282 5.31272441,11.5160471 C3.84278274,11.4097986 2.50224634,10.7372318 1.53834737,9.62230322 C0.57410786,8.50737468 0.102119176,7.08391674 0.209219062,5.61414534 C0.390897246,3.10027776 2.24735202,1.03115565 4.72358991,0.582664241 C4.89028432,0.552696706 5.04761388,0.662691183 5.07775169,0.828023438 C5.10771923,0.993525964 4.99772475,1.15204742 4.83239249,1.18201495 C2.62977863,1.58095777 0.97866959,3.42174769 0.816913006,5.6582453 C0.721561757,6.96591957 1.14144779,8.23204795 1.99909823,9.22370094 C2.85674866,10.2153539 4.04915009,10.813683 5.35665409,10.9083532 C5.52437013,10.9204424 5.65071054,11.0663638 5.63845109,11.2340799 C5.62687272,11.3944743 5.4932107,11.5168985 5.33502979,11.5168985 L5.33502979,11.5168985 Z" id="Path"></path>
                                <polygon id="Path" points="4.58192519 1.8380656 6.08898574 0.813209941 4.4480929 0.0202621405"></polygon>
                                <path d="M7.18126836,11.4344878 C7.03670905,11.4344878 6.90849568,11.3313041 6.88176327,11.1840205 C6.85179574,11.0185179 6.96179021,10.8599965 7.12712247,10.830029 C9.32939579,10.4310861 10.9811859,8.59046648 11.1439641,6.35379861 C11.2386343,5.0462946 10.8184077,3.78016623 9.960587,2.78851323 C9.1027663,1.79668997 7.91036487,1.19853115 6.60286087,1.10386098 C6.43514483,1.0917718 6.30880443,0.945850339 6.32106387,0.778134302 C6.33332332,0.610077726 6.48094749,0.484588671 6.64679055,0.496337307 C8.11656195,0.602585842 9.45709835,1.27515269 10.4213379,2.38991096 C11.3855774,3.50466922 11.8580769,4.92812716 11.7514878,6.39806883 C11.5684474,8.91210668 9.71165214,10.9810585 7.23575479,11.4295499 C7.21753589,11.4327851 7.19931699,11.4344878 7.18126836,11.4344878 L7.18126836,11.4344878 Z" id="Path"></path>
                                <polygon id="Path" points="7.37758977 10.1741486 5.87069949 11.198834 7.51159233 11.991952"></polygon>
                            </g>
                            <path d="M6.60844379,15.6827265 C6.60844379,15.8242209 6.58698976,15.9551586 6.54612493,16.0769017 C6.506452,16.1984746 6.43102235,16.3016582 6.3237522,16.3850906 C6.21529015,16.4697148 6.06715518,16.5345877 5.88036889,16.5809012 C5.69239071,16.6272146 5.45571529,16.6496903 5.16863992,16.6496903 C4.58904054,16.6496903 4.20133555,16.5609796 4.00552495,16.3811744 C3.81073597,16.2023908 3.71300094,15.9696316 3.71300094,15.6825562 L3.71300094,14.1383768 C3.71300094,13.8511311 3.81073597,13.6170098 4.00552495,13.4383964 C4.20133555,13.2596128 4.58904054,13.1697102 5.16863992,13.1697102 C5.45571529,13.1697102 5.69239071,13.1937183 5.88036889,13.2400318 C6.06715518,13.286175 6.21529015,13.3510479 6.3237522,13.4344802 C6.43102235,13.5191045 6.50628173,13.6210962 6.54612493,13.7440312 C6.58698976,13.8657744 6.60844379,13.996712 6.60844379,14.1383768 L6.60844379,15.6827265 Z M4.8921213,15.4312375 C4.8921213,15.4683564 4.90812669,15.502751 4.94098881,15.5318672 C4.97402121,15.5623455 5.0497914,15.5768185 5.16881019,15.5768185 C5.28255061,15.5768185 5.35525594,15.5623455 5.38828834,15.5318672 C5.42132073,15.502751 5.43732612,15.4683564 5.43732612,15.4312375 L5.43732612,14.390036 C5.43732612,14.3570036 5.42132073,14.3265252 5.38828834,14.2960469 C5.35525594,14.2667604 5.28255061,14.2522875 5.16881019,14.2522875 C5.0497914,14.2522875 4.97402121,14.2667604 4.94098881,14.2960469 C4.90812669,14.3265252 4.8921213,14.3570036 4.8921213,14.390036 L4.8921213,15.4312375 Z M6.23384959,18.7722772 L7.5345428,13.5034396 C7.55582656,13.4070667 7.59175354,13.3326587 7.64062106,13.2837912 C7.68948858,13.2361156 7.76491822,13.2109156 7.8681019,13.2109156 L8.72149558,13.2109156 C8.82467925,13.2109156 8.89755485,13.2359453 8.94114399,13.2837912 C8.98490341,13.3326587 8.99546015,13.4070667 8.9729845,13.5034396 L7.6722913,18.7722772 C7.65117781,18.8688203 7.61542109,18.9430581 7.56774546,18.9919256 C7.51887795,19.0396012 7.44225641,19.0648012 7.34026462,19.0648012 L6.48533851,19.0648012 C6.383517,19.0648012 6.30944951,19.0396012 6.26705226,18.9919256 C6.22329285,18.9430581 6.2127361,18.8688203 6.23384959,18.7722772 Z M11.4698251,18.1463644 C11.4698251,18.2866669 11.4485413,18.4177749 11.4086981,18.5407099 C11.3680036,18.662453 11.2939361,18.7654664 11.1853038,18.8488987 C11.077012,18.9336933 10.928877,18.9985662 10.7420907,19.0447093 C10.5541125,19.0898309 10.3172668,19.1134985 10.0300212,19.1134985 C9.45076237,19.1134985 9.06288711,19.0237661 8.86843867,18.8449825 C8.67262806,18.6661989 8.57455249,18.4334397 8.57455249,18.1461941 L8.57455249,16.6006525 C8.57455249,16.3135771 8.67245779,16.0808179 8.86843867,15.9020343 C9.06288711,15.723421 9.45076237,15.6335184 10.0300212,15.6335184 C10.3172668,15.6335184 10.5539423,15.6573562 10.7420907,15.7023075 C10.928877,15.7484507 11.077012,15.8133236 11.1853038,15.8979479 C11.2941063,15.9813802 11.3680036,16.0847341 11.4086981,16.206307 C11.4485413,16.3280501 11.4698251,16.46035 11.4698251,16.6004822 L11.4698251,18.1463644 Z M9.75367285,17.8936836 C9.75367285,17.9323349 9.77087013,17.965197 9.80254037,17.9956753 C9.8354025,18.0247915 9.91100241,18.0407969 10.0300212,18.0407969 C10.1437616,18.0407969 10.2166372,18.0247915 10.2498399,17.9956753 C10.282702,17.965197 10.2987074,17.9323349 10.2987074,17.8936836 L10.2987074,16.8536739 C10.2987074,16.8208117 10.282702,16.7903334 10.2498399,16.759855 C10.2166372,16.7307389 10.1437616,16.7147335 10.0300212,16.7147335 C9.91100241,16.7147335 9.8354025,16.7307389 9.80254037,16.759855 C9.77087013,16.7903334 9.75367285,16.8206415 9.75367285,16.8536739 L9.75367285,17.8936836 Z" id="Shape" fill="#4DD0E1"></path>
                            <path d="M10.0300212,19.4182819 C9.36528678,19.4182819 8.91781699,19.304201 8.66241186,19.0693985 C8.40223916,18.832042 8.26993931,18.5212991 8.26993931,18.1463644 L8.26993931,17.621592 L7.96805044,18.8453231 C7.9363802,18.9902229 7.87440189,19.113839 7.78569118,19.2047632 C7.7058345,19.2827469 7.56910762,19.3694144 7.34026462,19.3694144 L6.48533851,19.3694144 C6.24525769,19.3694144 6.11023351,19.2740632 6.03940115,19.1943768 C5.96294988,19.1089012 5.88241213,18.9542959 5.93638775,18.7074043 L6.43698181,16.6786362 C6.30672519,16.7637712 6.14769293,16.8288144 5.9537553,16.8770009 C5.74176904,16.9292738 5.48517202,16.9548143 5.16898046,16.9548143 C4.49385956,16.9548143 4.05881949,16.8439685 3.79983868,16.6059309 C3.54034707,16.367723 3.40872829,16.0573207 3.40872829,15.683067 L3.40872829,14.1388876 C3.40872829,13.7636123 3.5401768,13.4526991 3.79983868,13.2144913 C4.05745733,12.9795185 4.50509739,12.8656079 5.16898046,12.8656079 C5.47682878,12.8656079 5.74074742,12.8923403 5.95358503,12.9447834 C6.18123614,13.0011428 6.36819269,13.0847455 6.50951687,13.1933778 C6.66974102,13.3198884 6.77871387,13.4729613 6.83609489,13.6508935 C6.88700565,13.8019231 6.91322724,13.9672553 6.91322724,14.1388876 L6.91322724,14.7499869 L7.23878365,13.4307343 C7.27113497,13.2837912 7.33447544,13.159494 7.42539967,13.0687401 C7.5362455,12.960278 7.68438047,12.9066429 7.86827217,12.9066429 L8.72166585,12.9066429 C8.95936289,12.9066429 9.09455734,13.0002915 9.16624105,13.078786 C9.23247611,13.1528535 9.33089222,13.312056 9.26959499,13.5732503 L8.77070363,15.5935049 C9.03649524,15.4160835 9.45076237,15.329416 10.0300212,15.329416 C10.335656,15.329416 10.5992341,15.3554674 10.8130933,15.4067186 C11.0477255,15.4647807 11.2299145,15.5470212 11.3727711,15.6587184 C11.5268656,15.7770561 11.6370303,15.9294478 11.6974762,16.1101044 C11.7487275,16.2664123 11.7744383,16.4310635 11.7744383,16.6011633 L11.7744383,18.1467049 C11.7744383,18.315102 11.7488977,18.4795829 11.6984978,18.6350395 C11.6370303,18.8185907 11.5268656,18.9711527 11.3703873,19.0910228 C11.2302551,19.200847 11.0477255,19.2830875 10.8151366,19.340809 C10.5992341,19.3922306 10.335656,19.4182819 10.0300212,19.4182819 L10.0300212,19.4182819 Z M10.0300212,15.9383019 C9.35251653,15.9383019 9.13610324,16.0699206 9.07446547,16.1266206 C8.94114399,16.2483637 8.87933595,16.3988825 8.87933595,16.6008228 L8.87933595,18.1463644 C8.87933595,18.348475 8.94114399,18.4989937 9.07395466,18.6200558 C9.13627351,18.6772665 9.3526868,18.8088853 10.0301915,18.8088853 C10.2881507,18.8088853 10.5037126,18.7884529 10.6712584,18.7484394 C10.8144555,18.7130232 10.9247905,18.6658584 10.9974958,18.6089882 C11.059985,18.560972 11.0981255,18.5092099 11.1200903,18.4439965 C11.1503984,18.3505182 11.1655524,18.2522724 11.1655524,18.1461941 L11.1655524,16.6006525 C11.1655524,16.4950851 11.1500578,16.3944554 11.1194092,16.3013177 C11.0981255,16.2378069 11.059985,16.1858746 11.0000499,16.1397314 C10.9251311,16.0811585 10.8144555,16.0339937 10.6692151,15.9980667 C10.5035423,15.9587343 10.2879804,15.9383019 10.0300212,15.9383019 L10.0300212,15.9383019 Z M6.55072223,18.760188 L7.34026462,18.760188 C7.34792678,18.760188 7.35422677,18.7600178 7.35950514,18.759507 C7.36359163,18.7486097 7.36955108,18.7314124 7.37465918,18.707234 L8.65611187,13.5155288 L7.8681019,13.5155288 C7.85992893,13.5155288 7.85311813,13.5156991 7.84766949,13.5162099 C7.84341274,13.5271071 7.83745328,13.5443044 7.83200464,13.5689936 L6.55072223,18.760188 Z M5.16881019,13.4744937 C4.49130551,13.4744937 4.2733598,13.6066233 4.21104095,13.6634935 C4.07942217,13.7843852 4.0177844,13.9354148 4.0177844,14.138547 L4.0177844,15.6827265 C4.0177844,15.8848371 4.0792519,16.0353558 4.21172203,16.1569287 C4.28834357,16.2272502 4.51446224,16.3452474 5.16881019,16.3452474 C5.43153694,16.3452474 5.64641779,16.3249852 5.80749329,16.2853123 C5.95273368,16.2493853 6.06323896,16.2022205 6.1364551,16.14518 C6.19690098,16.0980152 6.23623337,16.0448909 6.25666578,15.9822315 C6.28867656,15.88671 6.3038306,15.7894858 6.3038306,15.6827265 L6.3038306,14.138547 C6.3038306,14.0316174 6.28867656,13.9342229 6.25734686,13.8410852 C6.2360631,13.7750204 6.19741179,13.7227475 6.13509294,13.6735394 C6.06494167,13.6197341 5.95052017,13.5712071 5.80732302,13.5357909 C5.64250158,13.4950964 5.42745046,13.4744937 5.16881019,13.4744937 L5.16881019,13.4744937 Z M10.0300212,18.3452398 C9.82808088,18.3452398 9.69578102,18.3077804 9.60077031,18.2238373 C9.47374883,18.102605 9.4488894,17.9781375 9.4488894,17.8936836 L9.4488894,16.8536739 C9.4488894,16.7729658 9.47374883,16.6529254 9.591746,16.5398661 C9.69561075,16.4475797 9.82808088,16.4101203 10.0298509,16.4101203 C10.1512535,16.4101203 10.326802,16.42255 10.4502478,16.5306715 C10.5777801,16.6483281 10.6031503,16.7707523 10.6031503,16.8536739 L10.6031503,17.8936836 C10.6031503,17.980351 10.5777801,18.1072022 10.4563775,18.2194102 C10.3269722,18.3328101 10.1514238,18.3452398 10.0300212,18.3452398 L10.0300212,18.3452398 Z M5.16881019,15.8812614 C5.02169684,15.8812614 4.85483215,15.8664479 4.73479174,15.7559426 C4.64131346,15.6735319 4.58750811,15.5567266 4.58750811,15.4310673 L4.58750811,14.3898657 C4.58750811,14.3067739 4.61287835,14.1843497 4.73428093,14.0721417 C4.85874836,13.9618067 5.02339954,13.947504 5.16881019,13.947504 C5.30162086,13.947504 5.46967744,13.9611256 5.59022866,14.0677147 C5.71639879,14.1836686 5.74210958,14.3064333 5.74210958,14.3898657 L5.74210958,15.4310673 C5.74210958,15.5568969 5.68796369,15.6738724 5.58954758,15.7603696 C5.47376392,15.867129 5.30349383,15.8812614 5.16881019,15.8812614 L5.16881019,15.8812614 Z" id="Shape" fill="#24202B"></path>
                        </g>
                        <path d="M43.8980233,22.5792007 L45.1127137,19.364928 C45.2011783,19.1311098 45.1594597,18.8680091 45.0030811,18.6728225 L42.8546172,15.9911897 L43.0165524,12.5588866 C43.0283712,12.3092806 42.9073608,12.0717579 42.6985032,11.9346069 L39.8265347,10.0480971 L38.9200151,6.73371739 C38.8540415,6.49257859 38.6656463,6.30418338 38.4245957,6.23829798 L35.110216,5.33177835 L33.2237062,2.45989807 C33.086467,2.25095226 32.8490325,2.13047106 32.5994265,2.14184886 L29.1671234,2.30378407 L26.4854906,0.155320204 C26.2903922,-0.000970200028 26.0272916,-0.0426888012 25.7933851,0.0456876013 L22.5791125,1.26037804 L19.3650162,0.0457758013 C19.1310216,-0.0426888012 18.8680091,-0.000970200028 18.6729107,0.155408404 L15.9912779,2.30387227 L12.5589748,2.14193706 C12.308134,2.13011826 12.0718461,2.25112866 11.9346951,2.45998627 L10.0481853,5.33195475 L6.73389379,6.23847438 C6.49275499,6.30444798 6.30435978,6.49284319 6.23847438,6.73389379 L5.33195475,10.0482735 L2.45998627,11.9347833 C2.25104046,12.0720225 2.13011826,12.309457 2.14193706,12.559063 L2.30387227,15.9913661 L0.155408404,18.6729107 C-0.000882000025,18.8680091 -0.0426006012,19.1311098 0.0457758013,19.3650162 L1.26037804,22.5792007 L0.0456876013,25.7933851 C-0.0427770012,26.0272034 -0.00105840003,26.290304 0.155320204,26.4854906 L2.30378407,29.1671234 L2.14184886,32.5994265 C2.13003006,32.8490325 2.25104046,33.0865552 2.45989807,33.2237062 L5.33186655,35.110216 L6.23838618,38.4245957 C6.30435978,38.6657345 6.49275499,38.8541297 6.73380559,38.9200151 L10.0481853,39.8265347 L11.9346951,42.6985032 C12.0719343,42.907449 12.3098098,43.0276656 12.5589748,43.0165524 L15.9912779,42.8546172 L18.6729107,45.0030811 C18.8680091,45.1594597 19.131198,45.2011783 19.3650162,45.1127137 L22.5792889,43.8980233 L25.7935615,45.1127137 C25.8747055,45.1433191 25.9592893,45.1584283 26.0434322,45.1584283 C26.2018394,45.1584283 26.358218,45.1051285 26.4855788,45.0030811 L29.1672116,42.8546172 L32.5995147,43.0165524 C32.8499145,43.0276656 33.0865552,42.9073608 33.2237944,42.6985032 L35.1103042,39.8265347 L38.4246839,38.9200151 C38.6658227,38.8540415 38.8542179,38.6656463 38.9201033,38.4245957 L39.8266229,35.110216 L42.6985914,33.2237062 C42.9075372,33.086467 43.0284594,32.8490325 43.0166406,32.5994265 L42.8547054,29.1671234 L45.0031693,26.4854906 C45.1594597,26.2903922 45.2011783,26.0272916 45.1128019,25.7933851 L43.8980233,22.5792007 Z M42.4807374,22.8291595 L43.6472707,25.9160713 L41.5839198,28.4914232 C41.4762276,28.6257518 41.421279,28.7948312 41.4293934,28.9668212 L41.5849782,32.2631199 L38.8267877,34.0748362 C38.6829335,34.1692984 38.5783283,34.3131526 38.5329053,34.4793214 L37.6622831,37.6623713 L34.4792332,38.5329935 C34.3131526,38.5784165 34.1693866,38.6829335 34.074748,38.8268759 L32.2630317,41.5850664 L28.966733,41.4294816 C28.7946548,41.4215436 28.6256636,41.4763158 28.491335,41.584008 L25.9159831,43.6473589 L22.8290713,42.4808256 C22.7485447,42.4503966 22.6637845,42.4352262 22.5791125,42.4352262 C22.4944404,42.4352262 22.4096802,42.4504848 22.3291536,42.4808256 L19.2422418,43.6473589 L16.6668899,41.584008 C16.5325613,41.4763158 16.3632173,41.4215436 16.1914919,41.4294816 L12.8951932,41.5850664 L11.0834769,38.8268759 C10.9890147,38.6830217 10.8451605,38.5784165 10.6789917,38.5329935 L7.49594182,37.6623713 L6.62531959,34.4793214 C6.57989659,34.3132408 6.47537959,34.1694748 6.33143718,34.0748362 L3.5733349,32.2631199 L3.72891971,28.9668212 C3.73703411,28.794743 3.68208551,28.6257518 3.5743933,28.4914232 L1.51104244,25.9160713 L2.67757568,22.8291595 C2.73852188,22.6681063 2.73852188,22.490295 2.67757568,22.3292418 L1.51104244,19.24233 L3.5743933,16.6669781 C3.68208551,16.5326495 3.73703411,16.3635701 3.72891971,16.1915801 L3.5733349,12.8952814 L6.33143718,11.0835651 C6.47529139,10.9891029 6.57989659,10.8452487 6.62531959,10.6790799 L7.49594182,7.49603002 L10.6789917,6.62540779 C10.8450723,6.57998479 10.9888383,6.47546779 11.0834769,6.33152538 L12.8951932,3.5734231 L16.1914919,3.72900791 C16.3633055,3.73703411 16.5325613,3.68217371 16.6668899,3.5744815 L19.2422418,1.51113064 L22.3291536,2.67766388 C22.490295,2.73861008 22.6680181,2.73861008 22.8290713,2.67766388 L25.9159831,1.51113064 L28.491335,3.5744815 C28.6256636,3.68226191 28.7948312,3.73712231 28.966733,3.72900791 L32.2630317,3.5734231 L34.074748,6.33152538 C34.1692102,6.47537959 34.3130644,6.57998479 34.4792332,6.62540779 L37.6622831,7.49603002 L38.5329053,10.6790799 C38.5783283,10.8451605 38.6828453,10.9889265 38.8267877,11.0835651 L41.58489,12.8952814 L41.4293052,16.1915801 C41.4211908,16.3636583 41.4761394,16.5326495 41.5838316,16.6669781 L43.6472707,19.24233 L42.4806492,22.3292418 C42.4198794,22.4903832 42.4198794,22.6681063 42.4807374,22.8291595 Z" id="Shape" fill="#000000"></path>
                        <path d="M34.3225018,10.8037065 C34.4924632,10.9736679 34.6610134,11.1496269 34.8233896,11.3263797 C34.9628338,11.4782601 35.1533458,11.5552587 35.3444752,11.5552587 C35.5153186,11.5552587 35.6866912,11.4936951 35.822431,11.3690685 C36.1100512,11.1049977 36.1291906,10.6576473 35.8651198,10.3700271 C35.6891608,10.1784567 35.506675,9.98794469 35.3224252,9.80378308 C35.1381754,9.61962148 34.9477516,9.43704747 34.7561812,9.26108847 C34.468561,8.99701766 34.0212988,9.01606886 33.7571398,9.30377727 C33.493069,9.59139748 33.5121202,10.0387479 33.7998286,10.3028187 C33.9765814,10.4651067 34.152364,10.6335687 34.3225018,10.8037065 Z" id="Path" fill="#000000"></path>
                        <path d="M10.7903001,10.8037065 C13.4839282,8.10999023 17.0500307,6.41081718 20.8314294,6.01912097 C24.5600845,5.63280496 28.3435118,6.52265479 31.4852841,8.52426565 C31.8147111,8.73409345 32.2516539,8.63724985 32.4614817,8.30791104 C32.6713095,7.97857223 32.5744659,7.54154122 32.2451271,7.33171341 C28.835315,5.15934735 24.7299577,4.19391012 20.685723,4.61259553 C16.5822179,5.03771955 12.7128838,6.881276 9.79028848,9.80378308 C6.57389899,13.0201726 4.70123654,17.2929335 4.51725133,21.834969 C4.33450093,26.3501918 5.83002017,30.7340847 8.72853685,34.178824 C8.86833386,34.3449928 9.06837146,34.430635 9.26999667,34.430635 C9.43069707,34.430635 9.59219128,34.3761274 9.72484408,34.2646426 C10.0235775,34.0131844 10.0620327,33.567157 9.81066268,33.2684236 C7.13987841,30.0941937 5.76184157,26.0541044 5.93039177,21.8922108 C6.09982398,17.7060623 7.82580983,13.7681086 10.7903001,10.8037065 Z" id="Path" fill="#000000"></path>
                        <path d="M36.8183855,12.6645502 C36.4889585,12.874378 36.3922031,13.3114972 36.6020309,13.6407478 C38.6036417,16.7826083 39.4933151,20.566212 39.1071755,24.2946025 C38.7154793,28.0760894 37.0163063,31.6421037 34.3226782,34.3359082 C31.3581879,37.3003103 27.4202342,39.0262961 23.2341739,39.1958165 C19.072986,39.3649841 15.0321028,37.9863299 11.8579611,35.3156338 C11.5592277,35.0641756 11.1132003,35.1026308 10.8617421,35.4014524 C10.6102839,35.7001858 10.6487391,36.1462132 10.9475607,36.3976715 C14.203993,39.1376045 18.2991191,40.6238628 22.5516823,40.6238628 C22.7976721,40.6238628 23.0446321,40.6188354 23.2915921,40.6088688 C27.8336276,40.4249718 32.1063003,38.5523093 35.322778,35.3359198 C38.2453733,32.4133245 40.089018,28.5439022 40.5139656,24.4403971 C40.9329156,20.395986 39.967302,16.2908051 37.7948477,12.880993 C37.5848435,12.551566 37.1475479,12.4546342 36.8183855,12.6645502 Z" id="Path" fill="#000000"></path>
                    </g>
                </g>
            </g>
        </g>
    </g>
</svg>