<?xml version="1.0" encoding="UTF-8"?>
<svg width="45px" height="45px" viewBox="0 0 45 45" version="1.1" xmlns="http://www.w3.org/2000/svg" xmlns:xlink="http://www.w3.org/1999/xlink">
    <title>productivity</title>
    <g id="Page-1" stroke="none" stroke-width="1" fill="none" fill-rule="evenodd">
        <g id="Desktop-HD-Copy" transform="translate(-754.000000, -2641.000000)">
            <g id="Group-30" transform="translate(221.000000, 2318.000000)">
                <g id="Group-25" transform="translate(513.000000, 280.000000)">
                    <g id="Group-29" transform="translate(20.000000, 22.000000)">
                        <g id="productivity" transform="translate(0.000000, 21.000000)">
                            <path d="M29.3969987,15.6972817 C33.0343728,19.5043828 32.9658133,25.5194036 29.2426084,29.2426084 C25.5194036,32.9658133 19.5043828,33.0343728 15.6972817,29.3969987 L9.36917529,35.7251051 C2.09118623,28.4471161 2.09118623,16.6471643 9.36917529,9.36917529 C16.6471643,2.09118623 28.4471161,2.09118623 35.7251051,9.36917529 L29.3969987,15.6972817 Z" id="Path" fill="#FFCD00" fill-rule="nonzero"></path>
                            <path d="M3.91314004,22.5471402 C3.91173448,15.0093112 8.45177941,8.21308136 15.4157467,5.3282889 C22.3797141,2.44349644 30.3957579,4.03842237 35.7251051,9.36917529 L37.8314925,7.26278791 C29.3826371,-1.13434468 15.7326777,-1.11338975 7.30964396,7.30964396 C-1.11338975,15.7326777 -1.13434468,29.3826371 7.26278791,37.8314925 L9.36917529,35.7251051 C5.87072665,32.232587 3.90737329,27.4904986 3.91314004,22.5471402 L3.91314004,22.5471402 Z" id="Path" fill="#193647" fill-rule="nonzero"></path>
                            <path d="M44.1625804,27.0193002 L44.1625804,18.0749802 L38.3219394,18.0749802 C37.9784288,16.8477001 37.49001,15.6656865 36.8669967,14.5538995 L40.994055,10.4275865 L37.8314925,7.26502399 L35.7251051,9.36917529 L29.3984894,15.695791 C33.1232716,19.4896701 33.0953039,25.5763251 29.3358145,29.3358145 C25.5763251,33.0953039 19.4896701,33.1232716 15.695791,29.3984894 L9.36917529,35.7251051 L7.26278791,37.8314925 L10.4253504,40.994055 L14.5516634,36.8669967 C15.664157,37.4901732 16.8469304,37.9785958 18.0749802,38.3219394 L18.0749802,44.1625804 L27.0193002,44.1625804 L27.0193002,38.3219394 C28.2465803,37.9784288 29.4285939,37.49001 30.5403809,36.8669967 L34.6666939,40.994055 L40.9918189,34.66893 L36.8647606,30.542617 C37.4887107,29.4302271 37.9778855,28.24745 38.3219394,27.0193002 L44.1625804,27.0193002 Z" id="Path" fill="#4DD0E1" fill-rule="nonzero"></path>
                            <circle id="Oval" fill="#FF7043" fill-rule="nonzero" cx="22.5471402" cy="22.5471402" r="2.23608002"></circle>
                            <path d="M29.3984894,29.3984894 C32.6054765,26.1886452 33.1555807,21.1831925 30.7222488,17.3534717 L17.3534717,30.7222488 C21.1831925,33.1555807 26.1886452,32.6054765 29.3984894,29.3984894 L29.3984894,29.3984894 Z" id="Path"></path>
                            <path d="M15.695791,29.3984894 L9.36917529,35.7251051 L7.26278791,37.8314925 L8.75350792,39.3222125 L17.3534717,30.7222488 C16.754129,30.3429942 16.1982382,29.8990814 15.695791,29.3984894 Z" id="Path" fill="#4DD0E1" fill-rule="nonzero"></path>
                            <path d="M37.8314925,7.26278791 L35.7251051,9.36917529 L29.3984894,15.695791 C29.8990814,16.1982382 30.3429942,16.754129 30.7222488,17.3534717 L39.3222125,8.75350792 L37.8314925,7.26278791 Z" id="Path" fill="#193647" fill-rule="nonzero"></path>
                            <polygon id="Path" fill="#000000" fill-rule="nonzero" points="21.8017802 40.4357804 23.2925002 40.4357804 23.2925002 41.9265004 21.8017802 41.9265004"></polygon>
                            <polygon id="Path" fill="#000000" fill-rule="nonzero" transform="translate(35.715931, 35.723614) rotate(-45.000000) translate(-35.715931, -35.723614) " points="34.9706838 34.978367 36.4611787 34.978367 36.4611787 36.4688619 34.9706838 36.4688619"></polygon>
                            <polygon id="Path" fill="#000000" fill-rule="nonzero" points="40.4357804 21.8017802 41.9265004 21.8017802 41.9265004 23.2925002 40.4357804 23.2925002"></polygon>
                            <path d="M44.1625804,17.3296202 L38.877978,17.3296202 C38.5895916,16.4201988 38.2242877,15.5369865 37.7860255,14.689555 L41.5210245,10.9538107 C41.8119996,10.6627477 41.8119996,10.1909346 41.5210245,9.89987161 L38.358462,6.73805446 C32.7282002,0.999600105 24.4508294,-1.2748004 16.6788906,0.781086999 C8.90695172,2.8369744 2.83682096,8.90667594 0.78038398,16.6784694 C-1.276053,24.4502629 0.997762177,32.7277944 6.73581838,38.358462 L9.89763553,41.5210245 C10.1886985,41.8119996 10.6605116,41.8119996 10.9515746,41.5210245 L14.6873189,37.7860255 C15.5355124,38.22411 16.4194734,38.5891647 17.3296202,38.8772326 L17.3296202,44.1625804 C17.3296202,44.5742314 17.6633292,44.9079404 18.0749802,44.9079404 L27.0193002,44.9079404 C27.4309512,44.9079404 27.7646603,44.5742314 27.7646603,44.1625804 L27.7646603,38.877978 C28.6740428,38.5897912 29.5572511,38.2247384 30.4047254,37.7867709 L34.1404697,41.5217699 C34.4315327,41.812745 34.9033458,41.812745 35.1944088,41.5217699 L41.5187885,35.1973902 C41.8097635,34.9063273 41.8097635,34.4345142 41.5187885,34.1434512 L37.7837895,30.4077068 C38.222679,29.5593474 38.5884832,28.6751335 38.8772326,27.7646603 L44.1625804,27.7646603 C44.5742314,27.7646603 44.9079404,27.4309512 44.9079404,27.0193002 L44.9079404,18.0749802 C44.9079404,17.6633292 44.5742314,17.3296202 44.1625804,17.3296202 L44.1625804,17.3296202 Z M7.78901207,7.78901207 C15.7328971,-0.157396897 28.5432526,-0.384776259 36.764137,7.27471367 L35.7116886,8.327162 C28.0683776,1.27345433 16.2198641,1.51102345 8.86544376,8.86544376 C1.51102345,16.2198641 1.27345433,28.0683776 8.327162,35.7116886 L7.27471367,36.764137 C-0.384776259,28.5432526 -0.157396897,15.7328971 7.78901207,7.78901207 L7.78901207,7.78901207 Z M28.8715199,16.2227605 C32.3159996,19.7238042 32.293101,25.3473473 28.8202242,28.8202242 C25.3473473,32.293101 19.7238042,32.3159996 16.2227605,28.8715199 C15.9316976,28.5805448 15.4598845,28.5805448 15.1688215,28.8715199 L9.38184641,34.658495 C2.88641675,27.6012505 3.11274616,16.6770601 9.89490313,9.89490313 C16.6770601,3.11274616 27.6012505,2.88641675 34.658495,9.38184641 L28.8715199,15.1680761 C28.7315584,15.307882 28.6529157,15.4975929 28.6529157,15.6954183 C28.6529157,15.8932438 28.7315584,16.0829547 28.8715199,16.2227605 L28.8715199,16.2227605 Z M43.4172204,26.2739402 L38.3219394,26.2739402 C37.9870594,26.2737457 37.6931601,26.496914 37.6034123,26.8195438 C37.276013,27.9887476 36.8103536,29.1147374 36.2162974,30.1736638 C36.05171,30.4657083 36.1023388,30.8316994 36.3400271,31.0680958 L39.9393706,34.6681846 L34.6696754,39.9378799 L31.0695865,36.3385364 C30.8331902,36.1008481 30.467199,36.0502193 30.1751545,36.2148066 C29.1162282,36.8088629 27.9902383,37.2745223 26.8210345,37.6019216 C26.4984047,37.6916694 26.2752364,37.9855687 26.275431,38.3204487 L26.275431,43.4172204 L18.8203402,43.4172204 L18.8203402,38.3219394 C18.8205347,37.9870594 18.5973665,37.6931601 18.2747366,37.6034123 C17.1055328,37.276013 15.979543,36.8103536 14.9206166,36.2162974 C14.6285721,36.05171 14.262581,36.1023388 14.0261846,36.3400271 L10.4260958,39.9393706 L8.31821768,37.8314925 L15.7159157,30.4345398 C19.853473,34.0166039 26.0554492,33.793592 29.9250441,29.9236051 C33.7946391,26.0536182 34.0170229,19.8516195 30.4345398,15.714425 L37.8314925,8.31672696 L39.9393706,10.4246051 L36.3400271,14.0246939 C36.1023388,14.2610902 36.05171,14.6270814 36.2162974,14.9191259 C36.8104624,15.9779995 37.2761272,17.1040026 37.6034123,18.2732459 C37.6931601,18.5958757 37.9870594,18.819044 38.3219394,18.8188495 L43.4172204,18.8188495 L43.4172204,26.2739402 Z" id="Shape" fill="#000000" fill-rule="nonzero"></path>
                            <path d="M23.2925002,19.6715413 L23.2925002,11.3667401 C23.2925002,10.9550891 22.9587912,10.6213801 22.5471402,10.6213801 C22.1354892,10.6213801 21.8017802,10.9550891 21.8017802,11.3667401 L21.8017802,19.6715413 C20.7587871,19.9442614 19.9442614,20.7587871 19.6715413,21.8017802 L14.3481801,21.8017802 C13.9365292,21.8017802 13.6028201,22.1354892 13.6028201,22.5471402 C13.6028201,22.9587912 13.9365292,23.2925002 14.3481801,23.2925002 L19.6715413,23.2925002 C20.0320212,24.699227 21.3552967,25.6402554 22.8024026,25.5189673 C24.2495084,25.3976792 25.3976792,24.2495084 25.5189673,22.8024026 C25.6402554,21.3552967 24.699227,20.0320212 23.2925002,19.6715413 L23.2925002,19.6715413 Z M22.5471402,24.0378602 C21.7238383,24.0378602 21.0564202,23.3704421 21.0564202,22.5471402 C21.0564202,21.7238383 21.7238383,21.0564202 22.5471402,21.0564202 C23.3704421,21.0564202 24.0378602,21.7238383 24.0378602,22.5471402 C24.0378602,23.3704421 23.3704421,24.0378602 22.5471402,24.0378602 Z" id="Shape" fill="#000000" fill-rule="nonzero"></path>
                            <path d="M22.5471402,8.38530008 C22.1354892,8.38530008 21.8017802,8.05159103 21.8017802,7.63994007 L21.8017802,6.14922006 C21.8017802,5.73756909 22.1354892,5.40386005 22.5471402,5.40386005 C22.9587912,5.40386005 23.2925002,5.73756909 23.2925002,6.14922006 L23.2925002,7.63994007 C23.2925002,8.05159103 22.9587912,8.38530008 22.5471402,8.38530008 Z" id="Path" fill="#000000" fill-rule="nonzero"></path>
                            <path d="M30.0007403,10.3828652 C29.7345853,10.3825921 29.4887719,10.2404195 29.3558126,10.0098542 C29.2228533,9.77928891 29.2229262,9.49532186 29.3560039,9.26482488 L30.1013639,7.97311599 C30.3085783,7.61965613 30.7622351,7.49971653 31.1170617,7.70458176 C31.4718883,7.909447 31.5948345,8.36229829 31.3923274,8.718476 L30.6469674,10.0101849 C30.513692,10.241025 30.2672912,10.3831246 30.0007403,10.3828652 Z" id="Path" fill="#000000" fill-rule="nonzero"></path>
                            <path d="M15.0935401,10.3828652 C14.8269892,10.3831246 14.5805884,10.241025 14.447313,10.0101849 L13.701953,8.718476 C13.4994459,8.36229829 13.6223921,7.909447 13.9772187,7.70458176 C14.3320453,7.49971653 14.7857022,7.61965613 14.9929165,7.97311599 L15.7382765,9.26482488 C15.8713542,9.49532186 15.8714271,9.77928891 15.7384678,10.0098542 C15.6055085,10.2404195 15.3596951,10.3825921 15.0935401,10.3828652 L15.0935401,10.3828652 Z" id="Path" fill="#000000" fill-rule="nonzero"></path>
                            <path d="M9.63675953,15.8389018 C9.5058827,15.8391773 9.37727739,15.8047111 9.26407952,15.7390219 L7.97237063,14.9936619 C7.61891077,14.7864475 7.49897117,14.3327907 7.7038364,13.9779641 C7.90870164,13.6231375 8.36155293,13.5001913 8.71773064,13.7026984 L10.0094395,14.4480584 C10.3015769,14.6167437 10.444,14.9606098 10.3566886,15.286456 C10.2693772,15.6123021 9.97410057,15.8389018 9.63675953,15.8389018 Z" id="Path" fill="#000000" fill-rule="nonzero"></path>
                            <path d="M7.63994007,23.2925002 L6.14922006,23.2925002 C5.73756909,23.2925002 5.40386005,22.9587912 5.40386005,22.5471402 C5.40386005,22.1354892 5.73756909,21.8017802 6.14922006,21.8017802 L7.63994007,21.8017802 C8.05159103,21.8017802 8.38530008,22.1354892 8.38530008,22.5471402 C8.38530008,22.9587912 8.05159103,23.2925002 7.63994007,23.2925002 Z" id="Path" fill="#000000" fill-rule="nonzero"></path>
                            <path d="M8.34654136,31.4914619 C8.00920032,31.4914619 7.71392372,31.2648622 7.62661233,30.9390161 C7.53930093,30.61317 7.68172401,30.2693039 7.97386135,30.1006185 L9.26557024,29.3552585 C9.49631165,29.2199873 9.78184346,29.218721 10.0137756,29.3519403 C10.2457077,29.4851595 10.3884782,29.732438 10.387892,29.9999067 C10.3873022,30.2673755 10.2434459,30.5140238 10.0109303,30.646222 L8.71922136,31.391582 C8.60602349,31.4572712 8.47741819,31.4917374 8.34654136,31.4914619 L8.34654136,31.4914619 Z" id="Path" fill="#000000" fill-rule="nonzero"></path>
                            <path d="M22.5471402,30.0007689 C20.5691592,30.0062426 18.6715405,29.2185215 17.2789357,27.813854 C17.0854575,27.6264352 17.0081552,27.349207 17.0767381,27.0887152 C17.145321,26.8282234 17.3491168,26.6250033 17.6098015,26.5571576 C17.8704863,26.4893119 18.1474948,26.5673981 18.3343654,26.7614057 C19.8342742,28.2935114 22.0416154,28.9017466 24.1145877,28.354152 C26.1875601,27.8065575 27.8065575,26.1875601 28.354152,24.1145877 C28.9017466,22.0416154 28.2935114,19.8342742 26.7614057,18.3343654 C26.5673981,18.1474948 26.4893119,17.8704863 26.5571576,17.6098015 C26.6250033,17.3491168 26.8282234,17.145321 27.0887152,17.0767381 C27.349207,17.0081552 27.6264352,17.0854575 27.813854,17.2789357 C29.9434498,19.4103778 30.5803498,22.6143278 29.4278498,25.3982042 C28.2753498,28.1820805 25.5601483,29.9982904 22.5471402,30.0007689 Z" id="Path" fill="#000000" fill-rule="nonzero"></path>
                        </g>
                    </g>
                </g>
            </g>
        </g>
    </g>
</svg>