<?xml version="1.0" encoding="UTF-8"?>
<svg width="23px" height="99px" viewBox="0 0 23 99" version="1.1" xmlns="http://www.w3.org/2000/svg" xmlns:xlink="http://www.w3.org/1999/xlink">
    <title>scroll</title>
    <g id="Page-1" stroke="none" stroke-width="1" fill="none" fill-rule="evenodd">
        <g id="scroll">
            <text id="Scroll-to-explore" transform="translate(8.300000, 39.400001) rotate(90.000000) translate(-8.300000, -39.400001) " font-family="Poppins-ExtraLight, Poppins" font-size="10" font-weight="300" fill="#193647">
                <tspan x="-30.2699996" y="42.9000013">Scroll to explore</tspan>
            </text>
            <path id="Line" d="M19.6000007,32.2000006 L19.6009822,91.612047 C21.3896379,91.7558126 22.8000008,93.1690045 22.8000008,94.9000031 C22.8000008,96.7270252 21.2288243,98.2000031 19.3000007,98.2000031 C17.3711772,98.2000031 15.8000007,96.7270252 15.8000007,94.9000031 C15.8000007,93.1686822 17.2108887,91.7552865 19.0000182,91.6119668 L19.0000007,32.2000006 L19.6000007,32.2000006 Z M19.3000007,92.2000031 C17.6942018,92.2000031 16.4000007,93.4133167 16.4000007,94.9000031 C16.4000007,96.3866896 17.6942018,97.6000031 19.3000007,97.6000031 C20.9057996,97.6000031 22.2000008,96.3866896 22.2000008,94.9000031 C22.2000008,93.4133167 20.9057996,92.2000031 19.3000007,92.2000031 Z" fill="#DCA69F" fill-rule="nonzero"></path>
        </g>
    </g>
</svg>