<?xml version="1.0" encoding="UTF-8"?>
<svg width="28px" height="28px" viewBox="0 0 28 28" version="1.1" xmlns="http://www.w3.org/2000/svg" xmlns:xlink="http://www.w3.org/1999/xlink">
    <title>Combined Shape</title>
    <g id="Page-1" stroke="none" stroke-width="1" fill="none" fill-rule="evenodd">
        <g id="Desktop-HD-Copy" transform="translate(-464.000000, -3497.000000)" fill="#D8D8D8">
            <g id="Group-2" transform="translate(0.000000, 3395.000000)">
                <g id="Group-3">
                    <path d="M478,102 C485.731986,102 492,108.268014 492,116 C492,123.731986 485.731986,130 478,130 C470.268014,130 464,123.731986 464,116 C464,108.268014 470.268014,102 478,102 Z M481.371954,110.010796 C479.674658,110.010796 478.298466,111.386988 478.298466,113.083354 C478.298466,113.323943 478.325615,113.558926 478.378051,113.783628 C475.824151,113.655353 473.559531,112.431769 472.043852,110.572489 C471.778905,111.025614 471.628181,111.553599 471.628181,112.117201 C471.628181,113.183526 472.171172,114.12439 472.995022,114.674847 C472.491346,114.658005 472.017633,114.519448 471.602918,114.28914 L471.602918,114.327525 C471.602918,115.816056 472.662681,117.058366 474.067882,117.34111 C473.810426,117.410389 473.538943,117.448773 473.258084,117.448773 C473.059625,117.448773 472.867701,117.429116 472.679524,117.391662 C473.070836,118.613385 474.205509,119.501813 475.549877,119.526171 C474.498534,120.35002 473.172893,120.839645 471.733054,120.839645 C471.484973,120.839645 471.240614,120.824663 471.000024,120.797515 C472.360304,121.670985 473.975225,122.180267 475.710906,122.180267 C481.364512,122.180267 484.454867,117.497464 484.454867,113.436306 L484.444561,113.038433 C485.048385,112.607756 485.570763,112.06665 485.981758,111.450636 C485.430346,111.694971 484.838689,111.860676 484.217044,111.934654 C484.851786,111.554553 485.337665,110.95166 485.567948,110.235473 C484.972546,110.587471 484.315331,110.843067 483.615057,110.981623 C483.054293,110.383406 482.256661,110.010796 481.371954,110.010796 Z" id="Combined-Shape"></path>
                </g>
            </g>
        </g>
    </g>
</svg>