<?xml version="1.0" encoding="UTF-8"?>
<svg width="28px" height="28px" viewBox="0 0 28 28" version="1.1" xmlns="http://www.w3.org/2000/svg" xmlns:xlink="http://www.w3.org/1999/xlink">
    <title>Combined Shape</title>
    <g id="Page-1" stroke="none" stroke-width="1" fill="none" fill-rule="evenodd">
        <g id="Contact" transform="translate(-927.000000, -1229.000000)" fill="#DCA69F">
            <path d="M941,1229 C948.731986,1229 955,1235.26801 955,1243 C955,1250.73199 948.731986,1257 941,1257 C933.268014,1257 927,1250.73199 927,1243 C927,1235.26801 933.268014,1229 941,1229 Z M944.371954,1237.0108 C942.674658,1237.0108 941.298466,1238.38699 941.298466,1240.08335 C941.298466,1240.32394 941.325615,1240.55893 941.378051,1240.78363 C938.824151,1240.65535 936.559531,1239.43177 935.043852,1237.57249 C934.778905,1238.02561 934.628181,1238.5536 934.628181,1239.1172 C934.628181,1240.18353 935.171172,1241.12439 935.995022,1241.67485 C935.491346,1241.658 935.017633,1241.51945 934.602918,1241.28914 L934.602918,1241.32752 C934.602918,1242.81606 935.662681,1244.05837 937.067882,1244.34111 C936.810426,1244.41039 936.538943,1244.44877 936.258084,1244.44877 C936.059625,1244.44877 935.867701,1244.42912 935.679524,1244.39166 C936.070836,1245.61338 937.205509,1246.50181 938.549877,1246.52617 C937.498534,1247.35002 936.172893,1247.83964 934.733054,1247.83964 C934.484973,1247.83964 934.240614,1247.82466 934.000024,1247.79751 C935.360304,1248.67099 936.975225,1249.18027 938.710906,1249.18027 C944.364512,1249.18027 947.454867,1244.49746 947.454867,1240.43631 L947.444561,1240.03843 C948.048385,1239.60776 948.570763,1239.06665 948.981758,1238.45064 C948.430346,1238.69497 947.838689,1238.86068 947.217044,1238.93465 C947.851786,1238.55455 948.337665,1237.95166 948.567948,1237.23547 C947.972546,1237.58747 947.315331,1237.84307 946.615057,1237.98162 C946.054293,1237.38341 945.256661,1237.0108 944.371954,1237.0108 Z" id="Combined-Shape"></path>
        </g>
    </g>
</svg>