<?xml version="1.0" encoding="UTF-8"?>
<svg width="46px" height="46px" viewBox="0 0 46 46" version="1.1" xmlns="http://www.w3.org/2000/svg" xmlns:xlink="http://www.w3.org/1999/xlink">
    <title>like copy</title>
    <g id="Page-1" stroke="none" stroke-width="1" fill="none" fill-rule="evenodd">
        <g id="Desktop-HD-Copy" transform="translate(-754.000000, -2501.000000)" fill-rule="nonzero">
            <g id="Group-30" transform="translate(221.000000, 2318.000000)">
                <g id="Group-26" transform="translate(513.000000, 140.000000)">
                    <g id="like-copy" transform="translate(20.000000, 43.000000)">
                        <path d="M22.8971617,1.89612365 L25.5635359,0.888526826 C25.8609463,0.776160022 26.1956654,0.829168224 26.443772,1.02797103 L28.6683524,2.81022848 C28.839284,2.94720309 29.0543156,3.01705749 29.2730516,3.00673809 L32.1204123,2.87240948 C32.4380205,2.85741548 32.7399291,3.01123629 32.9144769,3.27707109 L34.4794096,5.65952956 C34.5996262,5.84263277 34.7824648,5.97546197 34.993792,6.03323297 L37.7432507,6.7853144 C38.0499221,6.8691926 38.2894733,7.10874381 38.3733515,7.41541521 L39.1254329,10.1648739 C39.1832039,10.3761129 39.3160331,10.5590397 39.4991363,10.6792563 L41.8815948,12.244189 C42.1473414,12.418825 42.3012504,12.7206454 42.2862564,13.0382536 L42.1519278,15.8856143 C42.1416084,16.1043503 42.211551,16.3193819 42.3484374,16.4903135 L44.1306949,18.7148939 C44.3294977,18.9630005 44.3825059,19.2977196 44.2701391,19.59513 L43.2625422,22.2615042 C43.1851026,22.4663928 43.1851026,22.6924495 43.2625422,22.8973381 L44.2701391,25.5637123 C44.3825059,25.8611227 44.3294977,26.1958418 44.1306949,26.4439484 L42.3484374,28.6685288 C42.2114628,28.8394604 42.1416084,29.054492 42.1519278,29.273228 L42.2862564,32.1205887 C42.3012504,32.4381969 42.1474296,32.7401055 41.8815948,32.9146533 L39.4991363,34.479586 C39.3160331,34.5998026 39.1832039,34.7826412 39.1254329,34.9939684 L38.3733515,37.7434271 C38.2894733,38.0500985 38.0499221,38.2896497 37.7432507,38.3735279 L34.993792,39.1256093 C34.782553,39.1833803 34.5996262,39.3162095 34.4794096,39.4993127 L32.9144769,41.8817712 C32.7398409,42.1475178 32.4380205,42.3014268 32.1204123,42.2864328 L29.2730516,42.1521042 C29.0543156,42.1417848 28.839284,42.2117274 28.6683524,42.3486138 L26.443772,44.1308713 C26.1956654,44.3296741 25.8609463,44.3826823 25.5635359,44.2703155 L22.8971617,43.2627186 C22.6922731,43.185279 22.4662164,43.185279 22.2613278,43.2627186 L19.5949536,44.2703155 C19.2975432,44.3826823 18.9628241,44.3296741 18.7147175,44.1308713 L16.4901371,42.3486138 C16.3192055,42.2116392 16.1041739,42.1417848 15.8854379,42.1521042 L13.0380772,42.2864328 C12.720469,42.3014268 12.4185604,42.147606 12.2440126,41.8817712 L10.6790799,39.4993127 C10.5588633,39.3162095 10.3760247,39.1833803 10.1646975,39.1256093 L7.41523881,38.3735279 C7.10856741,38.2896497 6.8690162,38.0500985 6.785138,37.7434271 L6.03305657,34.9939684 C5.97528557,34.7827294 5.84245637,34.5998026 5.65935316,34.479586 L3.27698289,32.9144769 C3.01123629,32.7398409 2.85732728,32.4380205 2.87232128,32.1204123 L3.00664989,29.2730516 C3.01696929,29.0542274 2.94702669,28.839284 2.81014028,28.6683524 L1.02788283,26.443772 C0.829080024,26.1956654 0.776071822,25.8609463 0.888438626,25.5635359 L1.89603545,22.8971617 C1.97347506,22.6922731 1.97347506,22.4662164 1.89603545,22.2613278 L0.888438626,19.5947772 C0.776071822,19.2973668 0.829080024,18.9626477 1.02788283,18.7145411 L2.81014028,16.4899607 C2.94711489,16.3190291 3.01696929,16.1039975 3.00664989,15.8852615 L2.87232128,13.0379008 C2.85732728,12.7202926 3.01114809,12.418384 3.27698289,12.2438362 L5.65944136,10.6789035 C5.84254457,10.5586869 5.97537377,10.3758483 6.03314477,10.1645211 L6.7852262,7.41506241 C6.8691044,7.10839101 7.10865561,6.8688398 7.41532701,6.7849616 L10.1647857,6.03288017 C10.3760247,5.97510917 10.5589515,5.84227997 10.6791681,5.65917676 L12.2441008,3.27671829 C12.4187368,3.01097169 12.7205572,2.85706268 13.0381654,2.87205668 L15.8855261,3.00638529 C16.1042621,3.01679289 16.3192937,2.94676209 16.4902253,2.80987568 L18.7148057,1.02761823 C18.9629123,0.828815424 19.2976314,0.775807222 19.5950418,0.888174026 L22.261416,1.89577085 C22.4661282,1.97347506 22.6922731,1.97347506 22.8971617,1.89612365 Z" id="Path" fill="#4DD0E1"></path>
                        <path d="M29.2367765,38.3049584 C16.7406883,38.3049584 6.610477,28.1748353 6.610477,15.678659 C6.610477,12.3319099 7.34288982,9.15812098 8.64692686,6.29999989 L7.28503062,6.6725567 C6.97835921,6.75643491 6.738808,6.99598611 6.6549298,7.30265752 L5.90276018,10.0521162 C5.84498918,10.2633552 5.71215997,10.446282 5.52905677,10.5665868 L3.1465983,12.1315195 C2.88085169,12.3061555 2.72694269,12.6079759 2.74193669,12.9254959 L2.87626529,15.7728566 C2.88658469,15.9915926 2.81664209,16.2066242 2.67975569,16.3775558 L0.897498234,18.6021362 C0.698695428,18.8502429 0.645687227,19.1849619 0.75805403,19.4822841 L1.76565086,22.1486584 C1.84309046,22.353547 1.84309046,22.5796036 1.76565086,22.7844922 L0.75805403,25.4508664 C0.645687227,25.7482769 0.698695428,26.0829959 0.897498234,26.3311025 L2.67975569,28.5556829 C2.81673029,28.7266145 2.88658469,28.9416461 2.87626529,29.1603822 L2.74193669,32.0077428 C2.72694269,32.325351 2.88076349,32.6272597 3.1465983,32.8018075 L5.52905677,34.3667401 C5.71207177,34.4869567 5.84498918,34.6697953 5.90276018,34.8811225 L6.6549298,37.6305812 C6.738808,37.9372526 6.97835921,38.1768038 7.28503062,38.2608584 L10.0344893,39.013028 C10.2457283,39.070799 10.4286551,39.2036282 10.5488717,39.3867314 L12.1138044,41.7691899 C12.2884404,42.0349365 12.5902608,42.1887573 12.907869,42.1738515 L15.7551415,42.0395229 C15.9739657,42.0292035 16.1889973,42.0991461 16.3599289,42.2360325 L18.5845093,44.01829 C18.832616,44.2170046 19.167335,44.270101 19.4646572,44.1577342 L22.1310314,43.1501374 C22.3359201,43.0726978 22.5619767,43.0726978 22.7668653,43.1501374 L25.4332395,44.1577342 C25.73065,44.270101 26.065369,44.2170928 26.3133874,44.01829 L28.5379678,42.2360325 C28.7088994,42.0991461 28.923931,42.0292917 29.1427552,42.0395229 L31.9900277,42.1738515 C32.3076359,42.1888455 32.6095445,42.0350247 32.7840924,41.7691899 L34.349025,39.3867314 C34.4692416,39.2037164 34.6520802,39.070799 34.8634074,39.013028 L37.6128661,38.2608584 C37.9195375,38.1769802 38.1590887,37.937429 38.2429669,37.6305812 L38.6155237,36.268685 C35.7572262,37.5726338 32.5834373,38.3049584 29.2367765,38.3049584 Z" id="Path" fill="#4DD0E1"></path>
                        <circle id="Oval" fill="#193647" cx="22.2468236" cy="22.2468236" r="17.3468237"></circle>
                        <g id="loop" transform="translate(11.200000, 10.500000)">
                            <path d="M10.8871069,22.4744614 C10.8863995,22.1021905 11.1672416,21.7814811 11.5388038,21.7538399 C16.114848,21.4148802 19.7347884,17.5807201 19.7347884,12.920689 L21.1863083,12.8806447 L21.1863083,12.920689 C21.1863083,18.3304004 16.9936979,22.7829448 11.6876413,23.1980951 C11.2586704,23.2314064 10.887817,22.9041411 10.8871069,22.4744614 Z" id="Path" fill="#FBC02D"></path>
                            <path d="M5.16519257,20.7240262 C1.97989305,18.8864147 0,15.4622664 0,11.788461 C0,10.2368302 0.349768131,8.7061074 1.0167018,7.3192609 C1.19247179,6.95407749 1.63366867,6.80612592 1.98503148,7.00776531 L2.05466615,7.04780966 C2.37395803,7.2313759 2.47778988,7.62845306 2.31885271,7.95997086 C1.74972649,9.14889891 1.45151993,10.4595548 1.45151993,11.788461 C1.45151993,14.9454105 3.15269702,17.8870773 5.89024379,19.4661722 L5.16519257,20.7240262 Z" id="Path" fill="#4DD0E1"></path>
                            <path d="M19.8423412,6.25454127 C19.5207459,6.44253719 19.1027606,6.35979062 18.8915532,6.05272471 C17.2476076,3.66423732 14.5050996,2.20474397 11.5861129,2.20474397 C10.0204842,2.20474397 8.48196524,2.61847673 7.1364034,3.40146826 L6.40621376,2.1475124 C7.97325994,1.23517401 9.76356235,0.753224037 11.5861129,0.753224037 C14.9709255,0.753224037 18.1512638,2.43845423 20.0664834,5.19921257 C20.3111793,5.55270158 20.2131947,6.03819535 19.8423412,6.25454127 Z" id="Path" fill="#E64A19"></path>
                            <path d="M9.26070423,4.35952104 L5.6319044,4.35952104 L5.6319044,0.730721215 C5.6319044,0.330100308 5.95704346,0.00496124976 6.35766437,0.00496124976 C6.75828532,0.00496124976 7.08342433,0.330100308 7.08342433,0.730721215 L7.08342433,2.90800111 L9.26070423,2.90800111 C9.66132518,2.90800111 9.98646419,3.23314017 9.98646419,3.63376107 C9.98646419,4.03438198 9.66132518,4.35952104 9.26070423,4.35952104 Z" id="Path" fill="#FF7043"></path>
                            <path d="M6.1689597,21.0520002 L2.54015988,21.0520002 C2.13953897,21.0520002 1.81439991,20.7268612 1.81439991,20.3262403 C1.81439991,19.9256194 2.13953897,19.6004803 2.54015988,19.6004803 L4.71743977,19.6004803 L4.71743977,17.4232004 C4.71743977,17.0225795 5.04257883,16.6974404 5.44319974,16.6974404 C5.84382064,16.6974404 6.1689597,17.0225795 6.1689597,17.4232004 L6.1689597,21.0520002 Z" id="Path" fill="#80DEEA"></path>
                            <path d="M22.0405293,14.5761518 L20.5005928,13.0367469 L18.9604791,14.5761518 C18.6775107,14.8591202 18.2173548,14.8591202 17.9342091,14.5761518 C17.650532,14.2922975 17.6512407,13.8328503 17.9342091,13.5498818 L20.5005928,10.984207 L23.0667992,13.5498818 C23.3506535,13.8328503 23.3506535,14.2930062 23.0667992,14.5761518 C22.7838307,14.859829 22.3243836,14.859829 22.0405293,14.5761518 L22.0405293,14.5761518 Z" id="Path" fill="#FDD835"></path>
                        </g>
                        <path d="M43.8980233,22.5792007 L45.1127137,19.364928 C45.2011783,19.1311098 45.1594597,18.8680091 45.0030811,18.6728225 L42.8546172,15.9911897 L43.0165524,12.5588866 C43.0283712,12.3092806 42.9073608,12.0717579 42.6985032,11.9346069 L39.8265347,10.0480971 L38.9200151,6.73371739 C38.8540415,6.49257859 38.6656463,6.30418338 38.4245957,6.23829798 L35.110216,5.33177835 L33.2237062,2.45989807 C33.086467,2.25095226 32.8490325,2.13047106 32.5994265,2.14184886 L29.1671234,2.30378407 L26.4854906,0.155320204 C26.2903922,-0.000970200028 26.0272916,-0.0426888012 25.7933851,0.0456876013 L22.5791125,1.26037804 L19.3650162,0.0457758013 C19.1310216,-0.0426888012 18.8680091,-0.000970200028 18.6729107,0.155408404 L15.9912779,2.30387227 L12.5589748,2.14193706 C12.308134,2.13011826 12.0718461,2.25112866 11.9346951,2.45998627 L10.0481853,5.33195475 L6.73389379,6.23847438 C6.49275499,6.30444798 6.30435978,6.49284319 6.23847438,6.73389379 L5.33195475,10.0482735 L2.45998627,11.9347833 C2.25104046,12.0720225 2.13011826,12.309457 2.14193706,12.559063 L2.30387227,15.9913661 L0.155408404,18.6729107 C-0.000882000025,18.8680091 -0.0426006012,19.1311098 0.0457758013,19.3650162 L1.26037804,22.5792007 L0.0456876013,25.7933851 C-0.0427770012,26.0272034 -0.00105840003,26.290304 0.155320204,26.4854906 L2.30378407,29.1671234 L2.14184886,32.5994265 C2.13003006,32.8490325 2.25104046,33.0865552 2.45989807,33.2237062 L5.33186655,35.110216 L6.23838618,38.4245957 C6.30435978,38.6657345 6.49275499,38.8541297 6.73380559,38.9200151 L10.0481853,39.8265347 L11.9346951,42.6985032 C12.0719343,42.907449 12.3098098,43.0276656 12.5589748,43.0165524 L15.9912779,42.8546172 L18.6729107,45.0030811 C18.8680091,45.1594597 19.131198,45.2011783 19.3650162,45.1127137 L22.5792889,43.8980233 L25.7935615,45.1127137 C25.8747055,45.1433191 25.9592893,45.1584283 26.0434322,45.1584283 C26.2018394,45.1584283 26.358218,45.1051285 26.4855788,45.0030811 L29.1672116,42.8546172 L32.5995147,43.0165524 C32.8499145,43.0276656 33.0865552,42.9073608 33.2237944,42.6985032 L35.1103042,39.8265347 L38.4246839,38.9200151 C38.6658227,38.8540415 38.8542179,38.6656463 38.9201033,38.4245957 L39.8266229,35.110216 L42.6985914,33.2237062 C42.9075372,33.086467 43.0284594,32.8490325 43.0166406,32.5994265 L42.8547054,29.1671234 L45.0031693,26.4854906 C45.1594597,26.2903922 45.2011783,26.0272916 45.1128019,25.7933851 L43.8980233,22.5792007 Z M42.4807374,22.8291595 L43.6472707,25.9160713 L41.5839198,28.4914232 C41.4762276,28.6257518 41.421279,28.7948312 41.4293934,28.9668212 L41.5849782,32.2631199 L38.8267877,34.0748362 C38.6829335,34.1692984 38.5783283,34.3131526 38.5329053,34.4793214 L37.6622831,37.6623713 L34.4792332,38.5329935 C34.3131526,38.5784165 34.1693866,38.6829335 34.074748,38.8268759 L32.2630317,41.5850664 L28.966733,41.4294816 C28.7946548,41.4215436 28.6256636,41.4763158 28.491335,41.584008 L25.9159831,43.6473589 L22.8290713,42.4808256 C22.7485447,42.4503966 22.6637845,42.4352262 22.5791125,42.4352262 C22.4944404,42.4352262 22.4096802,42.4504848 22.3291536,42.4808256 L19.2422418,43.6473589 L16.6668899,41.584008 C16.5325613,41.4763158 16.3632173,41.4215436 16.1914919,41.4294816 L12.8951932,41.5850664 L11.0834769,38.8268759 C10.9890147,38.6830217 10.8451605,38.5784165 10.6789917,38.5329935 L7.49594182,37.6623713 L6.62531959,34.4793214 C6.57989659,34.3132408 6.47537959,34.1694748 6.33143718,34.0748362 L3.5733349,32.2631199 L3.72891971,28.9668212 C3.73703411,28.794743 3.68208551,28.6257518 3.5743933,28.4914232 L1.51104244,25.9160713 L2.67757568,22.8291595 C2.73852188,22.6681063 2.73852188,22.490295 2.67757568,22.3292418 L1.51104244,19.24233 L3.5743933,16.6669781 C3.68208551,16.5326495 3.73703411,16.3635701 3.72891971,16.1915801 L3.5733349,12.8952814 L6.33143718,11.0835651 C6.47529139,10.9891029 6.57989659,10.8452487 6.62531959,10.6790799 L7.49594182,7.49603002 L10.6789917,6.62540779 C10.8450723,6.57998479 10.9888383,6.47546779 11.0834769,6.33152538 L12.8951932,3.5734231 L16.1914919,3.72900791 C16.3633055,3.73703411 16.5325613,3.68217371 16.6668899,3.5744815 L19.2422418,1.51113064 L22.3291536,2.67766388 C22.490295,2.73861008 22.6680181,2.73861008 22.8290713,2.67766388 L25.9159831,1.51113064 L28.491335,3.5744815 C28.6256636,3.68226191 28.7948312,3.73712231 28.966733,3.72900791 L32.2630317,3.5734231 L34.074748,6.33152538 C34.1692102,6.47537959 34.3130644,6.57998479 34.4792332,6.62540779 L37.6622831,7.49603002 L38.5329053,10.6790799 C38.5783283,10.8451605 38.6828453,10.9889265 38.8267877,11.0835651 L41.58489,12.8952814 L41.4293052,16.1915801 C41.4211908,16.3636583 41.4761394,16.5326495 41.5838316,16.6669781 L43.6472707,19.24233 L42.4806492,22.3292418 C42.4198794,22.4903832 42.4198794,22.6681063 42.4807374,22.8291595 Z" id="Shape" fill="#000000"></path>
                        <path d="M34.3225018,10.8037065 C34.4924632,10.9736679 34.6610134,11.1496269 34.8233896,11.3263797 C34.9628338,11.4782601 35.1533458,11.5552587 35.3444752,11.5552587 C35.5153186,11.5552587 35.6866912,11.4936951 35.822431,11.3690685 C36.1100512,11.1049977 36.1291906,10.6576473 35.8651198,10.3700271 C35.6891608,10.1784567 35.506675,9.98794469 35.3224252,9.80378308 C35.1381754,9.61962148 34.9477516,9.43704747 34.7561812,9.26108847 C34.468561,8.99701766 34.0212988,9.01606886 33.7571398,9.30377727 C33.493069,9.59139748 33.5121202,10.0387479 33.7998286,10.3028187 C33.9765814,10.4651067 34.152364,10.6335687 34.3225018,10.8037065 Z" id="Path" fill="#000000"></path>
                        <path d="M10.7903001,10.8037065 C13.4839282,8.10999023 17.0500307,6.41081718 20.8314294,6.01912097 C24.5600845,5.63280496 28.3435118,6.52265479 31.4852841,8.52426565 C31.8147111,8.73409345 32.2516539,8.63724985 32.4614817,8.30791104 C32.6713095,7.97857223 32.5744659,7.54154122 32.2451271,7.33171341 C28.835315,5.15934735 24.7299577,4.19391012 20.685723,4.61259553 C16.5822179,5.03771955 12.7128838,6.881276 9.79028848,9.80378308 C6.57389899,13.0201726 4.70123654,17.2929335 4.51725133,21.834969 C4.33450093,26.3501918 5.83002017,30.7340847 8.72853685,34.178824 C8.86833386,34.3449928 9.06837146,34.430635 9.26999667,34.430635 C9.43069707,34.430635 9.59219128,34.3761274 9.72484408,34.2646426 C10.0235775,34.0131844 10.0620327,33.567157 9.81066268,33.2684236 C7.13987841,30.0941937 5.76184157,26.0541044 5.93039177,21.8922108 C6.09982398,17.7060623 7.82580983,13.7681086 10.7903001,10.8037065 Z" id="Path" fill="#000000"></path>
                        <path d="M36.8183855,12.6645502 C36.4889585,12.874378 36.3922031,13.3114972 36.6020309,13.6407478 C38.6036417,16.7826083 39.4933151,20.566212 39.1071755,24.2946025 C38.7154793,28.0760894 37.0163063,31.6421037 34.3226782,34.3359082 C31.3581879,37.3003103 27.4202342,39.0262961 23.2341739,39.1958165 C19.072986,39.3649841 15.0321028,37.9863299 11.8579611,35.3156338 C11.5592277,35.0641756 11.1132003,35.1026308 10.8617421,35.4014524 C10.6102839,35.7001858 10.6487391,36.1462132 10.9475607,36.3976715 C14.203993,39.1376045 18.2991191,40.6238628 22.5516823,40.6238628 C22.7976721,40.6238628 23.0446321,40.6188354 23.2915921,40.6088688 C27.8336276,40.4249718 32.1063003,38.5523093 35.322778,35.3359198 C38.2453733,32.4133245 40.089018,28.5439022 40.5139656,24.4403971 C40.9329156,20.395986 39.967302,16.2908051 37.7948477,12.880993 C37.5848435,12.551566 37.1475479,12.4546342 36.8183855,12.6645502 Z" id="Path" fill="#000000"></path>
                    </g>
                </g>
            </g>
        </g>
    </g>
</svg>