<?xml version="1.0" encoding="UTF-8"?>
<svg width="28px" height="28px" viewBox="0 0 28 28" version="1.1" xmlns="http://www.w3.org/2000/svg" xmlns:xlink="http://www.w3.org/1999/xlink">
    <title>Combined Shape</title>
    <g id="Page-1" stroke="none" stroke-width="1" fill="none" fill-rule="evenodd">
        <g id="prices" transform="translate(-580.000000, -1610.000000)" fill="#D8D8D8">
            <g id="Group-2" transform="translate(0.000000, 1508.000000)">
                <g id="Group-3">
                    <g id="Group-7" transform="translate(464.000000, 50.000000)">
                        <g id="Group-4" transform="translate(0.000000, 52.000000)">
                            <path d="M130,0 C137.731986,0 144,6.2680135 144,14 C144,21.7319865 137.731986,28 130,28 C122.268014,28 116,21.7319865 116,14 C116,6.2680135 122.268014,0 130,0 Z M134.5568,9.1152 L124.6496,9.1152 C123.249889,9.1152 122.1152,10.2498895 122.1152,11.6495999 L122.1152,16.9487997 C122.1152,18.3485102 123.249889,19.4831996 124.6496,19.4831996 L134.5568,19.4831996 C135.95651,19.4831996 137.091199,18.3485102 137.091199,16.9487997 L137.091199,11.6495999 C137.091199,10.2498895 135.95651,9.1152 134.5568,9.1152 Z M128.043392,11.8938239 L132.536192,14.1978238 C132.574665,14.2175341 132.598865,14.2571238 132.598865,14.3003518 C132.598865,14.3435798 132.574665,14.3831696 132.536192,14.4028798 L132.536192,14.4005758 L128.043392,16.7045757 C128.007824,16.7230039 127.965236,16.7216321 127.930928,16.7009531 C127.896619,16.680274 127.875516,16.6432571 127.8752,16.6031997 L127.8752,11.9951999 C127.875516,11.9551426 127.896619,11.9181256 127.930928,11.8974466 C127.965236,11.8767675 128.007824,11.8753957 128.043392,11.8938239 Z" id="Combined-Shape"></path>
                        </g>
                    </g>
                </g>
            </g>
        </g>
    </g>
</svg>